G04*
G04 #@! TF.GenerationSoftware,Altium Limited,Altium Designer,24.6.1 (21)*
G04*
G04 Layer_Color=8421504*
%FSLAX44Y44*%
%MOMM*%
G71*
G04*
G04 #@! TF.SameCoordinates,AFB4F5FC-0506-43F6-848E-FD61737C44D3*
G04*
G04*
G04 #@! TF.FilePolarity,Positive*
G04*
G01*
G75*
%ADD19R,1.6080X1.8080*%
%ADD20R,0.2794X1.7780*%
%ADD21R,1.7780X0.2794*%
%ADD22O,2.2080X0.8080*%
%ADD23R,0.9000X0.9000*%
%ADD24R,0.9000X1.5000*%
%ADD25R,1.5000X0.9000*%
%ADD26R,1.8580X1.7080*%
%ADD27R,2.5654X1.2700*%
%ADD28R,1.7080X1.8580*%
%ADD29R,1.8080X1.9580*%
%ADD30R,0.9000X1.3500*%
%ADD31R,1.9580X1.8080*%
%ADD32R,1.6080X1.9580*%
%ADD33R,1.9580X1.6080*%
%ADD34R,1.1430X2.0320*%
%ADD35R,3.3000X2.3000*%
%ADD36R,1.1176X0.4572*%
G04:AMPARAMS|DCode=37|XSize=1.5544mm|YSize=0.5721mm|CornerRadius=0.2861mm|HoleSize=0mm|Usage=FLASHONLY|Rotation=0.000|XOffset=0mm|YOffset=0mm|HoleType=Round|Shape=RoundedRectangle|*
%AMROUNDEDRECTD37*
21,1,1.5544,0.0000,0,0,0.0*
21,1,0.9823,0.5721,0,0,0.0*
1,1,0.5721,0.4911,0.0000*
1,1,0.5721,-0.4911,0.0000*
1,1,0.5721,-0.4911,0.0000*
1,1,0.5721,0.4911,0.0000*
%
%ADD37ROUNDEDRECTD37*%
%ADD38R,1.5544X0.5721*%
%ADD39R,0.4572X1.1176*%
%ADD40R,2.2000X2.8000*%
%ADD41R,0.8500X0.8500*%
%ADD42R,0.6221X2.4692*%
G04:AMPARAMS|DCode=43|XSize=2.4692mm|YSize=0.6221mm|CornerRadius=0.3111mm|HoleSize=0mm|Usage=FLASHONLY|Rotation=270.000|XOffset=0mm|YOffset=0mm|HoleType=Round|Shape=RoundedRectangle|*
%AMROUNDEDRECTD43*
21,1,2.4692,0.0000,0,0,270.0*
21,1,1.8470,0.6221,0,0,270.0*
1,1,0.6221,0.0000,-0.9235*
1,1,0.6221,0.0000,0.9235*
1,1,0.6221,0.0000,0.9235*
1,1,0.6221,0.0000,-0.9235*
%
%ADD43ROUNDEDRECTD43*%
%ADD44R,1.0500X1.3000*%
%ADD45R,1.8080X1.6080*%
%ADD46R,0.4826X1.2573*%
%ADD47R,1.3080X1.4080*%
%ADD48R,1.3080X1.3080*%
D19*
X1455912Y1029186D02*
D03*
X1476912D02*
D03*
X1476912Y1073579D02*
D03*
X1455912D02*
D03*
X1476789Y1051329D02*
D03*
X1455789D02*
D03*
X1630512Y1032087D02*
D03*
X1609512D02*
D03*
X1630512Y1053486D02*
D03*
X1609512D02*
D03*
X1630512Y1074829D02*
D03*
X1609512D02*
D03*
D20*
X1265750Y945388D02*
D03*
X1260750D02*
D03*
X1255750D02*
D03*
X1250750D02*
D03*
X1245750D02*
D03*
X1240750D02*
D03*
X1235750D02*
D03*
X1230750D02*
D03*
X1225750D02*
D03*
X1220750D02*
D03*
X1215750D02*
D03*
X1210750D02*
D03*
Y1030732D02*
D03*
X1215750D02*
D03*
X1220750D02*
D03*
X1225750D02*
D03*
X1230750D02*
D03*
X1235750D02*
D03*
X1240750D02*
D03*
X1245750D02*
D03*
X1250750D02*
D03*
X1255750D02*
D03*
X1260750D02*
D03*
X1265750D02*
D03*
D21*
X1195578Y960560D02*
D03*
Y965560D02*
D03*
Y970560D02*
D03*
Y975560D02*
D03*
Y980560D02*
D03*
Y985560D02*
D03*
Y990560D02*
D03*
Y995560D02*
D03*
Y1000560D02*
D03*
Y1005560D02*
D03*
Y1010560D02*
D03*
Y1015560D02*
D03*
X1280922D02*
D03*
Y1010560D02*
D03*
Y1005560D02*
D03*
Y1000560D02*
D03*
Y995560D02*
D03*
Y990560D02*
D03*
Y985560D02*
D03*
Y980560D02*
D03*
Y975560D02*
D03*
Y970560D02*
D03*
Y965560D02*
D03*
Y960560D02*
D03*
D22*
X1530170Y798670D02*
D03*
Y793670D02*
D03*
Y788670D02*
D03*
Y783670D02*
D03*
X1571170Y798670D02*
D03*
Y793670D02*
D03*
Y778670D02*
D03*
Y783670D02*
D03*
Y788670D02*
D03*
X1530170Y778670D02*
D03*
D23*
X1008650Y1004610D02*
D03*
X994650D02*
D03*
X980650D02*
D03*
X1008650Y1018610D02*
D03*
X994650D02*
D03*
X980650D02*
D03*
X1008650Y1032610D02*
D03*
X994650D02*
D03*
X980650D02*
D03*
D24*
X1066800Y918210D02*
D03*
X1054100D02*
D03*
X1041400D02*
D03*
X1028700D02*
D03*
X1016000D02*
D03*
X1003300D02*
D03*
X990600D02*
D03*
X977900D02*
D03*
X965200D02*
D03*
X952500D02*
D03*
D25*
X1097150Y1095810D02*
D03*
Y1083110D02*
D03*
Y1070410D02*
D03*
Y1057710D02*
D03*
Y1045010D02*
D03*
Y1032310D02*
D03*
Y1019610D02*
D03*
Y1006910D02*
D03*
Y994210D02*
D03*
Y981510D02*
D03*
Y968810D02*
D03*
Y956110D02*
D03*
Y943410D02*
D03*
Y930710D02*
D03*
X922150D02*
D03*
Y943410D02*
D03*
Y956110D02*
D03*
Y968810D02*
D03*
Y981510D02*
D03*
Y994210D02*
D03*
Y1006910D02*
D03*
Y1019610D02*
D03*
Y1032310D02*
D03*
Y1045010D02*
D03*
Y1057710D02*
D03*
Y1070410D02*
D03*
Y1083110D02*
D03*
Y1095810D02*
D03*
D26*
X1599309Y735419D02*
D03*
Y752419D02*
D03*
X1578859Y735955D02*
D03*
Y752955D02*
D03*
X1641732Y735342D02*
D03*
Y752342D02*
D03*
X1620448Y735342D02*
D03*
Y752342D02*
D03*
X1606489Y527416D02*
D03*
Y544416D02*
D03*
X1016000Y587620D02*
D03*
Y570620D02*
D03*
X1038860Y625330D02*
D03*
Y608330D02*
D03*
X1016000Y665671D02*
D03*
Y648671D02*
D03*
X1038860Y665671D02*
D03*
Y648671D02*
D03*
X1016000Y608330D02*
D03*
Y625330D02*
D03*
X1038860Y706120D02*
D03*
Y689120D02*
D03*
X1016000Y706120D02*
D03*
Y689120D02*
D03*
X1038860Y747640D02*
D03*
Y730640D02*
D03*
Y587620D02*
D03*
Y570620D02*
D03*
X1016000Y747640D02*
D03*
Y730640D02*
D03*
X1038860Y544882D02*
D03*
Y527882D02*
D03*
X1016000Y544882D02*
D03*
Y527882D02*
D03*
X1038860Y867931D02*
D03*
Y850931D02*
D03*
Y828035D02*
D03*
Y811035D02*
D03*
X1016000Y828035D02*
D03*
Y811035D02*
D03*
Y867931D02*
D03*
Y850931D02*
D03*
Y786620D02*
D03*
Y769620D02*
D03*
X1038860Y786620D02*
D03*
Y769620D02*
D03*
X1276604Y564453D02*
D03*
Y547453D02*
D03*
X1255714Y564453D02*
D03*
Y547453D02*
D03*
X1234580Y564372D02*
D03*
Y547372D02*
D03*
X1213609Y564453D02*
D03*
Y547453D02*
D03*
X1192148Y564454D02*
D03*
Y547453D02*
D03*
X1318386Y547331D02*
D03*
Y564331D02*
D03*
X1297724Y547365D02*
D03*
Y564366D02*
D03*
X1392341Y659002D02*
D03*
Y676002D02*
D03*
X1315668Y659392D02*
D03*
Y676392D02*
D03*
X1526618Y481128D02*
D03*
Y498128D02*
D03*
X1573530Y528710D02*
D03*
Y545710D02*
D03*
X1643380Y561730D02*
D03*
Y578730D02*
D03*
X1503680Y534280D02*
D03*
Y517280D02*
D03*
X1470660Y600710D02*
D03*
Y583710D02*
D03*
X1426210Y600710D02*
D03*
Y583710D02*
D03*
X1447800Y583320D02*
D03*
Y600320D02*
D03*
X1493520Y584200D02*
D03*
Y601200D02*
D03*
X815340Y823450D02*
D03*
Y806450D02*
D03*
X870010Y823450D02*
D03*
Y806450D02*
D03*
X844035Y823450D02*
D03*
Y806450D02*
D03*
D27*
X804090Y529590D02*
D03*
Y554990D02*
D03*
Y580390D02*
D03*
Y605790D02*
D03*
Y631190D02*
D03*
Y656590D02*
D03*
Y681990D02*
D03*
Y707390D02*
D03*
Y732790D02*
D03*
Y758190D02*
D03*
X890090D02*
D03*
Y732790D02*
D03*
Y707390D02*
D03*
Y681990D02*
D03*
Y656590D02*
D03*
Y631190D02*
D03*
Y605790D02*
D03*
Y580390D02*
D03*
Y554990D02*
D03*
Y529590D02*
D03*
D28*
X1580270Y711200D02*
D03*
X1597270D02*
D03*
X1619640D02*
D03*
X1636640D02*
D03*
X1498600Y803910D02*
D03*
X1481600D02*
D03*
X1498706Y783072D02*
D03*
X1481706D02*
D03*
X1610750Y783590D02*
D03*
X1627750D02*
D03*
X1585586Y598890D02*
D03*
X1568586D02*
D03*
X1391040Y494030D02*
D03*
X1408040D02*
D03*
X1391040Y514740D02*
D03*
X1408040D02*
D03*
Y535940D02*
D03*
X1391040D02*
D03*
X1606686Y598890D02*
D03*
X1623686D02*
D03*
D29*
X1145920Y876300D02*
D03*
X1129920D02*
D03*
X1370370Y911869D02*
D03*
X1354370D02*
D03*
X1627250Y377190D02*
D03*
X1611250D02*
D03*
X1611358Y804780D02*
D03*
X1627358D02*
D03*
X1370710Y980440D02*
D03*
X1354710D02*
D03*
X1164210Y938530D02*
D03*
X1180210D02*
D03*
X1267080Y915670D02*
D03*
X1283080D02*
D03*
X1208530Y1109980D02*
D03*
X1192530D02*
D03*
X1208150Y1085850D02*
D03*
X1192150D02*
D03*
X1697084Y336467D02*
D03*
X1681084D02*
D03*
X1441541Y465797D02*
D03*
X1457540D02*
D03*
D30*
X1150706Y758729D02*
D03*
X1125706D02*
D03*
Y713229D02*
D03*
X1150706D02*
D03*
D31*
X1322070Y1021460D02*
D03*
Y1005460D02*
D03*
X878576Y1068960D02*
D03*
Y1084960D02*
D03*
X855980Y1068960D02*
D03*
Y1084960D02*
D03*
X1370813Y659409D02*
D03*
Y675409D02*
D03*
X1294130Y660020D02*
D03*
Y676020D02*
D03*
X1228090Y659640D02*
D03*
Y675640D02*
D03*
X1168543Y589800D02*
D03*
Y605800D02*
D03*
X1107777Y589790D02*
D03*
Y605790D02*
D03*
X1246221Y894134D02*
D03*
Y910134D02*
D03*
X1229360Y1105280D02*
D03*
Y1089280D02*
D03*
X1344930Y1005460D02*
D03*
Y1021460D02*
D03*
X1313180Y933070D02*
D03*
Y949070D02*
D03*
X1504406Y481628D02*
D03*
Y497628D02*
D03*
X1666240Y562230D02*
D03*
Y578230D02*
D03*
X1618836Y297087D02*
D03*
Y313087D02*
D03*
X1644027Y297087D02*
D03*
Y313087D02*
D03*
D32*
X1672730Y273050D02*
D03*
X1690230D02*
D03*
X1146706Y628650D02*
D03*
X1129206D02*
D03*
X1186109Y824310D02*
D03*
X1203609D02*
D03*
X1185969Y802720D02*
D03*
X1203469D02*
D03*
X1203497Y846531D02*
D03*
X1185997D02*
D03*
X1525550Y867410D02*
D03*
X1543050D02*
D03*
X1542910Y844277D02*
D03*
X1525410D02*
D03*
X1500812Y1073579D02*
D03*
X1518312D02*
D03*
X1500812Y1050986D02*
D03*
X1518312D02*
D03*
X1500786Y1029382D02*
D03*
X1518286D02*
D03*
X1651298Y1031686D02*
D03*
X1668798D02*
D03*
X1651339Y1053544D02*
D03*
X1668839D02*
D03*
X1651230Y1074649D02*
D03*
X1668730D02*
D03*
X1333360Y980440D02*
D03*
X1315860D02*
D03*
X1672450Y377190D02*
D03*
X1654950D02*
D03*
X1669910Y405130D02*
D03*
X1652410D02*
D03*
D33*
X1565910Y432930D02*
D03*
Y415430D02*
D03*
X1515474Y409871D02*
D03*
Y392371D02*
D03*
Y331418D02*
D03*
Y313918D02*
D03*
D34*
X1473835Y274320D02*
D03*
X1500505D02*
D03*
D35*
X1564640Y383370D02*
D03*
Y330370D02*
D03*
D36*
X991870Y610870D02*
D03*
Y624840D02*
D03*
X973836Y617855D02*
D03*
X991870Y692150D02*
D03*
Y706120D02*
D03*
X973836Y699135D02*
D03*
X973963Y579120D02*
D03*
X991997Y586105D02*
D03*
Y572135D02*
D03*
X991870Y651510D02*
D03*
Y665480D02*
D03*
X973836Y658495D02*
D03*
Y739775D02*
D03*
X991870Y746760D02*
D03*
Y732790D02*
D03*
X973836Y780415D02*
D03*
X991870Y787400D02*
D03*
Y773430D02*
D03*
X973836Y861695D02*
D03*
X991870Y868680D02*
D03*
Y854710D02*
D03*
X973836Y821055D02*
D03*
X991870Y828040D02*
D03*
Y814070D02*
D03*
D37*
X1700894Y316097D02*
D03*
Y306597D02*
D03*
Y297097D02*
D03*
X1678889D02*
D03*
Y306597D02*
D03*
D38*
Y316097D02*
D03*
D39*
X1280443Y584953D02*
D03*
X1294413D02*
D03*
X1287428Y602987D02*
D03*
D40*
X1385570Y703580D02*
D03*
Y751580D02*
D03*
X1311910Y703580D02*
D03*
Y751580D02*
D03*
X1238250Y703580D02*
D03*
Y751580D02*
D03*
D41*
X1147706Y680767D02*
D03*
X1128706D02*
D03*
X1138206Y660767D02*
D03*
D42*
X1156970Y848372D02*
D03*
D43*
X1144270D02*
D03*
X1131570D02*
D03*
X1118870D02*
D03*
Y800100D02*
D03*
X1131570D02*
D03*
X1144270D02*
D03*
X1156970D02*
D03*
D44*
X1371460Y937190D02*
D03*
Y960190D02*
D03*
X1353960D02*
D03*
Y937190D02*
D03*
D45*
X1494442Y409687D02*
D03*
Y388687D02*
D03*
X1493520Y331470D02*
D03*
Y310470D02*
D03*
D46*
X1474470Y540575D02*
D03*
X1461770D02*
D03*
X1449070D02*
D03*
X1436370D02*
D03*
Y488125D02*
D03*
X1449070D02*
D03*
X1461770D02*
D03*
X1474470D02*
D03*
D47*
X1615186Y581110D02*
D03*
X1624686Y561110D02*
D03*
X1605686D02*
D03*
X1576476D02*
D03*
X1566976Y581110D02*
D03*
X1585976D02*
D03*
D48*
X996250Y525170D02*
D03*
Y544170D02*
D03*
X972250Y534670D02*
D03*
M02*
