G04*
G04 #@! TF.GenerationSoftware,Altium Limited,Altium Designer,24.6.1 (21)*
G04*
G04 Layer_Physical_Order=4*
G04 Layer_Color=16711680*
%FSLAX44Y44*%
%MOMM*%
G71*
G04*
G04 #@! TF.SameCoordinates,AFB4F5FC-0506-43F6-848E-FD61737C44D3*
G04*
G04*
G04 #@! TF.FilePolarity,Positive*
G04*
G01*
G75*
%ADD14C,0.2540*%
%ADD50R,2.7500X2.7500*%
%ADD51C,2.7500*%
%ADD52C,1.2700*%
%ADD53R,3.2000X1.6000*%
G04:AMPARAMS|DCode=54|XSize=3.2mm|YSize=1.6mm|CornerRadius=0.8mm|HoleSize=0mm|Usage=FLASHONLY|Rotation=180.000|XOffset=0mm|YOffset=0mm|HoleType=Round|Shape=RoundedRectangle|*
%AMROUNDEDRECTD54*
21,1,3.2000,0.0000,0,0,180.0*
21,1,1.6000,1.6000,0,0,180.0*
1,1,1.6000,-0.8000,0.0000*
1,1,1.6000,0.8000,0.0000*
1,1,1.6000,0.8000,0.0000*
1,1,1.6000,-0.8000,0.0000*
%
%ADD54ROUNDEDRECTD54*%
G04:AMPARAMS|DCode=55|XSize=1.6mm|YSize=3.2mm|CornerRadius=0.8mm|HoleSize=0mm|Usage=FLASHONLY|Rotation=180.000|XOffset=0mm|YOffset=0mm|HoleType=Round|Shape=RoundedRectangle|*
%AMROUNDEDRECTD55*
21,1,1.6000,1.6000,0,0,180.0*
21,1,0.0000,3.2000,0,0,180.0*
1,1,1.6000,0.0000,0.8000*
1,1,1.6000,0.0000,0.8000*
1,1,1.6000,0.0000,-0.8000*
1,1,1.6000,0.0000,-0.8000*
%
%ADD55ROUNDEDRECTD55*%
%ADD76C,0.4500*%
G36*
X1678151Y328930D02*
X1672590D01*
Y294640D01*
X1545590D01*
Y313690D01*
X1643380D01*
Y345231D01*
X1678151D01*
Y328930D01*
D02*
G37*
%LPC*%
G36*
X1664970Y341209D02*
Y337820D01*
X1668359D01*
X1667761Y339263D01*
X1666413Y340611D01*
X1664970Y341209D01*
D02*
G37*
G36*
X1662430D02*
X1660987Y340611D01*
X1659639Y339263D01*
X1659041Y337820D01*
X1662430D01*
Y341209D01*
D02*
G37*
G36*
X1652691D02*
Y337820D01*
X1656080D01*
X1655482Y339263D01*
X1654135Y340611D01*
X1652691Y341209D01*
D02*
G37*
G36*
X1650151D02*
X1648708Y340611D01*
X1647361Y339263D01*
X1646763Y337820D01*
X1650151D01*
Y341209D01*
D02*
G37*
G36*
X1668359Y335280D02*
X1664970D01*
Y331891D01*
X1666413Y332489D01*
X1667761Y333837D01*
X1668359Y335280D01*
D02*
G37*
G36*
X1662430D02*
X1659041D01*
X1659639Y333837D01*
X1660987Y332489D01*
X1662430Y331891D01*
Y335280D01*
D02*
G37*
G36*
X1656080D02*
X1652691D01*
Y331891D01*
X1654135Y332489D01*
X1655482Y333837D01*
X1656080Y335280D01*
D02*
G37*
G36*
X1650151D02*
X1646763D01*
X1647361Y333837D01*
X1648708Y332489D01*
X1650151Y331891D01*
Y335280D01*
D02*
G37*
G36*
X1663802Y311124D02*
Y307736D01*
X1667190D01*
X1666592Y309179D01*
X1665245Y310527D01*
X1663802Y311124D01*
D02*
G37*
G36*
X1661262D02*
X1659818Y310527D01*
X1658471Y309179D01*
X1657873Y307736D01*
X1661262D01*
Y311124D01*
D02*
G37*
G36*
X1570543Y310704D02*
Y307316D01*
X1573932D01*
X1573334Y308759D01*
X1571987Y310107D01*
X1570543Y310704D01*
D02*
G37*
G36*
X1568003D02*
X1566560Y310107D01*
X1565212Y308759D01*
X1564615Y307316D01*
X1568003D01*
Y310704D01*
D02*
G37*
G36*
X1554307Y310558D02*
Y307169D01*
X1557695D01*
X1557097Y308613D01*
X1555750Y309960D01*
X1554307Y310558D01*
D02*
G37*
G36*
X1551767D02*
X1550323Y309960D01*
X1548976Y308613D01*
X1548378Y307169D01*
X1551767D01*
Y310558D01*
D02*
G37*
G36*
X1667190Y305196D02*
X1663802D01*
Y301807D01*
X1665245Y302405D01*
X1666592Y303752D01*
X1667190Y305196D01*
D02*
G37*
G36*
X1661262D02*
X1657873D01*
X1658471Y303752D01*
X1659818Y302405D01*
X1661262Y301807D01*
Y305196D01*
D02*
G37*
G36*
X1573932Y304776D02*
X1570543D01*
Y301387D01*
X1571987Y301985D01*
X1573334Y303332D01*
X1573932Y304776D01*
D02*
G37*
G36*
X1568003D02*
X1564615D01*
X1565212Y303332D01*
X1566560Y301985D01*
X1568003Y301387D01*
Y304776D01*
D02*
G37*
G36*
X1557695Y304629D02*
X1554307D01*
Y301241D01*
X1555750Y301839D01*
X1557097Y303186D01*
X1557695Y304629D01*
D02*
G37*
G36*
X1551767D02*
X1548378D01*
X1548976Y303186D01*
X1550323Y301839D01*
X1551767Y301241D01*
Y304629D01*
D02*
G37*
%LPD*%
D14*
X1301750Y500380D02*
X1612900D01*
X1265138Y986799D02*
X1499861D01*
X1263650Y988287D02*
X1265138Y986799D01*
X1263650Y988287D02*
Y999490D01*
X1225179Y975654D02*
X1225554Y975279D01*
Y972816D02*
X1299293Y899077D01*
X1430937D01*
X1300915Y903876D02*
X1438004D01*
X1245306Y959484D02*
Y970654D01*
X1225554Y972816D02*
Y975279D01*
X1245306Y959484D02*
X1300915Y903876D01*
X1241260Y974700D02*
Y975178D01*
Y974700D02*
X1245306Y970654D01*
X1259341Y966907D02*
X1259341D01*
X1254737Y962303D02*
X1259341Y966907D01*
X1259341D02*
X1274144Y981710D01*
X1717040Y273050D02*
Y307340D01*
X1426210Y567690D02*
X1492250D01*
X1234440Y614680D02*
X1394460D01*
X1581922Y802142D02*
Y904737D01*
X1394460Y614680D02*
X1581922Y802142D01*
X1197070Y749965D02*
X1210310Y736725D01*
Y659130D02*
Y736725D01*
X1197070Y749965D02*
Y883190D01*
X1366929Y1030350D02*
X1538089D01*
X1540249Y1032510D02*
X1540557D01*
X1538089Y1030350D02*
X1540249Y1032510D01*
X1216220Y983770D02*
X1249180Y1016730D01*
X1211680Y985650D02*
X1247300Y1021270D01*
X1681065Y1025810D02*
X1688594Y1033339D01*
X1207140Y987531D02*
X1245419Y1025810D01*
X1695271Y1021270D02*
X1700367Y1026367D01*
X1251109Y1010205D02*
X1251592D01*
X1245419Y1025810D02*
X1681065D01*
X1480891Y1012190D02*
X1586463Y906618D01*
X1251592Y1010205D02*
X1253577Y1012190D01*
X1307589Y1089690D02*
X1366929Y1030350D01*
X1249180Y1016730D02*
X1699947D01*
X1712845Y1029628D01*
X1253577Y1012190D02*
X1480891D01*
X1247300Y1021270D02*
X1695271D01*
X1168217Y958015D02*
X1238502Y887730D01*
X1355090D01*
X1162916Y956895D02*
X1236621Y883190D01*
X1340650D01*
X1234741Y878650D02*
X1338770D01*
X1158376Y955014D02*
X1234741Y878650D01*
X1338770D02*
X1360170Y857250D01*
X1340650Y883190D02*
X1372870Y850971D01*
X1355090Y887730D02*
X1410970Y831850D01*
X1361281Y893730D02*
X1432050Y822960D01*
X1229230Y961390D02*
X1296890Y893730D01*
X1361281D01*
X1220470Y594360D02*
Y815503D01*
X1262356Y857390D01*
X1220470Y594360D02*
X1257300Y557530D01*
X1586463Y797793D02*
Y906618D01*
X1390650Y601980D02*
X1586463Y797793D01*
X988060Y955040D02*
X991870D01*
X1045460Y1008630D01*
Y1027750D01*
X1102859Y1085150D01*
X1288480D01*
X1081241Y748185D02*
Y1020281D01*
X1051120Y546069D02*
Y1026990D01*
X1081241Y1020281D02*
X1115899Y1054939D01*
X1062929Y624454D02*
Y1023630D01*
X1086917Y1017067D02*
X1119269Y1049419D01*
X1051120Y1026990D02*
X1104740Y1080610D01*
X1115899Y1054939D02*
X1231833D01*
X1104740Y1080610D02*
X1281590D01*
X1110829Y1071530D02*
X1264000D01*
X1086917Y808660D02*
Y1017067D01*
X1056640Y1024890D02*
X1107820Y1076070D01*
X1119269Y1049419D02*
X1224280D01*
X1056640Y586740D02*
Y1024890D01*
X1107820Y1076070D02*
X1273430D01*
X1062929Y1023630D02*
X1110829Y1071530D01*
X1068967Y1023247D02*
X1111651Y1065931D01*
X1068967Y666579D02*
Y1023247D01*
X1111651Y1065931D02*
X1254443D01*
X1113805Y1060465D02*
X1241147D01*
X1075212Y1021872D02*
X1113805Y1060465D01*
X1075212Y706198D02*
Y1021872D01*
X1619039Y468630D02*
X1654810Y504402D01*
X1484820Y447230D02*
X1506220Y468630D01*
X1619039D01*
X1281590Y1080610D02*
X1296670Y1065530D01*
X1233455Y1054703D02*
X1233830Y1054328D01*
X1232069Y1054703D02*
X1233455D01*
X1231833Y1054939D02*
X1232069Y1054703D01*
X1241147Y1060465D02*
X1241245Y1060368D01*
X1022421Y1019810D02*
X1096841Y1094230D01*
X1538480D02*
X1544320Y1088390D01*
X1553497Y1098770D02*
X1562130Y1090137D01*
X1094960Y1098770D02*
X1553497D01*
X1096841Y1094230D02*
X1538480D01*
X1098721Y1089690D02*
X1307589D01*
X1024301Y1015270D02*
X1098721Y1089690D01*
X1273430Y1076070D02*
X1283970Y1065530D01*
X1264000Y1071530D02*
X1270000Y1065530D01*
X1028700Y1032510D02*
X1094960Y1098770D01*
X1288480Y1085150D02*
X1304290Y1069340D01*
X1286074Y1035884D02*
X1304290Y1054100D01*
Y1069340D01*
X1235354Y1035884D02*
X1286074D01*
X1274144Y981710D02*
X1496337D01*
X1372870Y819150D02*
Y850971D01*
X1360170Y831850D02*
Y857250D01*
X1229650Y929350D02*
X1235470D01*
X1236450Y928370D02*
X1236980D01*
X1216220Y942780D02*
X1229650Y929350D01*
X1235470D02*
X1236450Y928370D01*
X1257300Y419920D02*
Y557530D01*
X1236160Y398780D02*
X1257300Y419920D01*
X1168451Y969366D02*
X1168826Y969741D01*
X1168451Y967980D02*
Y969366D01*
X1168217Y958015D02*
Y967746D01*
X1168451Y967980D01*
X1162916Y956895D02*
Y969484D01*
X1158376Y955014D02*
Y967604D01*
X1232860Y874110D02*
X1292510D01*
X1137219Y969752D02*
X1232860Y874110D01*
X1137219Y969752D02*
Y974129D01*
X1207140Y926460D02*
Y987531D01*
Y926460D02*
X1219367Y914233D01*
X1222093D01*
X1222468Y913858D01*
X1136868Y974480D02*
X1137219Y974129D01*
X1124402Y973528D02*
X1228361Y869570D01*
X1289430D01*
X1121757Y916619D02*
X1122013Y916876D01*
X1149157D01*
X1097820Y992340D02*
X1116401Y1010920D01*
X1097820Y870151D02*
X1097876Y870095D01*
Y868709D02*
X1098251Y868334D01*
X1097820Y870151D02*
Y992340D01*
X1097876Y868709D02*
Y870095D01*
X1092437Y827207D02*
Y993377D01*
X1122680Y1023620D01*
X1086917Y808660D02*
X1087700Y807877D01*
Y786512D02*
Y807877D01*
X1050929Y545878D02*
X1051120Y546069D01*
X1163536Y1004354D02*
X1176835Y991055D01*
X1177247D01*
X1149157Y916876D02*
X1149221Y916812D01*
X1110520Y963319D02*
Y998619D01*
X1116255Y1004354D02*
X1163536D01*
X1122680Y1023620D02*
X1168400D01*
X1116401Y1010920D02*
X1156970D01*
X1110520Y998619D02*
X1116255Y1004354D01*
X1115060Y994410D02*
X1120464Y999814D01*
X1159373D01*
X1115060Y965200D02*
Y994410D01*
X1110520Y963319D02*
X1192530Y881310D01*
X1115060Y965200D02*
X1197070Y883190D01*
X944880Y1019810D02*
X1022421D01*
X965740Y1015270D02*
X1024301D01*
X944880Y1032510D02*
X1028700D01*
X1210770Y1011300D02*
X1235354Y1035884D01*
X1174107Y985080D02*
X1195378D01*
X1225762Y1015464D01*
X1544320Y1079524D02*
Y1088390D01*
X1562130Y1059829D02*
Y1090137D01*
X1540510Y1050290D02*
X1552591D01*
X1562130Y1059829D01*
X1540869Y1076073D02*
X1544320Y1079524D01*
X944880Y994410D02*
X965740Y1015270D01*
X1430937Y899077D02*
X1512570Y817443D01*
Y805257D02*
Y817443D01*
X1509206Y802790D02*
X1509736D01*
X1510716Y803770D02*
X1511082D01*
X1512570Y805257D01*
X1509736Y802790D02*
X1510716Y803770D01*
X1438004Y903876D02*
X1522730Y819150D01*
X1510030Y783590D02*
X1522730Y796290D01*
Y819150D01*
X1432050Y822960D02*
X1474470D01*
X1211680Y935890D02*
X1225253Y922317D01*
X1211680Y935890D02*
Y985650D01*
X1225253Y922317D02*
X1229622D01*
X1216220Y942780D02*
Y983770D01*
X1712845Y1053250D02*
X1712845Y1053250D01*
Y1029628D02*
Y1053250D01*
X1712845Y1053250D02*
Y1076632D01*
X1700367Y1026367D02*
Y1055186D01*
X1221740Y961390D02*
X1229230D01*
X1149026Y976954D02*
X1158376Y967604D01*
X1154669Y977731D02*
X1162916Y969484D01*
X1149026Y976954D02*
Y984127D01*
X1154669Y977731D02*
Y994294D01*
X1292510Y874110D02*
X1334770Y831850D01*
X1289430Y869570D02*
X1322228Y836772D01*
X1149026Y984127D02*
X1149149Y984250D01*
X1159373Y999814D02*
X1174107Y985080D01*
X1559560Y867410D02*
Y918487D01*
X1496337Y981710D02*
X1559560Y918487D01*
X1499861Y986799D02*
X1581922Y904737D01*
X1360170Y806450D02*
X1372870Y819150D01*
X1192530Y659130D02*
Y881310D01*
X1282026Y833794D02*
X1283970Y831850D01*
X931640Y507270D02*
X962660Y476250D01*
X859180Y507270D02*
X931640D01*
X962660Y422910D02*
Y476250D01*
X1004570Y420370D02*
X1026160Y398780D01*
X1004570Y420370D02*
Y482600D01*
X984160Y398780D02*
Y401410D01*
X962660Y422910D02*
X984160Y401410D01*
X850562Y513636D02*
Y781556D01*
X843581Y788536D02*
X850562Y781556D01*
X853387Y840436D02*
X858817Y835006D01*
X844521Y840436D02*
X853387D01*
X858817Y515541D02*
Y835006D01*
X862548Y511810D02*
X975360D01*
X858817Y515541D02*
X862548Y511810D01*
X856198Y508000D02*
X858449D01*
X859180Y507270D01*
X975360Y511810D02*
X1004570Y482600D01*
X850562Y513636D02*
X856198Y508000D01*
X1371790Y447230D02*
X1484820D01*
X1294860Y370300D02*
X1371790Y447230D01*
X1512920Y455010D02*
X1624680D01*
X1375480Y437420D02*
X1488909D01*
X1487029Y441960D02*
X1509159Y464090D01*
X1377361Y432880D02*
X1490790D01*
X1488909Y437420D02*
X1511039Y459550D01*
X1490790Y432880D02*
X1512920Y455010D01*
X1373600Y441960D02*
X1487029D01*
X1509159Y464090D02*
X1620919D01*
X1511039Y459550D02*
X1622800D01*
X1659350Y502521D02*
Y607681D01*
X1622800Y459550D02*
X1663890Y500640D01*
Y623800D01*
X1654810Y504402D02*
Y589559D01*
X1624680Y455010D02*
X1668430Y498760D01*
X1575238Y669130D02*
X1654810Y589559D01*
X1620919Y464090D02*
X1659350Y502521D01*
X1640610Y669130D02*
X1668430Y641311D01*
X1620547Y667143D02*
X1663890Y623800D01*
X1597901Y669130D02*
X1659350Y607681D01*
X1668430Y498760D02*
Y641311D01*
X1620547Y667143D02*
Y667246D01*
X1619567Y668226D02*
X1620547Y667246D01*
X1619567Y668226D02*
Y668757D01*
X816160Y398780D02*
X858260Y356680D01*
X1301161D01*
X1377361Y432880D01*
X1299281Y361220D02*
X1375480Y437420D01*
X895720Y361220D02*
X1299281D01*
X858160Y398780D02*
X895720Y361220D01*
X942160Y398780D02*
X970640Y370300D01*
X933180Y365760D02*
X1296741D01*
X970640Y370300D02*
X1294860D01*
X1296741Y365760D02*
X1359510Y428530D01*
X900160Y398780D02*
X933180Y365760D01*
X1360170Y428530D02*
X1373600Y441960D01*
X1359510Y428530D02*
X1360170D01*
X1322228Y818992D02*
Y836772D01*
Y818992D02*
X1334770Y806450D01*
D50*
X1277971Y402067D02*
D03*
D51*
X1235971D02*
D03*
X1193971D02*
D03*
X1151971D02*
D03*
X1109971D02*
D03*
X1067971D02*
D03*
X1025971D02*
D03*
X983971D02*
D03*
X941971D02*
D03*
X899971D02*
D03*
X857971D02*
D03*
X815971D02*
D03*
X1277971Y457067D02*
D03*
X1235971D02*
D03*
X1193971D02*
D03*
X1151971D02*
D03*
X1109971D02*
D03*
X1067971D02*
D03*
X1025971D02*
D03*
X983971D02*
D03*
X941971D02*
D03*
X899971D02*
D03*
X857971D02*
D03*
X815971D02*
D03*
D52*
X1283970Y806450D02*
D03*
Y831850D02*
D03*
X1309370Y806450D02*
D03*
Y831850D02*
D03*
X1334770Y806450D02*
D03*
Y831850D02*
D03*
X1360170Y806450D02*
D03*
Y831850D02*
D03*
X1385570Y806450D02*
D03*
Y831850D02*
D03*
X1410970Y806450D02*
D03*
Y831850D02*
D03*
D53*
X1382970Y397221D02*
D03*
D54*
Y337221D02*
D03*
D55*
X1429970Y367221D02*
D03*
D76*
X1301750Y500380D02*
D03*
X1263650Y999490D02*
D03*
X1225179Y975654D02*
D03*
X1241260Y975178D02*
D03*
X1254737Y962303D02*
D03*
X1717040Y273050D02*
D03*
Y307340D02*
D03*
X1426210Y567690D02*
D03*
X1492250D02*
D03*
X1276289Y530682D02*
D03*
X1138300Y646438D02*
D03*
X1168693Y569140D02*
D03*
X1107515Y568859D02*
D03*
X1624832Y545333D02*
D03*
X1690209Y562749D02*
D03*
X1370440Y642123D02*
D03*
X1392040Y642868D02*
D03*
X1315880Y643148D02*
D03*
X1294280Y642961D02*
D03*
X1550670Y787400D02*
D03*
X1220584Y823485D02*
D03*
X1219822Y846263D02*
D03*
X1210310Y659130D02*
D03*
X1456071Y1001709D02*
D03*
X1374435Y1005307D02*
D03*
X1662532Y306466D02*
D03*
X1192530Y1130300D02*
D03*
X1207770D02*
D03*
X1262356Y857390D02*
D03*
X1282948Y895121D02*
D03*
X1266840Y895800D02*
D03*
X1008380Y989330D02*
D03*
X1296670Y1065530D02*
D03*
X1241245Y1060368D02*
D03*
X1233830Y1054328D02*
D03*
X1254443Y1065931D02*
D03*
X1224280Y1049419D02*
D03*
X1236980Y928370D02*
D03*
X1168826Y969741D02*
D03*
X1196340Y938530D02*
D03*
X1136868Y974480D02*
D03*
X1124402Y973528D02*
D03*
X1121757Y916619D02*
D03*
X1098251Y868334D02*
D03*
X1092437Y827207D02*
D03*
X1087700Y786512D02*
D03*
X1081241Y748185D02*
D03*
X1075212Y706198D02*
D03*
X1068967Y666579D02*
D03*
X1062929Y624454D02*
D03*
X1050929Y545878D02*
D03*
X1056640Y586740D02*
D03*
X1177247Y991055D02*
D03*
X1149221Y916812D02*
D03*
X1455420Y1088490D02*
D03*
X1247140Y1106070D02*
D03*
X1210770Y1011300D02*
D03*
X1225762Y1015464D02*
D03*
X1251109Y1010205D02*
D03*
X988060Y955040D02*
D03*
X1540557Y1032510D02*
D03*
X1540869Y1076073D02*
D03*
X944880Y994410D02*
D03*
Y1019810D02*
D03*
X1540510Y1050290D02*
D03*
X1033780Y1062990D02*
D03*
X944880Y1032510D02*
D03*
X1609090Y1007110D02*
D03*
Y1093470D02*
D03*
X1509206Y802790D02*
D03*
X1510030Y783590D02*
D03*
X1525307Y829916D02*
D03*
X1474470Y822960D02*
D03*
X1712845Y1076632D02*
D03*
X1700367Y1055186D02*
D03*
X1688594Y1033339D02*
D03*
X1322070Y1033150D02*
D03*
X1344930D02*
D03*
X1283970Y1065530D02*
D03*
X1221740Y961390D02*
D03*
X1313180Y919480D02*
D03*
X1342173Y912020D02*
D03*
X1150620Y938530D02*
D03*
X1222468Y913858D02*
D03*
X1229622Y922317D02*
D03*
X1149149Y984250D02*
D03*
X1154669Y994294D02*
D03*
X1168400Y1023620D02*
D03*
X1156970Y1010920D02*
D03*
X1385500Y960190D02*
D03*
X1296670Y948690D02*
D03*
X1342324Y937123D02*
D03*
X1525270Y883920D02*
D03*
X1482090Y765810D02*
D03*
X1611630Y820420D02*
D03*
X1390650Y601980D02*
D03*
X1238250Y777240D02*
D03*
X1234440Y614680D02*
D03*
X1192530Y659130D02*
D03*
X1228090Y642620D02*
D03*
X869950Y788670D02*
D03*
X843581Y788536D02*
D03*
X844521Y840436D02*
D03*
X1441450Y452750D02*
D03*
X1640610Y669130D02*
D03*
X1619567Y668757D02*
D03*
X1597901Y669130D02*
D03*
X1575238D02*
D03*
X1536700Y447040D02*
D03*
X1583690D02*
D03*
X1598930D02*
D03*
X1549400D02*
D03*
X1357630Y514350D02*
D03*
X1591310Y435610D02*
D03*
X1145540Y890270D02*
D03*
X1130300D02*
D03*
X878840Y1054100D02*
D03*
X854710D02*
D03*
X836930Y1084580D02*
D03*
X1559560Y528320D02*
D03*
X1550796Y281221D02*
D03*
X1550860Y266532D02*
D03*
X1574969Y281422D02*
D03*
X1574990Y266532D02*
D03*
X1602428Y274891D02*
D03*
X1626558D02*
D03*
X1527810Y266700D02*
D03*
X1527525Y280619D02*
D03*
X1488440Y487680D02*
D03*
X821690Y567690D02*
D03*
X1612900Y500380D02*
D03*
X1335214Y469424D02*
D03*
X1542760Y434700D02*
D03*
X1555750Y581660D02*
D03*
X1626870Y820420D02*
D03*
X1559560Y867410D02*
D03*
X1270000Y1065530D02*
D03*
X980440Y1049020D02*
D03*
X1008380D02*
D03*
X980440Y989330D02*
D03*
X1304290Y585470D02*
D03*
X991997Y598043D02*
D03*
X991870Y638810D02*
D03*
Y679450D02*
D03*
Y720090D02*
D03*
Y760730D02*
D03*
Y801370D02*
D03*
Y840740D02*
D03*
Y880110D02*
D03*
X1334909Y447179D02*
D03*
X803853Y770738D02*
D03*
X1311910Y775970D02*
D03*
X1385582Y776098D02*
D03*
X952500Y904240D02*
D03*
X1627693Y334407D02*
D03*
Y361077D02*
D03*
X1663700Y336550D02*
D03*
X1627693Y348377D02*
D03*
X1569273Y306046D02*
D03*
X1651421Y336550D02*
D03*
X1553037Y305899D02*
D03*
M02*
