G04*
G04 #@! TF.GenerationSoftware,Altium Limited,Altium Designer,24.6.1 (21)*
G04*
G04 Layer_Color=8388736*
%FSLAX44Y44*%
%MOMM*%
G71*
G04*
G04 #@! TF.SameCoordinates,AFB4F5FC-0506-43F6-848E-FD61737C44D3*
G04*
G04*
G04 #@! TF.FilePolarity,Negative*
G04*
G01*
G75*
%ADD19R,1.6080X1.8080*%
%ADD20R,0.2794X1.7780*%
%ADD21R,1.7780X0.2794*%
%ADD22O,2.2080X0.8080*%
%ADD23R,0.9000X0.9000*%
%ADD24R,0.9000X1.5000*%
%ADD25R,1.5000X0.9000*%
%ADD26R,1.8580X1.7080*%
%ADD27R,2.5654X1.2700*%
%ADD28R,1.7080X1.8580*%
%ADD29R,1.8080X1.9580*%
%ADD30R,0.9000X1.3500*%
%ADD31R,1.9580X1.8080*%
%ADD32R,1.6080X1.9580*%
%ADD33R,1.9580X1.6080*%
%ADD34R,1.1430X2.0320*%
%ADD35R,3.3000X2.3000*%
%ADD36R,1.1176X0.4572*%
G04:AMPARAMS|DCode=37|XSize=1.5544mm|YSize=0.5721mm|CornerRadius=0.2861mm|HoleSize=0mm|Usage=FLASHONLY|Rotation=0.000|XOffset=0mm|YOffset=0mm|HoleType=Round|Shape=RoundedRectangle|*
%AMROUNDEDRECTD37*
21,1,1.5544,0.0000,0,0,0.0*
21,1,0.9823,0.5721,0,0,0.0*
1,1,0.5721,0.4911,0.0000*
1,1,0.5721,-0.4911,0.0000*
1,1,0.5721,-0.4911,0.0000*
1,1,0.5721,0.4911,0.0000*
%
%ADD37ROUNDEDRECTD37*%
%ADD38R,1.5544X0.5721*%
%ADD39R,0.4572X1.1176*%
%ADD40R,2.2000X2.8000*%
%ADD41R,0.8500X0.8500*%
%ADD42R,0.6221X2.4692*%
G04:AMPARAMS|DCode=43|XSize=2.4692mm|YSize=0.6221mm|CornerRadius=0.3111mm|HoleSize=0mm|Usage=FLASHONLY|Rotation=270.000|XOffset=0mm|YOffset=0mm|HoleType=Round|Shape=RoundedRectangle|*
%AMROUNDEDRECTD43*
21,1,2.4692,0.0000,0,0,270.0*
21,1,1.8470,0.6221,0,0,270.0*
1,1,0.6221,0.0000,-0.9235*
1,1,0.6221,0.0000,0.9235*
1,1,0.6221,0.0000,0.9235*
1,1,0.6221,0.0000,-0.9235*
%
%ADD43ROUNDEDRECTD43*%
%ADD44R,1.0500X1.3000*%
%ADD45R,1.8080X1.6080*%
%ADD46R,0.4826X1.2573*%
%ADD47R,1.3080X1.4080*%
%ADD48R,1.3080X1.3080*%
%ADD49C,1.7080*%
%ADD50R,2.7500X2.7500*%
%ADD51C,2.7500*%
%ADD52C,1.2700*%
%ADD53R,3.2000X1.6000*%
G04:AMPARAMS|DCode=54|XSize=3.2mm|YSize=1.6mm|CornerRadius=0.8mm|HoleSize=0mm|Usage=FLASHONLY|Rotation=180.000|XOffset=0mm|YOffset=0mm|HoleType=Round|Shape=RoundedRectangle|*
%AMROUNDEDRECTD54*
21,1,3.2000,0.0000,0,0,180.0*
21,1,1.6000,1.6000,0,0,180.0*
1,1,1.6000,-0.8000,0.0000*
1,1,1.6000,0.8000,0.0000*
1,1,1.6000,0.8000,0.0000*
1,1,1.6000,-0.8000,0.0000*
%
%ADD54ROUNDEDRECTD54*%
G04:AMPARAMS|DCode=55|XSize=1.6mm|YSize=3.2mm|CornerRadius=0.8mm|HoleSize=0mm|Usage=FLASHONLY|Rotation=180.000|XOffset=0mm|YOffset=0mm|HoleType=Round|Shape=RoundedRectangle|*
%AMROUNDEDRECTD55*
21,1,1.6000,1.6000,0,0,180.0*
21,1,0.0000,3.2000,0,0,180.0*
1,1,1.6000,0.0000,0.8000*
1,1,1.6000,0.0000,0.8000*
1,1,1.6000,0.0000,-0.8000*
1,1,1.6000,0.0000,-0.8000*
%
%ADD55ROUNDEDRECTD55*%
%ADD56C,0.9580*%
D19*
X1455912Y1029186D02*
D03*
X1476912D02*
D03*
X1476912Y1073579D02*
D03*
X1455912D02*
D03*
X1476789Y1051329D02*
D03*
X1455789D02*
D03*
X1630512Y1032087D02*
D03*
X1609512D02*
D03*
X1630512Y1053486D02*
D03*
X1609512D02*
D03*
X1630512Y1074829D02*
D03*
X1609512D02*
D03*
D20*
X1265750Y945388D02*
D03*
X1260750D02*
D03*
X1255750D02*
D03*
X1250750D02*
D03*
X1245750D02*
D03*
X1240750D02*
D03*
X1235750D02*
D03*
X1230750D02*
D03*
X1225750D02*
D03*
X1220750D02*
D03*
X1215750D02*
D03*
X1210750D02*
D03*
Y1030732D02*
D03*
X1215750D02*
D03*
X1220750D02*
D03*
X1225750D02*
D03*
X1230750D02*
D03*
X1235750D02*
D03*
X1240750D02*
D03*
X1245750D02*
D03*
X1250750D02*
D03*
X1255750D02*
D03*
X1260750D02*
D03*
X1265750D02*
D03*
D21*
X1195578Y960560D02*
D03*
Y965560D02*
D03*
Y970560D02*
D03*
Y975560D02*
D03*
Y980560D02*
D03*
Y985560D02*
D03*
Y990560D02*
D03*
Y995560D02*
D03*
Y1000560D02*
D03*
Y1005560D02*
D03*
Y1010560D02*
D03*
Y1015560D02*
D03*
X1280922D02*
D03*
Y1010560D02*
D03*
Y1005560D02*
D03*
Y1000560D02*
D03*
Y995560D02*
D03*
Y990560D02*
D03*
Y985560D02*
D03*
Y980560D02*
D03*
Y975560D02*
D03*
Y970560D02*
D03*
Y965560D02*
D03*
Y960560D02*
D03*
D22*
X1530170Y798670D02*
D03*
Y793670D02*
D03*
Y788670D02*
D03*
Y783670D02*
D03*
X1571170Y798670D02*
D03*
Y793670D02*
D03*
Y778670D02*
D03*
Y783670D02*
D03*
Y788670D02*
D03*
X1530170Y778670D02*
D03*
D23*
X1008650Y1004610D02*
D03*
X994650D02*
D03*
X980650D02*
D03*
X1008650Y1018610D02*
D03*
X994650D02*
D03*
X980650D02*
D03*
X1008650Y1032610D02*
D03*
X994650D02*
D03*
X980650D02*
D03*
D24*
X1066800Y918210D02*
D03*
X1054100D02*
D03*
X1041400D02*
D03*
X1028700D02*
D03*
X1016000D02*
D03*
X1003300D02*
D03*
X990600D02*
D03*
X977900D02*
D03*
X965200D02*
D03*
X952500D02*
D03*
D25*
X1097150Y1095810D02*
D03*
Y1083110D02*
D03*
Y1070410D02*
D03*
Y1057710D02*
D03*
Y1045010D02*
D03*
Y1032310D02*
D03*
Y1019610D02*
D03*
Y1006910D02*
D03*
Y994210D02*
D03*
Y981510D02*
D03*
Y968810D02*
D03*
Y956110D02*
D03*
Y943410D02*
D03*
Y930710D02*
D03*
X922150D02*
D03*
Y943410D02*
D03*
Y956110D02*
D03*
Y968810D02*
D03*
Y981510D02*
D03*
Y994210D02*
D03*
Y1006910D02*
D03*
Y1019610D02*
D03*
Y1032310D02*
D03*
Y1045010D02*
D03*
Y1057710D02*
D03*
Y1070410D02*
D03*
Y1083110D02*
D03*
Y1095810D02*
D03*
D26*
X1599309Y735419D02*
D03*
Y752419D02*
D03*
X1578859Y735955D02*
D03*
Y752955D02*
D03*
X1641732Y735342D02*
D03*
Y752342D02*
D03*
X1620448Y735342D02*
D03*
Y752342D02*
D03*
X1606489Y527416D02*
D03*
Y544416D02*
D03*
X1016000Y587620D02*
D03*
Y570620D02*
D03*
X1038860Y625330D02*
D03*
Y608330D02*
D03*
X1016000Y665671D02*
D03*
Y648671D02*
D03*
X1038860Y665671D02*
D03*
Y648671D02*
D03*
X1016000Y608330D02*
D03*
Y625330D02*
D03*
X1038860Y706120D02*
D03*
Y689120D02*
D03*
X1016000Y706120D02*
D03*
Y689120D02*
D03*
X1038860Y747640D02*
D03*
Y730640D02*
D03*
Y587620D02*
D03*
Y570620D02*
D03*
X1016000Y747640D02*
D03*
Y730640D02*
D03*
X1038860Y544882D02*
D03*
Y527882D02*
D03*
X1016000Y544882D02*
D03*
Y527882D02*
D03*
X1038860Y867931D02*
D03*
Y850931D02*
D03*
Y828035D02*
D03*
Y811035D02*
D03*
X1016000Y828035D02*
D03*
Y811035D02*
D03*
Y867931D02*
D03*
Y850931D02*
D03*
Y786620D02*
D03*
Y769620D02*
D03*
X1038860Y786620D02*
D03*
Y769620D02*
D03*
X1276604Y564453D02*
D03*
Y547453D02*
D03*
X1255714Y564453D02*
D03*
Y547453D02*
D03*
X1234580Y564372D02*
D03*
Y547372D02*
D03*
X1213609Y564453D02*
D03*
Y547453D02*
D03*
X1192148Y564454D02*
D03*
Y547453D02*
D03*
X1318386Y547331D02*
D03*
Y564331D02*
D03*
X1297724Y547365D02*
D03*
Y564366D02*
D03*
X1392341Y659002D02*
D03*
Y676002D02*
D03*
X1315668Y659392D02*
D03*
Y676392D02*
D03*
X1526618Y481128D02*
D03*
Y498128D02*
D03*
X1573530Y528710D02*
D03*
Y545710D02*
D03*
X1643380Y561730D02*
D03*
Y578730D02*
D03*
X1503680Y534280D02*
D03*
Y517280D02*
D03*
X1470660Y600710D02*
D03*
Y583710D02*
D03*
X1426210Y600710D02*
D03*
Y583710D02*
D03*
X1447800Y583320D02*
D03*
Y600320D02*
D03*
X1493520Y584200D02*
D03*
Y601200D02*
D03*
X815340Y823450D02*
D03*
Y806450D02*
D03*
X870010Y823450D02*
D03*
Y806450D02*
D03*
X844035Y823450D02*
D03*
Y806450D02*
D03*
D27*
X804090Y529590D02*
D03*
Y554990D02*
D03*
Y580390D02*
D03*
Y605790D02*
D03*
Y631190D02*
D03*
Y656590D02*
D03*
Y681990D02*
D03*
Y707390D02*
D03*
Y732790D02*
D03*
Y758190D02*
D03*
X890090D02*
D03*
Y732790D02*
D03*
Y707390D02*
D03*
Y681990D02*
D03*
Y656590D02*
D03*
Y631190D02*
D03*
Y605790D02*
D03*
Y580390D02*
D03*
Y554990D02*
D03*
Y529590D02*
D03*
D28*
X1580270Y711200D02*
D03*
X1597270D02*
D03*
X1619640D02*
D03*
X1636640D02*
D03*
X1498600Y803910D02*
D03*
X1481600D02*
D03*
X1498706Y783072D02*
D03*
X1481706D02*
D03*
X1610750Y783590D02*
D03*
X1627750D02*
D03*
X1585586Y598890D02*
D03*
X1568586D02*
D03*
X1391040Y494030D02*
D03*
X1408040D02*
D03*
X1391040Y514740D02*
D03*
X1408040D02*
D03*
Y535940D02*
D03*
X1391040D02*
D03*
X1606686Y598890D02*
D03*
X1623686D02*
D03*
D29*
X1145920Y876300D02*
D03*
X1129920D02*
D03*
X1370370Y911869D02*
D03*
X1354370D02*
D03*
X1627250Y377190D02*
D03*
X1611250D02*
D03*
X1611358Y804780D02*
D03*
X1627358D02*
D03*
X1370710Y980440D02*
D03*
X1354710D02*
D03*
X1164210Y938530D02*
D03*
X1180210D02*
D03*
X1267080Y915670D02*
D03*
X1283080D02*
D03*
X1208530Y1109980D02*
D03*
X1192530D02*
D03*
X1208150Y1085850D02*
D03*
X1192150D02*
D03*
X1697084Y336467D02*
D03*
X1681084D02*
D03*
X1441541Y465797D02*
D03*
X1457540D02*
D03*
D30*
X1150706Y758729D02*
D03*
X1125706D02*
D03*
Y713229D02*
D03*
X1150706D02*
D03*
D31*
X1322070Y1021460D02*
D03*
Y1005460D02*
D03*
X878576Y1068960D02*
D03*
Y1084960D02*
D03*
X855980Y1068960D02*
D03*
Y1084960D02*
D03*
X1370813Y659409D02*
D03*
Y675409D02*
D03*
X1294130Y660020D02*
D03*
Y676020D02*
D03*
X1228090Y659640D02*
D03*
Y675640D02*
D03*
X1168543Y589800D02*
D03*
Y605800D02*
D03*
X1107777Y589790D02*
D03*
Y605790D02*
D03*
X1246221Y894134D02*
D03*
Y910134D02*
D03*
X1229360Y1105280D02*
D03*
Y1089280D02*
D03*
X1344930Y1005460D02*
D03*
Y1021460D02*
D03*
X1313180Y933070D02*
D03*
Y949070D02*
D03*
X1504406Y481628D02*
D03*
Y497628D02*
D03*
X1666240Y562230D02*
D03*
Y578230D02*
D03*
X1618836Y297087D02*
D03*
Y313087D02*
D03*
X1644027Y297087D02*
D03*
Y313087D02*
D03*
D32*
X1672730Y273050D02*
D03*
X1690230D02*
D03*
X1146706Y628650D02*
D03*
X1129206D02*
D03*
X1186109Y824310D02*
D03*
X1203609D02*
D03*
X1185969Y802720D02*
D03*
X1203469D02*
D03*
X1203497Y846531D02*
D03*
X1185997D02*
D03*
X1525550Y867410D02*
D03*
X1543050D02*
D03*
X1542910Y844277D02*
D03*
X1525410D02*
D03*
X1500812Y1073579D02*
D03*
X1518312D02*
D03*
X1500812Y1050986D02*
D03*
X1518312D02*
D03*
X1500786Y1029382D02*
D03*
X1518286D02*
D03*
X1651298Y1031686D02*
D03*
X1668798D02*
D03*
X1651339Y1053544D02*
D03*
X1668839D02*
D03*
X1651230Y1074649D02*
D03*
X1668730D02*
D03*
X1333360Y980440D02*
D03*
X1315860D02*
D03*
X1672450Y377190D02*
D03*
X1654950D02*
D03*
X1669910Y405130D02*
D03*
X1652410D02*
D03*
D33*
X1565910Y432930D02*
D03*
Y415430D02*
D03*
X1515474Y409871D02*
D03*
Y392371D02*
D03*
Y331418D02*
D03*
Y313918D02*
D03*
D34*
X1473835Y274320D02*
D03*
X1500505D02*
D03*
D35*
X1564640Y383370D02*
D03*
Y330370D02*
D03*
D36*
X991870Y610870D02*
D03*
Y624840D02*
D03*
X973836Y617855D02*
D03*
X991870Y692150D02*
D03*
Y706120D02*
D03*
X973836Y699135D02*
D03*
X973963Y579120D02*
D03*
X991997Y586105D02*
D03*
Y572135D02*
D03*
X991870Y651510D02*
D03*
Y665480D02*
D03*
X973836Y658495D02*
D03*
Y739775D02*
D03*
X991870Y746760D02*
D03*
Y732790D02*
D03*
X973836Y780415D02*
D03*
X991870Y787400D02*
D03*
Y773430D02*
D03*
X973836Y861695D02*
D03*
X991870Y868680D02*
D03*
Y854710D02*
D03*
X973836Y821055D02*
D03*
X991870Y828040D02*
D03*
Y814070D02*
D03*
D37*
X1700894Y316097D02*
D03*
Y306597D02*
D03*
Y297097D02*
D03*
X1678889D02*
D03*
Y306597D02*
D03*
D38*
Y316097D02*
D03*
D39*
X1280443Y584953D02*
D03*
X1294413D02*
D03*
X1287428Y602987D02*
D03*
D40*
X1385570Y703580D02*
D03*
Y751580D02*
D03*
X1311910Y703580D02*
D03*
Y751580D02*
D03*
X1238250Y703580D02*
D03*
Y751580D02*
D03*
D41*
X1147706Y680767D02*
D03*
X1128706D02*
D03*
X1138206Y660767D02*
D03*
D42*
X1156970Y848372D02*
D03*
D43*
X1144270D02*
D03*
X1131570D02*
D03*
X1118870D02*
D03*
Y800100D02*
D03*
X1131570D02*
D03*
X1144270D02*
D03*
X1156970D02*
D03*
D44*
X1371460Y937190D02*
D03*
Y960190D02*
D03*
X1353960D02*
D03*
Y937190D02*
D03*
D45*
X1494442Y409687D02*
D03*
Y388687D02*
D03*
X1493520Y331470D02*
D03*
Y310470D02*
D03*
D46*
X1474470Y540575D02*
D03*
X1461770D02*
D03*
X1449070D02*
D03*
X1436370D02*
D03*
Y488125D02*
D03*
X1449070D02*
D03*
X1461770D02*
D03*
X1474470D02*
D03*
D47*
X1615186Y581110D02*
D03*
X1624686Y561110D02*
D03*
X1605686D02*
D03*
X1576476D02*
D03*
X1566976Y581110D02*
D03*
X1585976D02*
D03*
D48*
X996250Y525170D02*
D03*
Y544170D02*
D03*
X972250Y534670D02*
D03*
D49*
X1562100Y845820D02*
D03*
X1301750Y1040130D02*
D03*
X1619358Y690535D02*
D03*
X1597114D02*
D03*
X1574800Y690880D02*
D03*
X1640522Y690133D02*
D03*
X1629410Y520700D02*
D03*
X1256030Y516890D02*
D03*
X1278890Y515620D02*
D03*
X1654810Y500380D02*
D03*
X1481604Y623439D02*
D03*
X1437087Y623439D02*
D03*
X871220Y959066D02*
D03*
Y990600D02*
D03*
X939847Y861695D02*
D03*
Y821055D02*
D03*
Y534670D02*
D03*
Y699135D02*
D03*
Y658495D02*
D03*
Y577215D02*
D03*
Y617855D02*
D03*
Y780415D02*
D03*
Y739775D02*
D03*
X1249680Y676910D02*
D03*
X1334770D02*
D03*
X1412240D02*
D03*
X1107777Y628650D02*
D03*
X1168400D02*
D03*
X1103966Y758850D02*
D03*
X1173930D02*
D03*
X1357200Y447179D02*
D03*
Y426374D02*
D03*
Y469387D02*
D03*
D50*
X1277971Y402067D02*
D03*
D51*
X1235971D02*
D03*
X1193971D02*
D03*
X1151971D02*
D03*
X1109971D02*
D03*
X1067971D02*
D03*
X1025971D02*
D03*
X983971D02*
D03*
X941971D02*
D03*
X899971D02*
D03*
X857971D02*
D03*
X815971D02*
D03*
X1277971Y457067D02*
D03*
X1235971D02*
D03*
X1193971D02*
D03*
X1151971D02*
D03*
X1109971D02*
D03*
X1067971D02*
D03*
X1025971D02*
D03*
X983971D02*
D03*
X941971D02*
D03*
X899971D02*
D03*
X857971D02*
D03*
X815971D02*
D03*
D52*
X1283970Y806450D02*
D03*
Y831850D02*
D03*
X1309370Y806450D02*
D03*
Y831850D02*
D03*
X1334770Y806450D02*
D03*
Y831850D02*
D03*
X1360170Y806450D02*
D03*
Y831850D02*
D03*
X1385570Y806450D02*
D03*
Y831850D02*
D03*
X1410970Y806450D02*
D03*
Y831850D02*
D03*
D53*
X1382970Y397221D02*
D03*
D54*
Y337221D02*
D03*
D55*
X1429970Y367221D02*
D03*
D56*
X1301750Y500380D02*
D03*
X1263650Y999490D02*
D03*
X1225179Y975654D02*
D03*
X1241260Y975178D02*
D03*
X1254737Y962303D02*
D03*
X1717040Y273050D02*
D03*
Y307340D02*
D03*
X1426210Y567690D02*
D03*
X1492250D02*
D03*
X1276289Y530682D02*
D03*
X1138300Y646438D02*
D03*
X1168693Y569140D02*
D03*
X1107515Y568859D02*
D03*
X1624832Y545333D02*
D03*
X1690209Y562749D02*
D03*
X1370440Y642123D02*
D03*
X1392040Y642868D02*
D03*
X1315880Y643148D02*
D03*
X1294280Y642961D02*
D03*
X1550670Y787400D02*
D03*
X1220584Y823485D02*
D03*
X1219822Y846263D02*
D03*
X1210310Y659130D02*
D03*
X1456071Y1001709D02*
D03*
X1374435Y1005307D02*
D03*
X1662532Y306466D02*
D03*
X1192530Y1130300D02*
D03*
X1207770D02*
D03*
X1262356Y857390D02*
D03*
X1282948Y895121D02*
D03*
X1266840Y895800D02*
D03*
X1008380Y989330D02*
D03*
X1296670Y1065530D02*
D03*
X1241245Y1060368D02*
D03*
X1233830Y1054328D02*
D03*
X1254443Y1065931D02*
D03*
X1224280Y1049419D02*
D03*
X1236980Y928370D02*
D03*
X1168826Y969741D02*
D03*
X1196340Y938530D02*
D03*
X1136868Y974480D02*
D03*
X1124402Y973528D02*
D03*
X1121757Y916619D02*
D03*
X1098251Y868334D02*
D03*
X1092437Y827207D02*
D03*
X1087700Y786512D02*
D03*
X1081241Y748185D02*
D03*
X1075212Y706198D02*
D03*
X1068967Y666579D02*
D03*
X1062929Y624454D02*
D03*
X1050929Y545878D02*
D03*
X1056640Y586740D02*
D03*
X1177247Y991055D02*
D03*
X1149221Y916812D02*
D03*
X1455420Y1088490D02*
D03*
X1247140Y1106070D02*
D03*
X1210770Y1011300D02*
D03*
X1225762Y1015464D02*
D03*
X1251109Y1010205D02*
D03*
X988060Y955040D02*
D03*
X1540557Y1032510D02*
D03*
X1540869Y1076073D02*
D03*
X944880Y994410D02*
D03*
Y1019810D02*
D03*
X1540510Y1050290D02*
D03*
X1033780Y1062990D02*
D03*
X944880Y1032510D02*
D03*
X1609090Y1007110D02*
D03*
Y1093470D02*
D03*
X1509206Y802790D02*
D03*
X1510030Y783590D02*
D03*
X1525307Y829916D02*
D03*
X1474470Y822960D02*
D03*
X1712845Y1076632D02*
D03*
X1700367Y1055186D02*
D03*
X1688594Y1033339D02*
D03*
X1322070Y1033150D02*
D03*
X1344930D02*
D03*
X1283970Y1065530D02*
D03*
X1221740Y961390D02*
D03*
X1313180Y919480D02*
D03*
X1342173Y912020D02*
D03*
X1150620Y938530D02*
D03*
X1222468Y913858D02*
D03*
X1229622Y922317D02*
D03*
X1149149Y984250D02*
D03*
X1154669Y994294D02*
D03*
X1168400Y1023620D02*
D03*
X1156970Y1010920D02*
D03*
X1385500Y960190D02*
D03*
X1296670Y948690D02*
D03*
X1342324Y937123D02*
D03*
X1525270Y883920D02*
D03*
X1482090Y765810D02*
D03*
X1611630Y820420D02*
D03*
X1390650Y601980D02*
D03*
X1238250Y777240D02*
D03*
X1234440Y614680D02*
D03*
X1192530Y659130D02*
D03*
X1228090Y642620D02*
D03*
X869950Y788670D02*
D03*
X843581Y788536D02*
D03*
X844521Y840436D02*
D03*
X1441450Y452750D02*
D03*
X1640610Y669130D02*
D03*
X1619567Y668757D02*
D03*
X1597901Y669130D02*
D03*
X1575238D02*
D03*
X1536700Y447040D02*
D03*
X1583690D02*
D03*
X1598930D02*
D03*
X1549400D02*
D03*
X1357630Y514350D02*
D03*
X1591310Y435610D02*
D03*
X1145540Y890270D02*
D03*
X1130300D02*
D03*
X878840Y1054100D02*
D03*
X854710D02*
D03*
X836930Y1084580D02*
D03*
X1559560Y528320D02*
D03*
X1550796Y281221D02*
D03*
X1550860Y266532D02*
D03*
X1574969Y281422D02*
D03*
X1574990Y266532D02*
D03*
X1602428Y274891D02*
D03*
X1626558D02*
D03*
X1527810Y266700D02*
D03*
X1527525Y280619D02*
D03*
X1488440Y487680D02*
D03*
X821690Y567690D02*
D03*
X1612900Y500380D02*
D03*
X1335214Y469424D02*
D03*
X1542760Y434700D02*
D03*
X1555750Y581660D02*
D03*
X1626870Y820420D02*
D03*
X1559560Y867410D02*
D03*
X1270000Y1065530D02*
D03*
X980440Y1049020D02*
D03*
X1008380D02*
D03*
X980440Y989330D02*
D03*
X1304290Y585470D02*
D03*
X991997Y598043D02*
D03*
X991870Y638810D02*
D03*
Y679450D02*
D03*
Y720090D02*
D03*
Y760730D02*
D03*
Y801370D02*
D03*
Y840740D02*
D03*
Y880110D02*
D03*
X1334909Y447179D02*
D03*
X803853Y770738D02*
D03*
X1311910Y775970D02*
D03*
X1385582Y776098D02*
D03*
X952500Y904240D02*
D03*
X1627693Y334407D02*
D03*
Y361077D02*
D03*
X1663700Y336550D02*
D03*
X1627693Y348377D02*
D03*
X1569273Y306046D02*
D03*
X1651421Y336550D02*
D03*
X1553037Y305899D02*
D03*
M02*
