G04*
G04 #@! TF.GenerationSoftware,Altium Limited,Altium Designer,24.6.1 (21)*
G04*
G04 Layer_Color=16711935*
%FSLAX44Y44*%
%MOMM*%
G71*
G04*
G04 #@! TF.SameCoordinates,533720E8-7120-4541-8755-C975A74632B4*
G04*
G04*
G04 #@! TF.FilePolarity,Negative*
G04*
G01*
G75*
%ADD50C,2.7500*%
%ADD51R,2.7500X2.7500*%
%ADD52C,3.0000*%
%ADD53C,1.2700*%
%ADD54R,3.2000X1.6000*%
G04:AMPARAMS|DCode=55|XSize=3.2mm|YSize=1.6mm|CornerRadius=0.8mm|HoleSize=0mm|Usage=FLASHONLY|Rotation=180.000|XOffset=0mm|YOffset=0mm|HoleType=Round|Shape=RoundedRectangle|*
%AMROUNDEDRECTD55*
21,1,3.2000,0.0000,0,0,180.0*
21,1,1.6000,1.6000,0,0,180.0*
1,1,1.6000,-0.8000,0.0000*
1,1,1.6000,0.8000,0.0000*
1,1,1.6000,0.8000,0.0000*
1,1,1.6000,-0.8000,0.0000*
%
%ADD55ROUNDEDRECTD55*%
G04:AMPARAMS|DCode=56|XSize=1.6mm|YSize=3.2mm|CornerRadius=0.8mm|HoleSize=0mm|Usage=FLASHONLY|Rotation=180.000|XOffset=0mm|YOffset=0mm|HoleType=Round|Shape=RoundedRectangle|*
%AMROUNDEDRECTD56*
21,1,1.6000,1.6000,0,0,180.0*
21,1,0.0000,3.2000,0,0,180.0*
1,1,1.6000,0.0000,0.8000*
1,1,1.6000,0.0000,0.8000*
1,1,1.6000,0.0000,-0.8000*
1,1,1.6000,0.0000,-0.8000*
%
%ADD56ROUNDEDRECTD56*%
%ADD57C,0.9580*%
D50*
X815971Y457067D02*
D03*
X857971D02*
D03*
X899971D02*
D03*
X941971D02*
D03*
X983971D02*
D03*
X1025971D02*
D03*
X1067971D02*
D03*
X1109971D02*
D03*
X1151971D02*
D03*
X1193971D02*
D03*
X1235971D02*
D03*
X1277971D02*
D03*
X815971Y402067D02*
D03*
X857971D02*
D03*
X899971D02*
D03*
X941971D02*
D03*
X983971D02*
D03*
X1025971D02*
D03*
X1067971D02*
D03*
X1109971D02*
D03*
X1151971D02*
D03*
X1193971D02*
D03*
X1235971D02*
D03*
D51*
X1277971D02*
D03*
D52*
X815971Y329067D02*
D03*
X1277971D02*
D03*
D53*
X1283970Y806450D02*
D03*
Y831850D02*
D03*
X1309370Y806450D02*
D03*
Y831850D02*
D03*
X1334770Y806450D02*
D03*
Y831850D02*
D03*
X1360170Y806450D02*
D03*
Y831850D02*
D03*
X1385570Y806450D02*
D03*
Y831850D02*
D03*
X1410970Y806450D02*
D03*
Y831850D02*
D03*
D54*
X1382970Y397221D02*
D03*
D55*
Y337221D02*
D03*
D56*
X1429970Y367221D02*
D03*
D57*
X1263650Y999490D02*
D03*
X1225179Y975654D02*
D03*
X1241260Y975178D02*
D03*
X1254737Y962303D02*
D03*
X1717040Y273050D02*
D03*
Y307340D02*
D03*
X1426210Y567690D02*
D03*
X1492250D02*
D03*
X1276289Y530682D02*
D03*
X1138300Y646438D02*
D03*
X1168693Y569140D02*
D03*
X1107515Y568859D02*
D03*
X1624832Y545333D02*
D03*
X1690209Y562749D02*
D03*
X1370440Y642123D02*
D03*
X1392040Y642868D02*
D03*
X1315880Y643148D02*
D03*
X1294280Y642961D02*
D03*
X1550670Y787400D02*
D03*
X1220584Y823485D02*
D03*
X1219822Y846263D02*
D03*
X1210310Y659130D02*
D03*
X1456071Y1001709D02*
D03*
X1374435Y1005307D02*
D03*
X1662532Y306466D02*
D03*
X1192530Y1130300D02*
D03*
X1207770D02*
D03*
X1262356Y857390D02*
D03*
X1282948Y895121D02*
D03*
X1266840Y895800D02*
D03*
X1008380Y989330D02*
D03*
X1296670Y1065530D02*
D03*
X1241245Y1060368D02*
D03*
X1233830Y1054328D02*
D03*
X1254443Y1065931D02*
D03*
X1224280Y1049419D02*
D03*
X1236980Y928370D02*
D03*
X1168826Y969741D02*
D03*
X1196340Y938530D02*
D03*
X1136868Y974480D02*
D03*
X1124402Y973528D02*
D03*
X1121757Y916619D02*
D03*
X1098251Y868334D02*
D03*
X1092437Y827207D02*
D03*
X1087700Y786512D02*
D03*
X1081241Y748185D02*
D03*
X1075212Y706198D02*
D03*
X1068967Y666579D02*
D03*
X1062929Y624454D02*
D03*
X1050929Y545878D02*
D03*
X1056640Y586740D02*
D03*
X1177247Y991055D02*
D03*
X1149221Y916812D02*
D03*
X1455420Y1088490D02*
D03*
X1247140Y1106070D02*
D03*
X1210770Y1011300D02*
D03*
X1225762Y1015464D02*
D03*
X1251109Y1010205D02*
D03*
X988060Y955040D02*
D03*
X1540557Y1032510D02*
D03*
X1540869Y1076073D02*
D03*
X944880Y994410D02*
D03*
Y1019810D02*
D03*
X1540510Y1050290D02*
D03*
X1033780Y1062990D02*
D03*
X944880Y1032510D02*
D03*
X1609090Y1007110D02*
D03*
Y1093470D02*
D03*
X1509206Y802790D02*
D03*
X1510030Y783590D02*
D03*
X1525307Y829916D02*
D03*
X1474470Y822960D02*
D03*
X1712845Y1076632D02*
D03*
X1700367Y1055186D02*
D03*
X1688594Y1033339D02*
D03*
X1322070Y1033150D02*
D03*
X1344930D02*
D03*
X1283970Y1065530D02*
D03*
X1221740Y961390D02*
D03*
X1313180Y919480D02*
D03*
X1342173Y912020D02*
D03*
X1150620Y938530D02*
D03*
X1222468Y913858D02*
D03*
X1229622Y922317D02*
D03*
X1149149Y984250D02*
D03*
X1154669Y994294D02*
D03*
X1168400Y1023620D02*
D03*
X1156970Y1010920D02*
D03*
X1385500Y960190D02*
D03*
X1296670Y948690D02*
D03*
X1342324Y937123D02*
D03*
X1525270Y883920D02*
D03*
X1482090Y765810D02*
D03*
X1611630Y820420D02*
D03*
X1390650Y601980D02*
D03*
X1238250Y777240D02*
D03*
X1234440Y614680D02*
D03*
X1192530Y659130D02*
D03*
X1228090Y642620D02*
D03*
X869950Y788670D02*
D03*
X843581Y788536D02*
D03*
X844521Y840436D02*
D03*
X1441450Y452750D02*
D03*
X1640610Y669130D02*
D03*
X1619567Y668757D02*
D03*
X1597901Y669130D02*
D03*
X1575238D02*
D03*
X1536700Y447040D02*
D03*
X1583690D02*
D03*
X1598930D02*
D03*
X1549400D02*
D03*
X1357630Y514350D02*
D03*
X1591310Y435610D02*
D03*
X1145540Y890270D02*
D03*
X1130300D02*
D03*
X878840Y1054100D02*
D03*
X854710D02*
D03*
X836930Y1084580D02*
D03*
X1559560Y528320D02*
D03*
X1550796Y281221D02*
D03*
X1550860Y266532D02*
D03*
X1574969Y281422D02*
D03*
X1574990Y266532D02*
D03*
X1602428Y274891D02*
D03*
X1626558D02*
D03*
X1527810Y266700D02*
D03*
X1527525Y280619D02*
D03*
X1488440Y487680D02*
D03*
X821690Y567690D02*
D03*
X1612900Y500380D02*
D03*
X1335214Y469424D02*
D03*
X1542760Y434700D02*
D03*
X1555750Y581660D02*
D03*
X1626870Y820420D02*
D03*
X1559560Y867410D02*
D03*
X1270000Y1065530D02*
D03*
X980440Y1049020D02*
D03*
X1008380D02*
D03*
X980440Y989330D02*
D03*
X1304290Y585470D02*
D03*
X991997Y598043D02*
D03*
X991870Y638810D02*
D03*
Y679450D02*
D03*
Y720090D02*
D03*
Y760730D02*
D03*
Y801370D02*
D03*
Y840740D02*
D03*
Y880110D02*
D03*
X1334909Y447179D02*
D03*
X1306440Y453780D02*
D03*
X803853Y770738D02*
D03*
X1311910Y775970D02*
D03*
X1385582Y776098D02*
D03*
X952500Y904240D02*
D03*
X1627693Y334407D02*
D03*
Y361077D02*
D03*
X1663700Y336550D02*
D03*
X1627693Y348377D02*
D03*
X1569273Y306046D02*
D03*
X1651421Y336550D02*
D03*
X1553037Y305899D02*
D03*
M02*
