G04*
G04 #@! TF.GenerationSoftware,Altium Limited,Altium Designer,24.6.1 (21)*
G04*
G04 Layer_Physical_Order=1*
G04 Layer_Color=255*
%FSLAX44Y44*%
%MOMM*%
G71*
G04*
G04 #@! TF.SameCoordinates,533720E8-7120-4541-8755-C975A74632B4*
G04*
G04*
G04 #@! TF.FilePolarity,Positive*
G04*
G01*
G75*
%ADD14C,0.2540*%
%ADD20R,0.2794X1.7780*%
%ADD21R,1.7780X0.2794*%
%ADD23R,0.9000X0.9000*%
%ADD24R,0.9000X1.5000*%
%ADD25R,1.5000X0.9000*%
%ADD27R,2.5654X1.2700*%
%ADD30R,0.9000X1.3500*%
%ADD34R,1.1430X2.0320*%
%ADD35R,3.3000X2.3000*%
%ADD36R,1.1176X0.4572*%
G04:AMPARAMS|DCode=37|XSize=1.5544mm|YSize=0.5721mm|CornerRadius=0.2861mm|HoleSize=0mm|Usage=FLASHONLY|Rotation=0.000|XOffset=0mm|YOffset=0mm|HoleType=Round|Shape=RoundedRectangle|*
%AMROUNDEDRECTD37*
21,1,1.5544,0.0000,0,0,0.0*
21,1,0.9823,0.5721,0,0,0.0*
1,1,0.5721,0.4911,0.0000*
1,1,0.5721,-0.4911,0.0000*
1,1,0.5721,-0.4911,0.0000*
1,1,0.5721,0.4911,0.0000*
%
%ADD37ROUNDEDRECTD37*%
%ADD38R,1.5544X0.5721*%
%ADD39R,0.4572X1.1176*%
%ADD40R,2.2000X2.8000*%
%ADD41R,0.8500X0.8500*%
%ADD42R,0.6221X2.4692*%
G04:AMPARAMS|DCode=43|XSize=2.4692mm|YSize=0.6221mm|CornerRadius=0.3111mm|HoleSize=0mm|Usage=FLASHONLY|Rotation=270.000|XOffset=0mm|YOffset=0mm|HoleType=Round|Shape=RoundedRectangle|*
%AMROUNDEDRECTD43*
21,1,2.4692,0.0000,0,0,270.0*
21,1,1.8470,0.6221,0,0,270.0*
1,1,0.6221,0.0000,-0.9235*
1,1,0.6221,0.0000,0.9235*
1,1,0.6221,0.0000,0.9235*
1,1,0.6221,0.0000,-0.9235*
%
%ADD43ROUNDEDRECTD43*%
%ADD44R,1.0500X1.3000*%
%ADD46R,0.4826X1.2573*%
%ADD50C,2.7500*%
%ADD51R,2.7500X2.7500*%
%ADD52C,3.0000*%
%ADD53C,1.2700*%
%ADD54R,3.2000X1.6000*%
G04:AMPARAMS|DCode=55|XSize=3.2mm|YSize=1.6mm|CornerRadius=0.8mm|HoleSize=0mm|Usage=FLASHONLY|Rotation=180.000|XOffset=0mm|YOffset=0mm|HoleType=Round|Shape=RoundedRectangle|*
%AMROUNDEDRECTD55*
21,1,3.2000,0.0000,0,0,180.0*
21,1,1.6000,1.6000,0,0,180.0*
1,1,1.6000,-0.8000,0.0000*
1,1,1.6000,0.8000,0.0000*
1,1,1.6000,0.8000,0.0000*
1,1,1.6000,-0.8000,0.0000*
%
%ADD55ROUNDEDRECTD55*%
G04:AMPARAMS|DCode=56|XSize=1.6mm|YSize=3.2mm|CornerRadius=0.8mm|HoleSize=0mm|Usage=FLASHONLY|Rotation=180.000|XOffset=0mm|YOffset=0mm|HoleType=Round|Shape=RoundedRectangle|*
%AMROUNDEDRECTD56*
21,1,1.6000,1.6000,0,0,180.0*
21,1,0.0000,3.2000,0,0,180.0*
1,1,1.6000,0.0000,0.8000*
1,1,1.6000,0.0000,0.8000*
1,1,1.6000,0.0000,-0.8000*
1,1,1.6000,0.0000,-0.8000*
%
%ADD56ROUNDEDRECTD56*%
%ADD58R,1.1000X1.3000*%
%ADD59C,1.2000*%
%ADD60O,1.7000X0.3000*%
%ADD61R,1.3500X1.2000*%
%ADD62R,1.2000X1.3500*%
%ADD63R,1.3000X1.4500*%
%ADD64R,1.4500X1.3000*%
%ADD65R,1.1000X1.4500*%
%ADD66R,1.4500X1.1000*%
%ADD67R,1.3000X1.1000*%
%ADD68R,0.8000X0.9000*%
%ADD69R,0.8000X0.8000*%
%ADD70C,0.5700*%
%ADD71C,0.4000*%
%ADD72C,0.5000*%
%ADD73C,0.9000*%
%ADD74C,1.3000*%
%ADD75C,0.6300*%
%ADD76C,1.4600*%
%ADD77C,0.4500*%
G36*
X1610360Y424180D02*
X1577946D01*
X1575700Y424890D01*
X1575700Y426720D01*
Y431660D01*
X1565910D01*
X1556120D01*
X1556120Y424890D01*
X1553874Y424180D01*
X1526540D01*
Y457200D01*
X1610360D01*
Y424180D01*
D02*
G37*
G36*
X1657350Y414920D02*
X1653680D01*
Y405130D01*
Y395340D01*
X1657350D01*
Y391160D01*
X1617980D01*
Y386980D01*
X1612520D01*
Y377190D01*
Y367400D01*
X1617980D01*
Y352262D01*
X1507490D01*
Y384331D01*
X1514204D01*
Y392371D01*
X1515474D01*
Y393641D01*
X1525264D01*
Y397510D01*
X1534160D01*
Y419100D01*
X1556120D01*
Y416700D01*
X1565910D01*
X1575700D01*
Y419100D01*
X1657350D01*
Y414920D01*
D02*
G37*
G36*
X1596390Y295910D02*
X1536700D01*
Y335280D01*
X1545600D01*
Y331640D01*
X1564640D01*
X1583680D01*
Y335280D01*
X1596390D01*
Y295910D01*
D02*
G37*
G36*
X1687830Y346257D02*
X1682354D01*
Y336467D01*
X1681084D01*
Y335197D01*
X1672044D01*
Y328980D01*
X1658620D01*
X1658370Y328930D01*
X1639570D01*
Y351790D01*
X1687830D01*
Y346257D01*
D02*
G37*
G36*
X1529080Y292100D02*
X1604010D01*
Y300990D01*
X1609046D01*
Y298357D01*
X1628626D01*
Y300990D01*
X1634237D01*
Y298357D01*
X1653817D01*
Y300990D01*
X1667261D01*
X1668740Y298450D01*
X1668723Y298367D01*
X1678889D01*
Y297097D01*
X1680159D01*
Y291591D01*
X1680459D01*
Y282840D01*
X1674000D01*
Y273050D01*
Y263260D01*
X1680459D01*
Y257885D01*
X1498600D01*
Y261620D01*
X1499235D01*
Y274320D01*
Y287020D01*
X1498600D01*
Y292100D01*
X1506220D01*
Y305877D01*
X1514204D01*
Y313918D01*
X1515474D01*
Y315187D01*
X1525264D01*
Y321310D01*
X1529080D01*
Y292100D01*
D02*
G37*
G36*
X1475740D02*
Y287020D01*
X1475105D01*
Y274320D01*
Y261620D01*
X1475740D01*
Y257885D01*
X1459981D01*
Y397510D01*
X1407160D01*
Y379730D01*
X1353820D01*
Y412750D01*
X1475740D01*
Y292100D01*
D02*
G37*
%LPC*%
G36*
X1600200Y451699D02*
Y448310D01*
X1603589D01*
X1602991Y449753D01*
X1601643Y451101D01*
X1600200Y451699D01*
D02*
G37*
G36*
X1597660D02*
X1596217Y451101D01*
X1594869Y449753D01*
X1594271Y448310D01*
X1597660D01*
Y451699D01*
D02*
G37*
G36*
X1584960D02*
Y448310D01*
X1588349D01*
X1587751Y449753D01*
X1586403Y451101D01*
X1584960Y451699D01*
D02*
G37*
G36*
X1582420D02*
X1580977Y451101D01*
X1579629Y449753D01*
X1579031Y448310D01*
X1582420D01*
Y451699D01*
D02*
G37*
G36*
X1550670D02*
Y448310D01*
X1554059D01*
X1553461Y449753D01*
X1552113Y451101D01*
X1550670Y451699D01*
D02*
G37*
G36*
X1548130D02*
X1546687Y451101D01*
X1545339Y449753D01*
X1544741Y448310D01*
X1548130D01*
Y451699D01*
D02*
G37*
G36*
X1537970D02*
Y448310D01*
X1541359D01*
X1540761Y449753D01*
X1539413Y451101D01*
X1537970Y451699D01*
D02*
G37*
G36*
X1535430D02*
X1533987Y451101D01*
X1532639Y449753D01*
X1532041Y448310D01*
X1535430D01*
Y451699D01*
D02*
G37*
G36*
X1603589Y445770D02*
X1600200D01*
Y442381D01*
X1601643Y442979D01*
X1602991Y444327D01*
X1603589Y445770D01*
D02*
G37*
G36*
X1597660D02*
X1594271D01*
X1594869Y444327D01*
X1596217Y442979D01*
X1597660Y442381D01*
Y445770D01*
D02*
G37*
G36*
X1588349D02*
X1584960D01*
Y442381D01*
X1586403Y442979D01*
X1587751Y444327D01*
X1588349Y445770D01*
D02*
G37*
G36*
X1582420D02*
X1579031D01*
X1579629Y444327D01*
X1580977Y442979D01*
X1582420Y442381D01*
Y445770D01*
D02*
G37*
G36*
X1554059D02*
X1550670D01*
Y442381D01*
X1552113Y442979D01*
X1553461Y444327D01*
X1554059Y445770D01*
D02*
G37*
G36*
X1548130D02*
X1544741D01*
X1545339Y444327D01*
X1546687Y442979D01*
X1548130Y442381D01*
Y445770D01*
D02*
G37*
G36*
X1541359D02*
X1537970D01*
Y442381D01*
X1539413Y442979D01*
X1540761Y444327D01*
X1541359Y445770D01*
D02*
G37*
G36*
X1535430D02*
X1532041D01*
X1532639Y444327D01*
X1533987Y442979D01*
X1535430Y442381D01*
Y445770D01*
D02*
G37*
G36*
X1592580Y440269D02*
Y436880D01*
X1595969D01*
X1595371Y438323D01*
X1594023Y439671D01*
X1592580Y440269D01*
D02*
G37*
G36*
X1590040D02*
X1588597Y439671D01*
X1587249Y438323D01*
X1586651Y436880D01*
X1590040D01*
Y440269D01*
D02*
G37*
G36*
X1544030Y439359D02*
Y435970D01*
X1547419D01*
X1546821Y437413D01*
X1545473Y438761D01*
X1544030Y439359D01*
D02*
G37*
G36*
X1541490D02*
X1540047Y438761D01*
X1538699Y437413D01*
X1538101Y435970D01*
X1541490D01*
Y439359D01*
D02*
G37*
G36*
X1568660Y441031D02*
X1568198Y440970D01*
X1567180D01*
Y434200D01*
X1575725D01*
X1575700Y434391D01*
Y440970D01*
X1569122D01*
X1568660Y441031D01*
D02*
G37*
G36*
X1563160Y441031D02*
X1562699Y440970D01*
X1556120D01*
Y434391D01*
X1556095Y434200D01*
X1564640D01*
Y440970D01*
X1563622D01*
X1563160Y441031D01*
D02*
G37*
G36*
X1595969Y434340D02*
X1592580D01*
Y430951D01*
X1594023Y431549D01*
X1595371Y432897D01*
X1595969Y434340D01*
D02*
G37*
G36*
X1590040D02*
X1586651D01*
X1587249Y432897D01*
X1588597Y431549D01*
X1590040Y430951D01*
Y434340D01*
D02*
G37*
G36*
X1547419Y433430D02*
X1544030D01*
Y430041D01*
X1545473Y430639D01*
X1546821Y431987D01*
X1547419Y433430D01*
D02*
G37*
G36*
X1541490D02*
X1538101D01*
X1538699Y431987D01*
X1540047Y430639D01*
X1541490Y430041D01*
Y433430D01*
D02*
G37*
G36*
X1575700Y414160D02*
X1567180D01*
Y407390D01*
X1575700D01*
Y414160D01*
D02*
G37*
G36*
X1564640D02*
X1556120D01*
Y407390D01*
X1564640D01*
Y414160D01*
D02*
G37*
G36*
X1651140Y414920D02*
X1644370D01*
Y406400D01*
X1651140D01*
Y414920D01*
D02*
G37*
G36*
Y403860D02*
X1644370D01*
Y395340D01*
X1651140D01*
Y403860D01*
D02*
G37*
G36*
X1583680Y397410D02*
X1565910D01*
Y384640D01*
X1583680D01*
Y397410D01*
D02*
G37*
G36*
X1563370D02*
X1545600D01*
Y384640D01*
X1563370D01*
Y397410D01*
D02*
G37*
G36*
X1525264Y391101D02*
X1516744D01*
Y384331D01*
X1525264D01*
Y391101D01*
D02*
G37*
G36*
X1609980Y386980D02*
X1602210D01*
Y378460D01*
X1609980D01*
Y386980D01*
D02*
G37*
G36*
X1583680Y382100D02*
X1565910D01*
Y369330D01*
X1583680D01*
Y382100D01*
D02*
G37*
G36*
X1563370D02*
X1545600D01*
Y369330D01*
X1563370D01*
Y382100D01*
D02*
G37*
G36*
X1609980Y375920D02*
X1602210D01*
Y367400D01*
X1609980D01*
Y375920D01*
D02*
G37*
G36*
X1583680Y329100D02*
X1565910D01*
Y316330D01*
X1583680D01*
Y329100D01*
D02*
G37*
G36*
X1563370D02*
X1545600D01*
Y316330D01*
X1563370D01*
Y329100D01*
D02*
G37*
G36*
X1570543Y310704D02*
Y307316D01*
X1573932D01*
X1573334Y308759D01*
X1571987Y310107D01*
X1570543Y310704D01*
D02*
G37*
G36*
X1568003D02*
X1566560Y310107D01*
X1565212Y308759D01*
X1564615Y307316D01*
X1568003D01*
Y310704D01*
D02*
G37*
G36*
X1554307Y310558D02*
Y307169D01*
X1557695D01*
X1557097Y308613D01*
X1555750Y309960D01*
X1554307Y310558D01*
D02*
G37*
G36*
X1551767D02*
X1550323Y309960D01*
X1548976Y308613D01*
X1548378Y307169D01*
X1551767D01*
Y310558D01*
D02*
G37*
G36*
X1573932Y304776D02*
X1570543D01*
Y301387D01*
X1571987Y301985D01*
X1573334Y303332D01*
X1573932Y304776D01*
D02*
G37*
G36*
X1568003D02*
X1564615D01*
X1565212Y303332D01*
X1566560Y301985D01*
X1568003Y301387D01*
Y304776D01*
D02*
G37*
G36*
X1557695Y304629D02*
X1554307D01*
Y301241D01*
X1555750Y301839D01*
X1557097Y303186D01*
X1557695Y304629D01*
D02*
G37*
G36*
X1551767D02*
X1548378D01*
X1548976Y303186D01*
X1550323Y301839D01*
X1551767Y301241D01*
Y304629D01*
D02*
G37*
G36*
X1664970Y341209D02*
Y337820D01*
X1668359D01*
X1667761Y339263D01*
X1666413Y340611D01*
X1664970Y341209D01*
D02*
G37*
G36*
X1662430D02*
X1660987Y340611D01*
X1659639Y339263D01*
X1659041Y337820D01*
X1662430D01*
Y341209D01*
D02*
G37*
G36*
X1652691D02*
Y337820D01*
X1656080D01*
X1655482Y339263D01*
X1654135Y340611D01*
X1652691Y341209D01*
D02*
G37*
G36*
X1650151D02*
X1648708Y340611D01*
X1647361Y339263D01*
X1646763Y337820D01*
X1650151D01*
Y341209D01*
D02*
G37*
G36*
X1679814Y346257D02*
X1672044D01*
Y337737D01*
X1679814D01*
Y346257D01*
D02*
G37*
G36*
X1668359Y335280D02*
X1664970D01*
Y331891D01*
X1666413Y332489D01*
X1667761Y333837D01*
X1668359Y335280D01*
D02*
G37*
G36*
X1662430D02*
X1659041D01*
X1659639Y333837D01*
X1660987Y332489D01*
X1662430Y331891D01*
Y335280D01*
D02*
G37*
G36*
X1656080D02*
X1652691D01*
Y331891D01*
X1654135Y332489D01*
X1655482Y333837D01*
X1656080Y335280D01*
D02*
G37*
G36*
X1650151D02*
X1646763D01*
X1647361Y333837D01*
X1648708Y332489D01*
X1650151Y331891D01*
Y335280D01*
D02*
G37*
G36*
X1525264Y312647D02*
X1516744D01*
Y305877D01*
X1525264D01*
Y312647D01*
D02*
G37*
G36*
X1677619Y295827D02*
X1668723D01*
X1668890Y294990D01*
X1670083Y293204D01*
X1671870Y292010D01*
X1673977Y291591D01*
X1677619D01*
Y295827D01*
D02*
G37*
G36*
X1653817Y295817D02*
X1645297D01*
Y288047D01*
X1653817D01*
Y295817D01*
D02*
G37*
G36*
X1642757D02*
X1634237D01*
Y288047D01*
X1642757D01*
Y295817D01*
D02*
G37*
G36*
X1628626D02*
X1620106D01*
Y288047D01*
X1628626D01*
Y295817D01*
D02*
G37*
G36*
X1617566D02*
X1609046D01*
Y288047D01*
X1617566D01*
Y295817D01*
D02*
G37*
G36*
X1576239Y286080D02*
Y282692D01*
X1579627D01*
X1579030Y284135D01*
X1577682Y285482D01*
X1576239Y286080D01*
D02*
G37*
G36*
X1573699D02*
X1572256Y285482D01*
X1570908Y284135D01*
X1570310Y282692D01*
X1573699D01*
Y286080D01*
D02*
G37*
G36*
X1552066Y285879D02*
Y282491D01*
X1555454D01*
X1554856Y283934D01*
X1553509Y285282D01*
X1552066Y285879D01*
D02*
G37*
G36*
X1549526D02*
X1548082Y285282D01*
X1546735Y283934D01*
X1546137Y282491D01*
X1549526D01*
Y285879D01*
D02*
G37*
G36*
X1528795Y285278D02*
Y281889D01*
X1532184D01*
X1531586Y283332D01*
X1530238Y284680D01*
X1528795Y285278D01*
D02*
G37*
G36*
X1526255D02*
X1524812Y284680D01*
X1523464Y283332D01*
X1522866Y281889D01*
X1526255D01*
Y285278D01*
D02*
G37*
G36*
X1579627Y280152D02*
X1576239D01*
Y276763D01*
X1577682Y277361D01*
X1579030Y278708D01*
X1579627Y280152D01*
D02*
G37*
G36*
X1573699D02*
X1570310D01*
X1570908Y278708D01*
X1572256Y277361D01*
X1573699Y276763D01*
Y280152D01*
D02*
G37*
G36*
X1555454Y279951D02*
X1552066D01*
Y276562D01*
X1553509Y277160D01*
X1554856Y278508D01*
X1555454Y279951D01*
D02*
G37*
G36*
X1549526D02*
X1546137D01*
X1546735Y278508D01*
X1548082Y277160D01*
X1549526Y276562D01*
Y279951D01*
D02*
G37*
G36*
X1627828Y279550D02*
Y276161D01*
X1631217D01*
X1630619Y277605D01*
X1629271Y278952D01*
X1627828Y279550D01*
D02*
G37*
G36*
X1625288D02*
X1623845Y278952D01*
X1622497Y277605D01*
X1621899Y276161D01*
X1625288D01*
Y279550D01*
D02*
G37*
G36*
X1603698D02*
Y276161D01*
X1607087D01*
X1606489Y277605D01*
X1605141Y278952D01*
X1603698Y279550D01*
D02*
G37*
G36*
X1601158D02*
X1599715Y278952D01*
X1598367Y277605D01*
X1597769Y276161D01*
X1601158D01*
Y279550D01*
D02*
G37*
G36*
X1532184Y279349D02*
X1528795D01*
Y275961D01*
X1530238Y276558D01*
X1531586Y277906D01*
X1532184Y279349D01*
D02*
G37*
G36*
X1526255D02*
X1522866D01*
X1523464Y277906D01*
X1524812Y276558D01*
X1526255Y275961D01*
Y279349D01*
D02*
G37*
G36*
X1508760Y287020D02*
X1501775D01*
Y275590D01*
X1508760D01*
Y287020D01*
D02*
G37*
G36*
X1671460Y282840D02*
X1664690D01*
Y274320D01*
X1671460D01*
Y282840D01*
D02*
G37*
G36*
X1631217Y273622D02*
X1627828D01*
Y270233D01*
X1629271Y270831D01*
X1630619Y272178D01*
X1631217Y273622D01*
D02*
G37*
G36*
X1625288D02*
X1621899D01*
X1622497Y272178D01*
X1623845Y270831D01*
X1625288Y270233D01*
Y273622D01*
D02*
G37*
G36*
X1607087D02*
X1603698D01*
Y270233D01*
X1605141Y270831D01*
X1606489Y272178D01*
X1607087Y273622D01*
D02*
G37*
G36*
X1601158D02*
X1597769D01*
X1598367Y272178D01*
X1599715Y270831D01*
X1601158Y270233D01*
Y273622D01*
D02*
G37*
G36*
X1529080Y271359D02*
Y267970D01*
X1532469D01*
X1531871Y269413D01*
X1530523Y270761D01*
X1529080Y271359D01*
D02*
G37*
G36*
X1526540D02*
X1525097Y270761D01*
X1523749Y269413D01*
X1523151Y267970D01*
X1526540D01*
Y271359D01*
D02*
G37*
G36*
X1576260Y271190D02*
Y267802D01*
X1579648D01*
X1579050Y269245D01*
X1577703Y270593D01*
X1576260Y271190D01*
D02*
G37*
G36*
X1573720D02*
X1572276Y270593D01*
X1570929Y269245D01*
X1570331Y267802D01*
X1573720D01*
Y271190D01*
D02*
G37*
G36*
X1552130D02*
Y267802D01*
X1555518D01*
X1554921Y269245D01*
X1553573Y270593D01*
X1552130Y271190D01*
D02*
G37*
G36*
X1549590D02*
X1548146Y270593D01*
X1546799Y269245D01*
X1546201Y267802D01*
X1549590D01*
Y271190D01*
D02*
G37*
G36*
X1671460Y271780D02*
X1664690D01*
Y263260D01*
X1671460D01*
Y271780D01*
D02*
G37*
G36*
X1532469Y265430D02*
X1529080D01*
Y262041D01*
X1530523Y262639D01*
X1531871Y263987D01*
X1532469Y265430D01*
D02*
G37*
G36*
X1526540D02*
X1523151D01*
X1523749Y263987D01*
X1525097Y262639D01*
X1526540Y262041D01*
Y265430D01*
D02*
G37*
G36*
X1579648Y265262D02*
X1576260D01*
Y261873D01*
X1577703Y262471D01*
X1579050Y263818D01*
X1579648Y265262D01*
D02*
G37*
G36*
X1573720D02*
X1570331D01*
X1570929Y263818D01*
X1572276Y262471D01*
X1573720Y261873D01*
Y265262D01*
D02*
G37*
G36*
X1555518D02*
X1552130D01*
Y261873D01*
X1553573Y262471D01*
X1554921Y263818D01*
X1555518Y265262D01*
D02*
G37*
G36*
X1549590D02*
X1546201D01*
X1546799Y263818D01*
X1548146Y262471D01*
X1549590Y261873D01*
Y265262D01*
D02*
G37*
G36*
X1508760Y273050D02*
X1501775D01*
Y261620D01*
X1508760D01*
Y273050D01*
D02*
G37*
G36*
X1401510Y407761D02*
X1384240D01*
Y398491D01*
X1401510D01*
Y407761D01*
D02*
G37*
G36*
X1381700D02*
X1364430D01*
Y398491D01*
X1381700D01*
Y407761D01*
D02*
G37*
G36*
X1401510Y395951D02*
X1384240D01*
Y386681D01*
X1401510D01*
Y395951D01*
D02*
G37*
G36*
X1381700D02*
X1364430D01*
Y386681D01*
X1381700D01*
Y395951D01*
D02*
G37*
G36*
X1472565Y287020D02*
X1465580D01*
Y275590D01*
X1472565D01*
Y287020D01*
D02*
G37*
G36*
Y273050D02*
X1465580D01*
Y261620D01*
X1472565D01*
Y273050D01*
D02*
G37*
%LPD*%
D14*
X1265138Y1005433D02*
X1280795D01*
X1263650Y1003945D02*
X1265138Y1005433D01*
X1263650Y999490D02*
Y1003945D01*
X1280795Y1005433D02*
X1280922Y1005560D01*
X1235730Y945408D02*
Y962640D01*
X1225554Y972816D02*
X1235730Y962640D01*
X1225554Y972816D02*
Y975279D01*
X1225179Y975654D02*
X1225554Y975279D01*
X1240750Y974138D02*
X1241260Y974648D01*
Y975178D01*
X1240750Y945388D02*
Y974138D01*
X1254362Y961927D02*
X1254737Y962303D01*
X1245750Y958359D02*
X1249318Y961927D01*
X1254362D01*
X1690230Y273050D02*
X1717040D01*
X1700981Y306684D02*
X1715853D01*
X1716510Y307340D01*
X1717040D01*
X1700894Y306597D02*
X1700981Y306684D01*
X1721902Y377190D02*
X1723390Y375702D01*
X1721902Y297097D02*
X1723390Y298585D01*
X1700894Y297097D02*
X1721902D01*
X1723390Y298585D02*
Y375702D01*
X1669910Y377190D02*
X1721902D01*
X1426210Y567690D02*
Y583710D01*
X1492250Y567690D02*
Y582930D01*
X1637943Y712503D02*
Y735081D01*
X1636640Y711200D02*
X1637943Y712503D01*
X1627410Y770350D02*
X1637249Y760511D01*
X1607160Y770350D02*
X1627410D01*
X1637249Y755608D02*
Y760511D01*
Y755608D02*
X1640668Y752189D01*
X1578859Y712611D02*
Y735955D01*
Y712611D02*
X1580270Y711200D01*
Y710450D02*
Y711200D01*
X1276289Y547139D02*
X1276604Y547453D01*
X1276289Y530682D02*
Y547139D01*
X1278890Y513080D02*
Y515620D01*
X1256897Y441093D02*
Y491087D01*
X1278890Y513080D01*
X1275080Y518160D02*
X1283970D01*
X1278160Y398780D02*
Y419830D01*
X1297724Y531914D02*
Y547365D01*
X1283970Y518160D02*
X1297724Y531914D01*
X1234580Y547453D02*
X1255150D01*
X1213609D02*
X1234580D01*
X1131686Y645246D02*
X1135732Y641199D01*
X1131686Y645246D02*
Y677787D01*
X1140812Y636118D02*
Y641144D01*
X1142300Y634630D02*
X1142476D01*
X1138206Y660767D02*
X1138300Y660673D01*
X1133436Y634630D02*
X1133928D01*
X1129206Y630400D02*
X1133436Y634630D01*
X1140812Y636118D02*
X1142300Y634630D01*
X1140812Y641144D02*
X1144726Y645057D01*
X1133928Y634630D02*
X1135732Y636435D01*
X1144726Y645057D02*
Y677787D01*
X1142476Y634630D02*
X1146706Y630400D01*
X1138300Y646438D02*
Y660673D01*
X1135732Y636435D02*
Y641199D01*
X1128706Y680767D02*
X1131686Y677787D01*
X1129206Y628650D02*
Y630400D01*
X1146706Y628650D02*
Y630400D01*
X1168693Y569140D02*
Y589650D01*
X1168543Y589800D02*
X1168693Y589650D01*
X1107515Y589528D02*
X1107777Y589790D01*
X1107515Y568859D02*
Y589528D01*
X1615334Y540203D02*
X1627727Y527810D01*
X1606489Y544416D02*
X1610701Y540203D01*
X1615334D01*
X1627727Y522383D02*
X1629410Y520700D01*
X1627727Y522383D02*
Y527810D01*
X1624832Y545333D02*
Y560964D01*
X1624686Y561110D02*
X1624832Y560964D01*
X1666759Y562749D02*
X1690209D01*
X1666240Y562230D02*
X1666759Y562749D01*
X1370440Y659036D02*
X1370813Y659409D01*
X1370440Y642123D02*
Y659036D01*
X1392040Y642868D02*
Y658701D01*
X1392341Y659002D01*
X1315880Y643148D02*
Y659179D01*
X1315668Y659392D02*
X1315880Y659179D01*
X1294280Y642961D02*
Y659870D01*
X1294130Y660020D02*
X1294280Y659870D01*
X1249680Y674350D02*
Y676910D01*
X1252652Y671089D02*
Y671378D01*
X1293821Y629920D02*
X1416050D01*
X1249680Y674350D02*
X1252652Y671378D01*
Y671089D02*
X1293821Y629920D01*
X1229360Y676910D02*
X1249680D01*
X1550140Y787400D02*
X1550670D01*
X1546410Y783670D02*
X1550140Y787400D01*
X1530170Y783670D02*
X1546410D01*
X1554644Y778670D02*
X1580689Y752624D01*
X1530170Y778670D02*
X1554644D01*
X1203609Y824310D02*
X1204435Y823485D01*
X1220584D01*
X1203497Y846531D02*
X1203765Y846263D01*
X1219822D01*
X1210310Y567752D02*
X1213609Y564453D01*
X1210310Y567752D02*
Y659130D01*
X1455912Y1001867D02*
Y1029186D01*
Y1001867D02*
X1456071Y1001709D01*
X1344930Y1005460D02*
X1374282D01*
X1374435Y1005307D01*
X1192530Y1109980D02*
Y1130300D01*
X1207770Y1110740D02*
Y1130300D01*
Y1110740D02*
X1208530Y1109980D01*
X1248410Y915311D02*
Y920750D01*
X1245870Y913130D02*
X1246229D01*
X1248410Y915311D01*
Y920750D02*
X1255750Y928090D01*
X1229360Y890386D02*
Y911812D01*
Y890386D02*
X1262356Y857390D01*
X1210750Y901189D02*
Y945388D01*
X1154847Y911186D02*
X1194333D01*
X1270930Y834589D01*
X1278482D01*
X1267730Y844209D02*
X1392190D01*
X1210750Y901189D02*
X1267730Y844209D01*
X1229360Y911812D02*
X1250750Y933202D01*
X1266840Y895800D02*
Y911737D01*
X1265378Y913199D02*
X1266840Y911737D01*
X1250750Y933202D02*
Y945388D01*
X1282948Y895121D02*
Y911537D01*
X1277850Y916635D02*
X1282948Y911537D01*
X1247200Y895800D02*
X1266840D01*
X1260750Y929870D02*
Y945388D01*
X1265378Y913199D02*
Y925242D01*
X1260750Y929870D02*
X1265378Y925242D01*
X1265877Y935033D02*
X1277850Y923060D01*
X1265877Y935033D02*
Y945261D01*
X1277850Y916635D02*
Y923060D01*
X1265750Y945388D02*
X1265877Y945261D01*
X1008380Y989330D02*
Y1004340D01*
X1008650Y1004610D01*
X1478537Y629065D02*
X1481604Y625999D01*
X1478537Y629065D02*
Y629166D01*
X1463230Y644473D02*
X1478537Y629166D01*
X1463230Y644473D02*
Y977851D01*
X1481604Y623439D02*
Y625999D01*
X1457540Y465797D02*
X1511287D01*
X1521138Y475648D01*
X1525868Y481128D02*
X1526618D01*
X1521138Y476398D02*
X1525868Y481128D01*
X1521138Y475648D02*
Y476398D01*
X1286610Y1055470D02*
X1296670Y1065530D01*
X1271370Y1055470D02*
X1286610D01*
X1241245Y1060368D02*
X1241337Y1060276D01*
Y1047027D02*
Y1060276D01*
X1245877Y1057365D02*
X1254443Y1065931D01*
X1245877Y1030859D02*
Y1057365D01*
X1233830Y1053798D02*
Y1054328D01*
X1230750Y1050717D02*
X1233830Y1053798D01*
X1230750Y1030732D02*
Y1050717D01*
X1224280Y1048889D02*
X1225750Y1047419D01*
X1224280Y1048889D02*
Y1049419D01*
X1225750Y1030732D02*
Y1047419D01*
X1235750Y1041440D02*
X1241337Y1047027D01*
X1266190Y1012048D02*
X1267678Y1010560D01*
X1266190Y1016000D02*
X1290265Y1040075D01*
X1267678Y1010560D02*
X1280922D01*
X1266190Y1012048D02*
Y1016000D01*
X1290265Y1040075D02*
X1301695D01*
X1301750Y1040130D01*
X1295527Y881932D02*
Y930333D01*
X1325289Y852170D02*
X1413510D01*
X1295527Y881932D02*
X1325289Y852170D01*
X1240340Y985520D02*
X1295527Y930333D01*
X1230129Y985520D02*
X1240340D01*
X1427480Y797560D02*
Y838200D01*
X1413510Y852170D02*
X1427480Y838200D01*
X1402080Y789940D02*
X1419860D01*
X1385570Y806450D02*
X1402080Y789940D01*
X1419860D02*
X1427480Y797560D01*
X1392190Y844209D02*
X1398235Y838165D01*
X1220089Y995560D02*
X1230129Y985520D01*
X1195578Y995560D02*
X1220089D01*
X1231231Y990838D02*
X1242614D01*
X1210770Y1011300D02*
X1231231Y990838D01*
X1236605Y928745D02*
X1236980Y928370D01*
X1170175Y970560D02*
X1195578D01*
X1168826Y969741D02*
X1169356D01*
X1170175Y970560D01*
X1149149Y984250D02*
X1153673Y988774D01*
X1159249D01*
X1171035Y1000560D02*
X1195578D01*
X1159249Y988774D02*
X1171035Y1000560D01*
X1162165Y985270D02*
X1179268D01*
X1140460Y949960D02*
X1166060Y975560D01*
X1163956Y980640D02*
X1195318D01*
X1135380Y952064D02*
X1163956Y980640D01*
X1166060Y975560D02*
X1195398D01*
X1127767Y950872D02*
X1162165Y985270D01*
X1135380Y897278D02*
Y952064D01*
X1127767Y901964D02*
Y950872D01*
X1180210Y938530D02*
X1196340D01*
X1107640Y1057710D02*
X1137153Y1028196D01*
X1136868Y974480D02*
X1137153Y974765D01*
Y1028196D01*
X1110180Y1045010D02*
X1124402Y1030788D01*
Y973528D02*
Y1030788D01*
X1111250Y885447D02*
X1127767Y901964D01*
X1107251Y930910D02*
X1121542Y916619D01*
X1097350Y930910D02*
X1107251D01*
X1111250Y833338D02*
X1119088Y825500D01*
X1111250Y833338D02*
Y885447D01*
X1093622Y773964D02*
X1106170Y786512D01*
X1022350Y977882D02*
X1106170Y894062D01*
Y786512D02*
Y894062D01*
X1038860Y867931D02*
X1039263Y868334D01*
X1098251D01*
X1039687Y827207D02*
X1092437D01*
X1038860Y828035D02*
X1039687Y827207D01*
X1038860Y786620D02*
X1038968Y786512D01*
X1087700D01*
X1038860Y747640D02*
X1039405Y748185D01*
X1081241D01*
X1038938Y706198D02*
X1075212D01*
X1038860Y706120D02*
X1038938Y706198D01*
X1038926Y665605D02*
X1067464D01*
X1068437Y666579D01*
X1068967D01*
X1038860Y625330D02*
X1039736Y624454D01*
X1062929D01*
X1050398Y545878D02*
X1050929D01*
X1038999Y544742D02*
X1049263D01*
X1050398Y545878D01*
X1038860Y544882D02*
X1038999Y544742D01*
X1039250Y588010D02*
X1054840D01*
X1056110Y586740D01*
X1056640D01*
X1179268Y985270D02*
X1179558Y985560D01*
X1195578D01*
X1177247Y991055D02*
X1177615Y990687D01*
X1128014Y895790D02*
X1133892D01*
X1135380Y897278D01*
X1140460D02*
Y949960D01*
X1147827Y895790D02*
X1156970Y886646D01*
X1140460Y897278D02*
X1141948Y895790D01*
X1119088Y825500D02*
X1167130D01*
X1177615Y990687D02*
X1195451D01*
X1141948Y895790D02*
X1147827D01*
X1195451Y990687D02*
X1195578Y990560D01*
X1156970Y848372D02*
Y886646D01*
X1118870Y848372D02*
Y886646D01*
X1128014Y895790D01*
X1164210Y956274D02*
X1173496Y965560D01*
X1195578D01*
X1149221Y916812D02*
X1154847Y911186D01*
X1022350Y977882D02*
Y1052830D01*
X1167130Y825500D02*
X1176020Y834390D01*
Y860842D01*
X1177508Y862330D02*
X1226820D01*
X1176020Y860842D02*
X1177508Y862330D01*
X1226820D02*
X1234440Y854710D01*
Y812800D02*
Y854710D01*
X1224360Y802720D02*
X1234440Y812800D01*
X1203469Y802720D02*
X1224360D01*
X1250864Y1030846D02*
Y1050204D01*
X1266190Y1065530D01*
X1270000D01*
X1455912Y1051329D02*
Y1073579D01*
Y1029186D02*
Y1051329D01*
X1455420Y1074071D02*
Y1088490D01*
X1246610Y1106070D02*
X1247140D01*
X1245440Y1104900D02*
X1246610Y1106070D01*
X1225762Y1015464D02*
X1226137Y1015839D01*
X1238295Y1016020D02*
X1240623Y1018348D01*
X1226137Y1015839D02*
X1227523D01*
X1227703Y1016020D01*
X1238295D01*
X1251109Y993542D02*
X1268964Y975687D01*
X1280795D01*
X1251109Y993542D02*
Y1010205D01*
X1267893Y965560D02*
X1280922D01*
X1242614Y990838D02*
X1267893Y965560D01*
X1245750Y945388D02*
Y958359D01*
X1280795Y975687D02*
X1280922Y975560D01*
X1240623Y1018348D02*
Y1030605D01*
X1240750Y1030732D01*
X1032970Y955040D02*
X1066800Y921210D01*
X988060Y955040D02*
X1032970D01*
X1066800Y918210D02*
Y921210D01*
X1208150Y1085850D02*
Y1106170D01*
X1215750Y1030732D02*
Y1043651D01*
X1212850Y1052971D02*
Y1065530D01*
X1208310Y1051090D02*
X1215750Y1043651D01*
X1220750Y1030732D02*
Y1045071D01*
X1210750Y1030732D02*
Y1042230D01*
X1212850Y1052971D02*
X1220750Y1045071D01*
X1191260Y1061720D02*
X1210750Y1042230D01*
X1212850Y1065530D02*
X1227778Y1080458D01*
X1228470Y1106170D02*
X1229740Y1104900D01*
X1245440D01*
X1540027Y1032510D02*
X1540557D01*
X1536899Y1029382D02*
X1540027Y1032510D01*
X1518286Y1029382D02*
X1536899D01*
X1520806Y1076073D02*
X1540869D01*
X1518312Y1073579D02*
X1520806Y1076073D01*
X922350Y994410D02*
X944880D01*
X922150Y994210D02*
X922350Y994410D01*
Y1019810D02*
X944880D01*
X922150Y1019610D02*
X922350Y1019810D01*
X1519008Y1050290D02*
X1540510D01*
X1518312Y1050986D02*
X1519008Y1050290D01*
X1033780Y1062990D02*
X1066600Y1095810D01*
X922350Y1032510D02*
X944880D01*
X922150Y1032310D02*
X922350Y1032510D01*
X1455420Y1074071D02*
X1455912Y1073579D01*
X1609512Y1032087D02*
Y1074829D01*
X1609090Y1007110D02*
Y1031665D01*
X1609512Y1032087D01*
X1609090Y1075251D02*
X1609512Y1074829D01*
X1609090Y1075251D02*
Y1093470D01*
X1518326Y793670D02*
X1530170D01*
X1513679Y798317D02*
Y798317D01*
Y798317D02*
X1518326Y793670D01*
X1509206Y802790D02*
X1513679Y798317D01*
X1499720Y802790D02*
X1509206D01*
X1498600Y803910D02*
X1499720Y802790D01*
X1498880Y822960D02*
X1523170Y798670D01*
X1530170D01*
X1474470Y822960D02*
X1498880D01*
X1525307Y829916D02*
Y844174D01*
X1225750Y934520D02*
X1231525Y928745D01*
X1236605D01*
X1220750Y924568D02*
X1223001Y922317D01*
X1220750Y924568D02*
Y945388D01*
X1223001Y922317D02*
X1229622D01*
X1686411Y1031686D02*
X1688064Y1033339D01*
X1668798Y1031686D02*
X1686411D01*
X1688064Y1033339D02*
X1688594D01*
X1699837Y1055186D02*
X1700367D01*
X1668839Y1053544D02*
X1698195D01*
X1699837Y1055186D01*
X1710332Y1074649D02*
X1712315Y1076632D01*
X1668730Y1074649D02*
X1710332D01*
X1712315Y1076632D02*
X1712845D01*
X1344930Y1021460D02*
Y1033150D01*
X1322070Y1021460D02*
Y1033150D01*
X1280922Y1015560D02*
X1296044D01*
X1327504Y1047020D01*
X1278450Y1060010D02*
X1283970Y1065530D01*
X1222115Y961015D02*
X1225539D01*
X1221740Y961390D02*
X1222115Y961015D01*
X1225539D02*
X1230661Y955894D01*
X1313180Y919480D02*
Y933070D01*
X1342173Y912020D02*
X1354218D01*
X1354370Y911869D01*
X1353960Y912000D02*
Y937190D01*
X1458690Y645041D02*
Y975971D01*
X1389521Y1051560D02*
X1463230Y977851D01*
X1387641Y1047020D02*
X1458690Y975971D01*
X1454150Y668020D02*
Y974090D01*
X1308100Y995680D02*
X1432560D01*
X1454150Y974090D01*
X1150620Y938530D02*
X1164210D01*
Y956274D01*
X1219023Y914233D02*
X1222093D01*
X1222468Y913858D01*
X1215750Y917506D02*
X1219023Y914233D01*
X1215750Y917506D02*
Y945388D01*
X1165936Y1005560D02*
X1195578D01*
X1281221Y831850D02*
X1283970D01*
X1278482Y834589D02*
X1281221Y831850D01*
X1154669Y994294D02*
X1165936Y1005560D01*
X1168400Y1023620D02*
X1176460Y1015560D01*
X1195578D01*
X1156970Y1010920D02*
X1157330Y1010560D01*
X1195578D01*
X1230661Y945477D02*
Y955894D01*
Y945477D02*
X1230750Y945388D01*
X1235730Y945408D02*
X1235750Y945388D01*
X1225750Y934520D02*
Y945388D01*
X1371460Y960190D02*
X1385500D01*
X1296670Y948690D02*
X1312800D01*
X1313180Y949070D01*
X1342324Y937123D02*
X1353893D01*
X1353960Y937190D01*
X1525270Y867690D02*
Y883920D01*
X1416050Y629920D02*
X1454150Y668020D01*
X1437087Y623439D02*
X1458690Y645041D01*
X1525307Y844174D02*
X1525410Y844277D01*
X1481706Y783072D02*
X1482090Y782687D01*
Y765810D02*
Y782687D01*
X1481600Y783177D02*
X1481706Y783072D01*
X1611630Y805052D02*
Y820420D01*
X1611358Y804780D02*
X1611630Y805052D01*
X1580689Y752624D02*
X1581439D01*
X1615690Y754895D02*
Y760480D01*
X1610360Y765810D02*
X1615690Y760480D01*
X1604010Y765810D02*
X1610360D01*
X1615690Y754895D02*
X1618427Y752158D01*
X1571170Y778670D02*
X1583692D01*
X1571170Y783670D02*
X1586150D01*
X1604010Y765810D01*
X1583692Y778670D02*
X1600062Y762300D01*
Y752490D02*
Y762300D01*
X1590261Y793670D02*
X1600341Y783590D01*
X1610750D01*
X1588840Y788670D02*
X1607160Y770350D01*
X1571170Y793670D02*
X1590261D01*
X1571170Y788670D02*
X1588840D01*
X1618370Y711200D02*
Y735100D01*
X1618427Y735158D01*
X1597270Y732699D02*
X1600062Y735490D01*
X1597270Y711200D02*
Y732699D01*
X1579880Y698520D02*
Y710060D01*
X1580270Y710450D01*
X1574800Y690880D02*
Y693440D01*
X1579880Y698520D01*
X1634490Y697975D02*
Y710320D01*
X1635370Y711200D01*
X1640522Y690133D02*
Y691943D01*
X1634490Y697975D02*
X1640522Y691943D01*
X1618370Y711200D02*
X1619358Y710212D01*
Y690535D02*
Y710212D01*
X1597114Y690535D02*
Y711044D01*
X1597270Y711200D01*
X1390650Y536330D02*
X1391040Y535940D01*
X1390650Y536330D02*
Y601980D01*
X1238250Y751580D02*
Y777240D01*
X1234440Y564512D02*
Y614680D01*
Y564512D02*
X1234580Y564372D01*
X1192530Y564836D02*
Y659130D01*
X1192148Y564454D02*
X1192530Y564836D01*
X1180210Y938530D02*
Y959072D01*
X1181698Y960560D02*
X1195578D01*
X1180210Y959072D02*
X1181698Y960560D01*
X1112495Y727710D02*
X1309370D01*
X1093622Y746583D02*
Y773964D01*
X1229315Y676865D02*
X1229360Y676910D01*
X1093622Y746583D02*
X1112495Y727710D01*
X929868Y1064480D02*
X1010700D01*
X925150Y1070410D02*
X928380Y1067180D01*
X922150Y1070410D02*
X925150D01*
X928380Y1065968D02*
X929868Y1064480D01*
X1010700D02*
X1022350Y1052830D01*
X928380Y1065968D02*
Y1067180D01*
X1311910Y703580D02*
Y725170D01*
X1309370Y727710D02*
X1311910Y725170D01*
X1228090Y642620D02*
Y659640D01*
X1227778Y1087698D02*
X1229360Y1089280D01*
X1227778Y1080458D02*
Y1087698D01*
X1208310Y1051090D02*
Y1085690D01*
X1192150Y1085850D02*
Y1106170D01*
X1191260Y1084960D02*
X1192150Y1085850D01*
X1208150Y1106170D02*
X1228470D01*
X1191260Y1061720D02*
Y1084960D01*
X869950Y806390D02*
X870010Y806450D01*
X869950Y788670D02*
Y806390D01*
X843581Y788536D02*
Y805996D01*
X848765Y811180D01*
X844521Y823936D02*
Y840436D01*
X844035Y823450D02*
X844521Y823936D01*
X843003Y823450D02*
X844035D01*
X815340D02*
X843003D01*
X835660Y707390D02*
X890090D01*
X829310Y466930D02*
Y728980D01*
X833850Y705580D02*
X835660Y707390D01*
X833850Y486950D02*
Y705580D01*
X829310Y728980D02*
X858520Y758190D01*
X1005038Y534670D02*
X1015250Y544882D01*
X1016000D01*
X972250Y534670D02*
X1005038D01*
X803853Y758427D02*
X804090Y758190D01*
X1441450Y452750D02*
Y465706D01*
X1640522Y690133D02*
X1640566Y690089D01*
Y669175D02*
Y690089D01*
Y669175D02*
X1640610Y669130D01*
X1619358Y690535D02*
X1619462Y690431D01*
Y668861D02*
Y690431D01*
Y668861D02*
X1619567Y668757D01*
X1597526Y669505D02*
X1597901Y669130D01*
X1597114Y690535D02*
X1597526Y690124D01*
Y669505D02*
Y690124D01*
X1575019Y669350D02*
Y690661D01*
Y669350D02*
X1575238Y669130D01*
X1574800Y690880D02*
X1575019Y690661D01*
X1525868Y481128D02*
X1693978D01*
X1623686Y598890D02*
X1692190D01*
X1693978Y481128D02*
X1705610Y492760D01*
X1692190Y598890D02*
X1705610Y585470D01*
Y492760D02*
Y585470D01*
X1307081Y363220D02*
X1318386Y374524D01*
Y429134D01*
X1203960Y363220D02*
X1307081D01*
X1432214Y426374D02*
X1457540Y451701D01*
X1488440Y487680D02*
X1494492Y481628D01*
X1357200Y426374D02*
X1432214D01*
X1457540Y451701D02*
Y465797D01*
X1494492Y481628D02*
X1504406D01*
X1194160Y373020D02*
X1203960Y363220D01*
X1321146Y426374D02*
X1357200D01*
X1194160Y373020D02*
Y403500D01*
X1357630Y514350D02*
X1390650D01*
X1144270Y848372D02*
Y876300D01*
X1145540Y876680D02*
Y890270D01*
Y876680D02*
X1145920Y876300D01*
X1131570Y848372D02*
Y876300D01*
X1130300Y876680D02*
Y890270D01*
X1129920Y876300D02*
X1130300Y876680D01*
X878576Y1068960D02*
X878840Y1068697D01*
Y1054100D02*
Y1068697D01*
X854710Y1067690D02*
X855980Y1068960D01*
X854710Y1054100D02*
Y1067690D01*
X836930Y1084580D02*
X855600D01*
X855980Y1084960D01*
X1066600Y1095810D02*
X1097150D01*
X1527810Y584200D02*
X1542500Y598890D01*
X1568586D01*
X1493520Y584200D02*
X1527810D01*
X1492250Y582930D02*
X1493520Y584200D01*
X1612900Y500380D02*
X1654024D01*
X1565910D02*
X1612900D01*
X1606095Y544416D02*
Y560701D01*
X1582810Y545710D02*
X1588770Y539750D01*
Y535940D02*
Y539750D01*
X1573530Y545710D02*
X1582810D01*
X1588770Y535940D02*
X1596390Y528320D01*
X1605584D01*
X1606489Y527416D01*
X1576476Y548656D02*
Y561110D01*
X1573530Y545710D02*
X1576476Y548656D01*
X1559560Y528320D02*
X1573140D01*
X1573530Y528710D01*
X1605686Y561110D02*
X1606095Y560701D01*
X1532010Y534280D02*
X1565910Y500380D01*
X1503680Y534280D02*
X1532010D01*
X1504406Y497628D02*
X1504906Y498128D01*
X1526618D01*
X1503680Y498354D02*
Y517280D01*
Y498354D02*
X1504406Y497628D01*
X1585586Y581500D02*
Y598890D01*
Y581500D02*
X1585976Y581110D01*
X1390650Y514350D02*
X1391040Y514740D01*
X1357200Y487250D02*
X1363980Y494030D01*
X1391040D01*
X1357200Y469387D02*
Y487250D01*
X1441450Y465706D02*
X1441541Y465797D01*
X1654810Y500380D02*
Y541020D01*
X1643380Y552450D02*
X1654810Y541020D01*
X1643380Y552450D02*
Y561730D01*
X1335232Y469405D02*
X1357181D01*
X1335214Y469424D02*
X1335232Y469405D01*
X1316990Y1020028D02*
Y1021460D01*
X1357181Y469405D02*
X1357200Y469387D01*
X1566426Y581660D02*
X1566976Y581110D01*
X1555750Y581660D02*
X1566426D01*
X1606686Y589610D02*
X1611956Y584340D01*
X1612456D01*
X1615186Y581110D02*
Y581610D01*
X1606686Y589610D02*
Y598890D01*
X1612456Y584340D02*
X1615186Y581610D01*
Y581110D02*
X1641000D01*
X1643380Y578730D01*
X1665740D02*
X1666240Y578230D01*
X1643380Y578730D02*
X1665740D01*
X1498706Y783072D02*
X1509512D01*
X1515110Y788670D01*
X1530170D01*
X1481600Y783177D02*
Y803910D01*
X1626870Y805268D02*
X1627358Y804780D01*
X1626870Y805268D02*
Y820420D01*
X1627358Y783982D02*
X1627750Y783590D01*
X1627358Y783982D02*
Y804780D01*
X1571170Y798670D02*
X1588610D01*
X1594720Y804780D02*
X1611358D01*
X1588610Y798670D02*
X1594720Y804780D01*
X1525270Y867690D02*
X1525550Y867410D01*
X1542910Y867270D02*
X1543050Y867410D01*
X1559560D01*
X1097150Y1057710D02*
X1107640D01*
X1097150Y1045010D02*
X1110180D01*
X1038860Y665671D02*
X1038926Y665605D01*
X1038860Y608330D02*
X1038860Y608330D01*
X1235750Y1030732D02*
Y1041440D01*
X1245750Y1030732D02*
X1245877Y1030859D01*
X1250750Y1030732D02*
X1250864Y1030846D01*
X1255750Y1047470D02*
X1268290Y1060010D01*
X1278450D01*
X1274450Y1050930D02*
X1324993D01*
X1265750Y1042230D02*
X1274450Y1050930D01*
X1260877Y1044977D02*
X1271370Y1055470D01*
X1260877Y1030859D02*
Y1044977D01*
X1265750Y1030732D02*
Y1042230D01*
X1324993Y1050930D02*
X1325623Y1051560D01*
X1255750Y1030732D02*
Y1047470D01*
X1325623Y1051560D02*
X1389521D01*
X1260750Y1030732D02*
X1260877Y1030859D01*
X1038860Y587620D02*
X1039250Y588010D01*
X1089660Y556260D02*
X1172210Y473710D01*
X999490Y556260D02*
X1089660D01*
X980440Y1032820D02*
Y1049020D01*
Y1032820D02*
X980650Y1032610D01*
X1008380Y1032880D02*
X1008650Y1032610D01*
X1008380Y1032880D02*
Y1049020D01*
X980440Y1004400D02*
X980650Y1004610D01*
X980440Y989330D02*
Y1004400D01*
X1327504Y1047020D02*
X1387641D01*
X1280922Y990560D02*
X1302980D01*
X1308100Y995680D01*
X1295280Y995560D02*
X1305180Y1005460D01*
X1280922Y995560D02*
X1295280D01*
Y980560D02*
X1308100Y967740D01*
X1338362D01*
X1280922Y980560D02*
X1295280D01*
X1280922Y1000560D02*
X1292660D01*
X1311228Y1019128D01*
X1398235Y819185D02*
X1410970Y806450D01*
X1398235Y819185D02*
Y838165D01*
X1097150Y930710D02*
X1097350Y930910D01*
X1366738Y709712D02*
X1379438D01*
X1385570Y703580D01*
X1365250Y711200D02*
X1366738Y709712D01*
X1365250Y711200D02*
Y783590D01*
X1267460Y788888D02*
X1268948Y787400D01*
X1361440D02*
X1365250Y783590D01*
X1267460Y788888D02*
Y815340D01*
X1268948Y787400D02*
X1361440D01*
X1267460Y815340D02*
X1283970Y831850D01*
X1255150Y547453D02*
X1255432Y547171D01*
X1192148Y547453D02*
X1213609D01*
X1276031Y563880D02*
X1276604Y564453D01*
X1256030Y563880D02*
X1276031D01*
X1255714Y564453D02*
X1256030Y564138D01*
Y563880D02*
Y564138D01*
X1294930Y585470D02*
X1304290D01*
X1294413Y584953D02*
X1294930Y585470D01*
X1318351Y564366D02*
X1318386Y564331D01*
X1297724Y564366D02*
X1318351D01*
X1308363Y602987D02*
X1318386Y592964D01*
X1287428Y602987D02*
X1308363D01*
X1318386Y564331D02*
Y592964D01*
X1276604Y564453D02*
X1280443Y568292D01*
Y584953D01*
X1459230Y467486D02*
Y476250D01*
X1457540Y465797D02*
X1459230Y467486D01*
Y476250D02*
X1461770Y478790D01*
Y488125D01*
X1438910Y468427D02*
Y476250D01*
Y468427D02*
X1441541Y465797D01*
X1436370Y478790D02*
Y488125D01*
Y478790D02*
X1438910Y476250D01*
X1470660Y600710D02*
Y612495D01*
X1481604Y623439D01*
X1437087Y623439D02*
X1447800Y612726D01*
Y600320D02*
Y612726D01*
X991997Y586105D02*
Y598043D01*
X991870Y624840D02*
Y638810D01*
Y665480D02*
Y679450D01*
Y706120D02*
Y720090D01*
Y746760D02*
Y760730D01*
Y787400D02*
Y801370D01*
Y828040D02*
Y840740D01*
Y868680D02*
Y880110D01*
X1015995Y828040D02*
X1016000Y828035D01*
X1038860Y850931D02*
X1038860Y850931D01*
X1016000Y850931D02*
X1038860D01*
X1016000Y811035D02*
X1038860D01*
X1038860Y811035D01*
X1016000Y769620D02*
X1038860D01*
X1016000Y730640D02*
X1038860D01*
X1016000Y730640D02*
X1016000Y730640D01*
X1016000Y570620D02*
X1038860D01*
X1016000Y608330D02*
X1038860D01*
X1016000Y608330D02*
X1016000Y608330D01*
X1016000Y648671D02*
X1038860D01*
X1038860Y689120D02*
X1038860Y689120D01*
X1016000Y689120D02*
X1038860D01*
X1334909Y447179D02*
X1357200D01*
X1278160Y453780D02*
X1306440D01*
X1318386Y429134D02*
Y547331D01*
Y429134D02*
X1321146Y426374D01*
X1470293Y565264D02*
X1474348Y561210D01*
Y540698D02*
Y561210D01*
X1470293Y565264D02*
Y583343D01*
X1436370Y553720D02*
X1447800Y565150D01*
X1436370Y540575D02*
Y553720D01*
X1447800Y565150D02*
Y583320D01*
X1470293Y583343D02*
X1470660Y583710D01*
X848765Y811180D02*
X856990D01*
X869260Y823450D01*
X870010D01*
X811936Y803046D02*
X815340Y806450D01*
X1172210Y425450D02*
Y473710D01*
X939847Y861695D02*
X973836D01*
X939847Y821055D02*
X973836D01*
X939847Y780415D02*
X973836D01*
X939847Y739775D02*
X973836D01*
X939847Y699135D02*
X973836D01*
X905510Y681990D02*
X918210Y694690D01*
Y748030D02*
X939847Y769667D01*
X918210Y694690D02*
Y748030D01*
X923290Y707390D02*
X939847Y723947D01*
X906562Y656590D02*
X923290Y673318D01*
Y707390D01*
X928370Y687658D02*
X939847Y699135D01*
X928370Y651510D02*
Y687658D01*
X915670Y820420D02*
X939847Y844597D01*
X915670Y764540D02*
Y820420D01*
X939847Y844597D02*
Y861695D01*
X924635Y792555D02*
X939847Y807767D01*
Y821055D01*
X924635Y764615D02*
Y792555D01*
X939847Y769667D02*
Y780415D01*
X911860Y715010D02*
Y751840D01*
X924635Y764615D01*
X909320Y758190D02*
X915670Y764540D01*
X890090Y758190D02*
X909320D01*
X858520D02*
X890090D01*
X905239Y708389D02*
X911860Y715010D01*
X890090Y681990D02*
X905510D01*
X840740D02*
X890090D01*
X939847Y723947D02*
Y739775D01*
X890090Y580390D02*
X915670D01*
X938919Y603639D02*
Y616927D01*
X915670Y580390D02*
X938919Y603639D01*
X860070Y580390D02*
X890090D01*
X941657Y579025D02*
X945970D01*
X946065Y579120D01*
X973963D01*
X917622Y554990D02*
X941657Y579025D01*
X938919Y616927D02*
X939847Y617855D01*
X938823Y636563D02*
Y657471D01*
X939847Y658495D01*
X908050Y605790D02*
X938823Y636563D01*
X908050Y631190D02*
X928370Y651510D01*
X890090Y707390D02*
X891089Y708389D01*
X905239D01*
X890090Y656590D02*
X906562D01*
X890090Y631190D02*
X908050D01*
X890090Y605790D02*
X908050D01*
X939847Y658495D02*
X973836D01*
X939847Y617855D02*
X973836D01*
X890090Y554990D02*
X917622D01*
X932207Y529590D02*
X937287Y534670D01*
X939847D01*
X890090Y529590D02*
X932207D01*
X939847Y534670D02*
X972250D01*
X996250Y553020D02*
X999490Y556260D01*
X996250Y544170D02*
Y553020D01*
Y525170D02*
X1036148D01*
X1038860Y527882D01*
X991997Y572135D02*
X1014485D01*
X1016000Y570620D01*
X1014485Y586105D02*
X1016000Y587620D01*
X991997Y586105D02*
X1014485D01*
X991870Y610870D02*
X1013460D01*
X1016000Y608330D01*
X991870Y624840D02*
X1015510D01*
X1016000Y625330D01*
X1013161Y651510D02*
X1016000Y648671D01*
X991870Y651510D02*
X1013161D01*
X991870Y665480D02*
X1015809D01*
X1016000Y665671D01*
X991870Y692150D02*
X1012970D01*
X1016000Y689120D01*
X991870Y706120D02*
X1016000D01*
X1013850Y732790D02*
X1016000Y730640D01*
X991870Y732790D02*
X1013850D01*
X1015120Y746760D02*
X1016000Y747640D01*
X991870Y746760D02*
X1015120D01*
X1012190Y773430D02*
X1016000Y769620D01*
X991870Y773430D02*
X1012190D01*
X991870Y787400D02*
X1015220D01*
X1016000Y786620D01*
X1012965Y814070D02*
X1016000Y811035D01*
X991870Y814070D02*
X1012965D01*
X991870Y828040D02*
X1015995D01*
X1012221Y854710D02*
X1016000Y850931D01*
X991870Y854710D02*
X1012221D01*
X991870Y868680D02*
X1015251D01*
X1016000Y867931D01*
X1311910Y751580D02*
Y775970D01*
X1542910Y844277D02*
Y867270D01*
Y844277D02*
X1544453Y845820D01*
X1562100D01*
X1370898Y675495D02*
X1391834D01*
X1392341Y676002D01*
X1392848Y675495D01*
X1410825D02*
X1412240Y676910D01*
X1392848Y675495D02*
X1410825D01*
X1392341Y676002D02*
Y696809D01*
X1385570Y703580D02*
X1392341Y696809D01*
X1294130Y676020D02*
X1294502Y676392D01*
X1315668D01*
X1316186Y676910D01*
X1334770D01*
X1311910Y680150D02*
X1315668Y676392D01*
X1311910Y680150D02*
Y703580D01*
X1228090Y675640D02*
X1229315Y676865D01*
Y691645D01*
X1238250Y700580D01*
Y703580D01*
X1385582Y751592D02*
Y776098D01*
X1385570Y751580D02*
X1385582Y751592D01*
X1185997Y846531D02*
X1186109Y846419D01*
Y824310D02*
Y846419D01*
X1185969Y802720D02*
Y824170D01*
X1186109Y824310D01*
X1156970Y800100D02*
X1183349D01*
X1185969Y802720D01*
X1217700Y455268D02*
X1219188Y453780D01*
X1236160D01*
X1217700Y455268D02*
Y468504D01*
X1142476Y543728D02*
X1217700Y468504D01*
X1212620Y455268D02*
Y466400D01*
X1211132Y453780D02*
X1212620Y455268D01*
X1194160Y453780D02*
X1211132D01*
X1256897Y441093D02*
X1278160Y419830D01*
X1255432Y520700D02*
Y547171D01*
X1144726Y677787D02*
X1147706Y680767D01*
X1140746Y684847D02*
X1142234Y683359D01*
X1145114D02*
X1147706Y680767D01*
X1140746Y684847D02*
Y692958D01*
X1142234Y683359D02*
X1145114D01*
X1128706Y680767D02*
X1131298Y683359D01*
X1134178D02*
X1135666Y684847D01*
Y695062D01*
X1131298Y683359D02*
X1134178D01*
X1140746Y692958D02*
Y708741D01*
X1142234Y710229D01*
X1128706D02*
X1134178D01*
X1135666Y695062D02*
X1135666Y695062D01*
X1134178Y710229D02*
X1135666Y708741D01*
X1140746Y692958D02*
X1140746Y692958D01*
X1142234Y710229D02*
X1147706D01*
X1135666Y695062D02*
Y708741D01*
X1147706Y710229D02*
X1150706Y713229D01*
X1133436Y545584D02*
X1212620Y466400D01*
X1133436Y545584D02*
Y624420D01*
X1142476Y543728D02*
Y624420D01*
X1146706Y628650D01*
X1129206D02*
X1133436Y624420D01*
X1107777Y628650D02*
X1129206D01*
X1146706D02*
X1168400D01*
X1125706Y713229D02*
X1128706Y710229D01*
X865630Y512320D02*
X867410Y510540D01*
X1095400D01*
X865630Y512320D02*
Y527810D01*
X867410Y529590D01*
X890090D01*
X852010Y602872D02*
X854928Y605790D01*
X847470Y502258D02*
X857348Y492380D01*
X838390Y498497D02*
X853587Y483300D01*
X842930Y651160D02*
X848360Y656590D01*
X816160Y453780D02*
X829310Y466930D01*
X842930Y500378D02*
X855467Y487840D01*
X838390Y498497D02*
Y679640D01*
X833850Y486950D02*
X853384Y467416D01*
X838390Y679640D02*
X840740Y681990D01*
X861090Y551210D02*
X864870Y554990D01*
X861090Y507900D02*
Y551210D01*
X847470Y502258D02*
Y628750D01*
X849910Y631190D01*
X856550Y506019D02*
X861109Y501460D01*
X861090Y507900D02*
X862990Y506000D01*
X856550Y506019D02*
Y576870D01*
X860070Y580390D01*
X852010Y504138D02*
Y602872D01*
Y504138D02*
X859229Y496920D01*
X842930Y500378D02*
Y651160D01*
X862990Y506000D02*
X1057940D01*
X983020Y496920D02*
X1026160Y453780D01*
X1095400Y510540D02*
X1152160Y453780D01*
X855467Y487840D02*
X908100D01*
X942160Y453780D01*
X857348Y492380D02*
X945560D01*
X984160Y453780D01*
X861109Y501460D02*
X1020480D01*
X1068160Y453780D01*
X859229Y496920D02*
X983020D01*
X1057940Y506000D02*
X1110160Y453780D01*
X853587Y483300D02*
X870640D01*
X900160Y453780D01*
X853384Y458556D02*
Y467416D01*
Y458556D02*
X858160Y453780D01*
X1168400Y605943D02*
Y628650D01*
Y605943D02*
X1168543Y605800D01*
X1107777Y605790D02*
Y628650D01*
X1131570Y791210D02*
Y800100D01*
X1135610Y771863D02*
Y787170D01*
X1131570Y791210D02*
X1135610Y787170D01*
X1127773Y760929D02*
X1134178D01*
X1135666Y762417D01*
X1142234Y760929D02*
X1148616D01*
X1144270Y791116D02*
Y800100D01*
X1135666Y762417D02*
Y771807D01*
X1140690Y773967D02*
Y787536D01*
X1148616Y760929D02*
X1151083Y758461D01*
X1140746Y762417D02*
Y773911D01*
Y762417D02*
X1142234Y760929D01*
X1135610Y771863D02*
X1135666Y771807D01*
X1140690Y787536D02*
X1144270Y791116D01*
X1140690Y773967D02*
X1140746Y773911D01*
X1125694Y758850D02*
X1127773Y760929D01*
X1151083Y758461D02*
X1151472Y758850D01*
X1173930D01*
X1103966D02*
X1125694D01*
X1005840Y1018610D02*
X1008650Y1021420D01*
X952500Y904240D02*
Y918210D01*
X921950Y969010D02*
X922150Y968810D01*
X881164Y969010D02*
X921950D01*
X871220Y959066D02*
X881164Y969010D01*
X880310Y981510D02*
X922150D01*
X871220Y990600D02*
X880310Y981510D01*
X919156Y965816D02*
X922150Y968810D01*
X919757Y983903D02*
X922150Y981510D01*
X855980Y1068960D02*
X878576D01*
X855980Y1084960D02*
X878576D01*
X889890Y1068960D02*
X904040Y1083110D01*
X922150D01*
X878576Y1068960D02*
X889890D01*
X891920Y1084960D02*
X902770Y1095810D01*
X922150D01*
X878576Y1084960D02*
X891920D01*
X1300940Y960560D02*
X1312430Y949070D01*
X1280922Y960560D02*
X1300940D01*
X1255750Y928090D02*
Y945388D01*
X1476912Y1029186D02*
X1500589D01*
X1500786Y1029382D01*
X1477133Y1050986D02*
X1500812D01*
X1476789Y1051329D02*
X1477133Y1050986D01*
X1476912Y1073579D02*
X1500812D01*
X1630512Y1032087D02*
X1630913Y1031686D01*
X1651298D01*
X1651281Y1053486D02*
X1651339Y1053544D01*
X1630512Y1053486D02*
X1651281D01*
X1630692Y1074649D02*
X1651230D01*
X1630512Y1074829D02*
X1630692Y1074649D01*
X1609512Y1032087D02*
X1609512Y1032087D01*
X1455912Y1029186D02*
X1455912Y1029186D01*
X1338362Y967740D02*
X1339850Y966252D01*
Y951230D02*
Y966252D01*
X1342390Y948690D02*
X1359960D01*
X1339850Y951230D02*
X1342390Y948690D01*
X1366230Y942420D02*
X1367480D01*
X1371460Y912959D02*
Y938440D01*
X1367480Y942420D02*
X1371460Y938440D01*
X1359960Y948690D02*
X1366230Y942420D01*
X1370370Y911869D02*
X1371460Y912959D01*
X1354710Y960940D02*
Y980440D01*
X1353960Y960190D02*
X1354710Y960940D01*
X1370710Y960940D02*
Y980440D01*
Y960940D02*
X1371460Y960190D01*
X1333360Y980440D02*
X1354710D01*
X1311630Y985560D02*
X1315860Y981330D01*
X1280922Y985560D02*
X1311630D01*
X1315860Y980440D02*
Y981330D01*
X1311228Y1019128D02*
X1316090D01*
X1305180Y1005460D02*
X1322070D01*
X1339850D01*
X1343280Y1019810D02*
X1344930Y1021460D01*
X1322070D02*
X1323720Y1019810D01*
X1343280D01*
X1316090Y1019128D02*
X1316990Y1020028D01*
X1555639Y392371D02*
X1564640Y383370D01*
X1482090Y311958D02*
Y345440D01*
X1483578Y310470D02*
X1493520D01*
X1482090Y311958D02*
X1483578Y310470D01*
X1498203Y348377D02*
X1627250D01*
X1485027D02*
X1498203D01*
X1482090Y345440D02*
X1485027Y348377D01*
X1627250D02*
X1627693D01*
X1494442Y352138D02*
X1498203Y348377D01*
X1494442Y352138D02*
Y388687D01*
Y409687D02*
X1515290D01*
X1515474Y409871D01*
X1515422Y331470D02*
X1515474Y331418D01*
X1493520Y331470D02*
X1515422D01*
X1669910Y379730D02*
Y406400D01*
X1712043Y336467D02*
X1714500Y334010D01*
X1697084Y336467D02*
X1712043D01*
X1714500Y317585D02*
Y334010D01*
X1700894Y316097D02*
X1713012D01*
X1714500Y317585D01*
X1008650Y1004610D02*
Y1018610D01*
X994650D02*
X1005840D01*
X1008650Y1021420D02*
Y1032610D01*
X980650Y1004610D02*
Y1018610D01*
Y1032610D01*
X994650Y1004610D02*
Y1018610D01*
Y1032610D01*
X980650Y1018610D02*
X994650D01*
X864870Y554990D02*
X890090D01*
X1449070Y491998D02*
X1474352Y517280D01*
X1503680D01*
X1449070Y488125D02*
Y491998D01*
X1426210Y600710D02*
X1447410D01*
X1470660Y600710D02*
X1493030D01*
X1447410Y600710D02*
X1447800Y600320D01*
X1493030Y600710D02*
X1493520Y601200D01*
X1408430Y494030D02*
Y514350D01*
X1408040Y514740D02*
X1453270D01*
X1461770Y523240D01*
X1408040Y514740D02*
X1408430Y514350D01*
X1408040Y514740D02*
Y535940D01*
X1461770Y523240D02*
Y540575D01*
X854928Y605790D02*
X890090D01*
X848360Y656590D02*
X890090D01*
X849910Y631190D02*
X890090D01*
D20*
X1265750Y945388D02*
D03*
X1260750D02*
D03*
X1255750D02*
D03*
X1250750D02*
D03*
X1245750D02*
D03*
X1240750D02*
D03*
X1235750D02*
D03*
X1230750D02*
D03*
X1225750D02*
D03*
X1220750D02*
D03*
X1215750D02*
D03*
X1210750D02*
D03*
Y1030732D02*
D03*
X1215750D02*
D03*
X1220750D02*
D03*
X1225750D02*
D03*
X1230750D02*
D03*
X1235750D02*
D03*
X1240750D02*
D03*
X1245750D02*
D03*
X1250750D02*
D03*
X1255750D02*
D03*
X1260750D02*
D03*
X1265750D02*
D03*
D21*
X1195578Y960560D02*
D03*
Y965560D02*
D03*
Y970560D02*
D03*
Y975560D02*
D03*
Y980560D02*
D03*
Y985560D02*
D03*
Y990560D02*
D03*
Y995560D02*
D03*
Y1000560D02*
D03*
Y1005560D02*
D03*
Y1010560D02*
D03*
Y1015560D02*
D03*
X1280922D02*
D03*
Y1010560D02*
D03*
Y1005560D02*
D03*
Y1000560D02*
D03*
Y995560D02*
D03*
Y990560D02*
D03*
Y985560D02*
D03*
Y980560D02*
D03*
Y975560D02*
D03*
Y970560D02*
D03*
Y965560D02*
D03*
Y960560D02*
D03*
D23*
X1008650Y1004610D02*
D03*
X994650D02*
D03*
X980650D02*
D03*
X1008650Y1018610D02*
D03*
X994650D02*
D03*
X980650D02*
D03*
X1008650Y1032610D02*
D03*
X994650D02*
D03*
X980650D02*
D03*
D24*
X1066800Y918210D02*
D03*
X1054100D02*
D03*
X1041400D02*
D03*
X1028700D02*
D03*
X1016000D02*
D03*
X1003300D02*
D03*
X990600D02*
D03*
X977900D02*
D03*
X965200D02*
D03*
X952500D02*
D03*
D25*
X1097150Y1095810D02*
D03*
Y1083110D02*
D03*
Y1070410D02*
D03*
Y1057710D02*
D03*
Y1045010D02*
D03*
Y1032310D02*
D03*
Y1019610D02*
D03*
Y1006910D02*
D03*
Y994210D02*
D03*
Y981510D02*
D03*
Y968810D02*
D03*
Y956110D02*
D03*
Y943410D02*
D03*
Y930710D02*
D03*
X922150D02*
D03*
Y943410D02*
D03*
Y956110D02*
D03*
Y968810D02*
D03*
Y981510D02*
D03*
Y994210D02*
D03*
Y1006910D02*
D03*
Y1019610D02*
D03*
Y1032310D02*
D03*
Y1045010D02*
D03*
Y1057710D02*
D03*
Y1070410D02*
D03*
Y1083110D02*
D03*
Y1095810D02*
D03*
D27*
X804090Y529590D02*
D03*
Y554990D02*
D03*
Y580390D02*
D03*
Y605790D02*
D03*
Y631190D02*
D03*
Y656590D02*
D03*
Y681990D02*
D03*
Y707390D02*
D03*
Y732790D02*
D03*
Y758190D02*
D03*
X890090D02*
D03*
Y732790D02*
D03*
Y707390D02*
D03*
Y681990D02*
D03*
Y656590D02*
D03*
Y631190D02*
D03*
Y605790D02*
D03*
Y580390D02*
D03*
Y554990D02*
D03*
Y529590D02*
D03*
D30*
X1150706Y758729D02*
D03*
X1125706D02*
D03*
Y713229D02*
D03*
X1150706D02*
D03*
D34*
X1473835Y274320D02*
D03*
X1500505D02*
D03*
D35*
X1564640Y383370D02*
D03*
Y330370D02*
D03*
D36*
X991870Y610870D02*
D03*
Y624840D02*
D03*
X973836Y617855D02*
D03*
X991870Y692150D02*
D03*
Y706120D02*
D03*
X973836Y699135D02*
D03*
X973963Y579120D02*
D03*
X991997Y586105D02*
D03*
Y572135D02*
D03*
X991870Y651510D02*
D03*
Y665480D02*
D03*
X973836Y658495D02*
D03*
Y739775D02*
D03*
X991870Y746760D02*
D03*
Y732790D02*
D03*
X973836Y780415D02*
D03*
X991870Y787400D02*
D03*
Y773430D02*
D03*
X973836Y861695D02*
D03*
X991870Y868680D02*
D03*
Y854710D02*
D03*
X973836Y821055D02*
D03*
X991870Y828040D02*
D03*
Y814070D02*
D03*
D37*
X1700894Y316097D02*
D03*
Y306597D02*
D03*
Y297097D02*
D03*
X1678889D02*
D03*
Y306597D02*
D03*
D38*
Y316097D02*
D03*
D39*
X1280443Y584953D02*
D03*
X1294413D02*
D03*
X1287428Y602987D02*
D03*
D40*
X1385570Y703580D02*
D03*
Y751580D02*
D03*
X1311910Y703580D02*
D03*
Y751580D02*
D03*
X1238250Y703580D02*
D03*
Y751580D02*
D03*
D41*
X1147706Y680767D02*
D03*
X1128706D02*
D03*
X1138206Y660767D02*
D03*
D42*
X1156970Y848372D02*
D03*
D43*
X1144270D02*
D03*
X1131570D02*
D03*
X1118870D02*
D03*
Y800100D02*
D03*
X1131570D02*
D03*
X1144270D02*
D03*
X1156970D02*
D03*
D44*
X1371460Y937190D02*
D03*
Y960190D02*
D03*
X1353960D02*
D03*
Y937190D02*
D03*
D46*
X1474470Y540575D02*
D03*
X1461770D02*
D03*
X1449070D02*
D03*
X1436370D02*
D03*
Y488125D02*
D03*
X1449070D02*
D03*
X1461770D02*
D03*
X1474470D02*
D03*
D50*
X815971Y457067D02*
D03*
X857971D02*
D03*
X899971D02*
D03*
X941971D02*
D03*
X983971D02*
D03*
X1025971D02*
D03*
X1067971D02*
D03*
X1109971D02*
D03*
X1151971D02*
D03*
X1193971D02*
D03*
X1235971D02*
D03*
X1277971D02*
D03*
X815971Y402067D02*
D03*
X857971D02*
D03*
X899971D02*
D03*
X941971D02*
D03*
X983971D02*
D03*
X1025971D02*
D03*
X1067971D02*
D03*
X1109971D02*
D03*
X1151971D02*
D03*
X1193971D02*
D03*
X1235971D02*
D03*
D51*
X1277971D02*
D03*
D52*
X815971Y329067D02*
D03*
X1277971D02*
D03*
D53*
X1283970Y806450D02*
D03*
Y831850D02*
D03*
X1309370Y806450D02*
D03*
Y831850D02*
D03*
X1334770Y806450D02*
D03*
Y831850D02*
D03*
X1360170Y806450D02*
D03*
Y831850D02*
D03*
X1385570Y806450D02*
D03*
Y831850D02*
D03*
X1410970Y806450D02*
D03*
Y831850D02*
D03*
D54*
X1382970Y397221D02*
D03*
D55*
Y337221D02*
D03*
D56*
X1429970Y367221D02*
D03*
D58*
X1455912Y1029186D02*
D03*
X1476912D02*
D03*
X1476912Y1073579D02*
D03*
X1455912D02*
D03*
X1476789Y1051329D02*
D03*
X1455789D02*
D03*
X1630512Y1032087D02*
D03*
X1609512D02*
D03*
X1630512Y1053486D02*
D03*
X1609512D02*
D03*
X1630512Y1074829D02*
D03*
X1609512D02*
D03*
D59*
X1562100Y845820D02*
D03*
X1301750Y1040130D02*
D03*
X1619358Y690535D02*
D03*
X1597114D02*
D03*
X1574800Y690880D02*
D03*
X1640522Y690133D02*
D03*
X1629410Y520700D02*
D03*
X1256030Y516890D02*
D03*
X1278890Y515620D02*
D03*
X1654810Y500380D02*
D03*
X1481604Y623439D02*
D03*
X1437087Y623439D02*
D03*
X871220Y959066D02*
D03*
Y990600D02*
D03*
X939847Y861695D02*
D03*
Y821055D02*
D03*
Y534670D02*
D03*
Y699135D02*
D03*
Y658495D02*
D03*
Y577215D02*
D03*
Y617855D02*
D03*
Y780415D02*
D03*
Y739775D02*
D03*
X1249680Y676910D02*
D03*
X1334770D02*
D03*
X1412240D02*
D03*
X1107777Y628650D02*
D03*
X1168400D02*
D03*
X1103966Y758850D02*
D03*
X1173930D02*
D03*
X1357200Y447179D02*
D03*
Y426374D02*
D03*
Y469387D02*
D03*
D60*
X1530170Y798670D02*
D03*
Y793670D02*
D03*
Y788670D02*
D03*
Y783670D02*
D03*
X1571170Y798670D02*
D03*
Y793670D02*
D03*
Y778670D02*
D03*
Y783670D02*
D03*
Y788670D02*
D03*
X1530170Y778670D02*
D03*
D61*
X1599309Y735419D02*
D03*
Y752419D02*
D03*
X1578859Y735955D02*
D03*
Y752955D02*
D03*
X1641732Y735342D02*
D03*
Y752342D02*
D03*
X1620448Y735342D02*
D03*
Y752342D02*
D03*
X1606489Y527416D02*
D03*
Y544416D02*
D03*
X1016000Y587620D02*
D03*
Y570620D02*
D03*
X1038860Y625330D02*
D03*
Y608330D02*
D03*
X1016000Y665671D02*
D03*
Y648671D02*
D03*
X1038860Y665671D02*
D03*
Y648671D02*
D03*
X1016000Y608330D02*
D03*
Y625330D02*
D03*
X1038860Y706120D02*
D03*
Y689120D02*
D03*
X1016000Y706120D02*
D03*
Y689120D02*
D03*
X1038860Y747640D02*
D03*
Y730640D02*
D03*
Y587620D02*
D03*
Y570620D02*
D03*
X1016000Y747640D02*
D03*
Y730640D02*
D03*
X1038860Y544882D02*
D03*
Y527882D02*
D03*
X1016000Y544882D02*
D03*
Y527882D02*
D03*
X1038860Y867931D02*
D03*
Y850931D02*
D03*
Y828035D02*
D03*
Y811035D02*
D03*
X1016000Y828035D02*
D03*
Y811035D02*
D03*
Y867931D02*
D03*
Y850931D02*
D03*
Y786620D02*
D03*
Y769620D02*
D03*
X1038860Y786620D02*
D03*
Y769620D02*
D03*
X1276604Y564453D02*
D03*
Y547453D02*
D03*
X1255714Y564453D02*
D03*
Y547453D02*
D03*
X1234580Y564372D02*
D03*
Y547372D02*
D03*
X1213609Y564453D02*
D03*
Y547453D02*
D03*
X1192148Y564454D02*
D03*
Y547453D02*
D03*
X1318386Y547331D02*
D03*
Y564331D02*
D03*
X1297724Y547365D02*
D03*
Y564366D02*
D03*
X1392341Y659002D02*
D03*
Y676002D02*
D03*
X1315668Y659392D02*
D03*
Y676392D02*
D03*
X1526618Y481128D02*
D03*
Y498128D02*
D03*
X1573530Y528710D02*
D03*
Y545710D02*
D03*
X1643380Y561730D02*
D03*
Y578730D02*
D03*
X1503680Y534280D02*
D03*
Y517280D02*
D03*
X1470660Y600710D02*
D03*
Y583710D02*
D03*
X1426210Y600710D02*
D03*
Y583710D02*
D03*
X1447800Y583320D02*
D03*
Y600320D02*
D03*
X1493520Y584200D02*
D03*
Y601200D02*
D03*
X815340Y823450D02*
D03*
Y806450D02*
D03*
X870010Y823450D02*
D03*
Y806450D02*
D03*
X844035Y823450D02*
D03*
Y806450D02*
D03*
D62*
X1580270Y711200D02*
D03*
X1597270D02*
D03*
X1619640D02*
D03*
X1636640D02*
D03*
X1498600Y803910D02*
D03*
X1481600D02*
D03*
X1498706Y783072D02*
D03*
X1481706D02*
D03*
X1610750Y783590D02*
D03*
X1627750D02*
D03*
X1585586Y598890D02*
D03*
X1568586D02*
D03*
X1391040Y494030D02*
D03*
X1408040D02*
D03*
X1391040Y514740D02*
D03*
X1408040D02*
D03*
Y535940D02*
D03*
X1391040D02*
D03*
X1606686Y598890D02*
D03*
X1623686D02*
D03*
D63*
X1145920Y876300D02*
D03*
X1129920D02*
D03*
X1370370Y911869D02*
D03*
X1354370D02*
D03*
X1627250Y377190D02*
D03*
X1611250D02*
D03*
X1611358Y804780D02*
D03*
X1627358D02*
D03*
X1370710Y980440D02*
D03*
X1354710D02*
D03*
X1164210Y938530D02*
D03*
X1180210D02*
D03*
X1267080Y915670D02*
D03*
X1283080D02*
D03*
X1208530Y1109980D02*
D03*
X1192530D02*
D03*
X1208150Y1085850D02*
D03*
X1192150D02*
D03*
X1697084Y336467D02*
D03*
X1681084D02*
D03*
X1441541Y465797D02*
D03*
X1457540D02*
D03*
D64*
X1322070Y1021460D02*
D03*
Y1005460D02*
D03*
X878576Y1068960D02*
D03*
Y1084960D02*
D03*
X855980Y1068960D02*
D03*
Y1084960D02*
D03*
X1370813Y659409D02*
D03*
Y675409D02*
D03*
X1294130Y660020D02*
D03*
Y676020D02*
D03*
X1228090Y659640D02*
D03*
Y675640D02*
D03*
X1168543Y589800D02*
D03*
Y605800D02*
D03*
X1107777Y589790D02*
D03*
Y605790D02*
D03*
X1246221Y894134D02*
D03*
Y910134D02*
D03*
X1229360Y1105280D02*
D03*
Y1089280D02*
D03*
X1344930Y1005460D02*
D03*
Y1021460D02*
D03*
X1313180Y933070D02*
D03*
Y949070D02*
D03*
X1504406Y481628D02*
D03*
Y497628D02*
D03*
X1666240Y562230D02*
D03*
Y578230D02*
D03*
X1618836Y297087D02*
D03*
Y313087D02*
D03*
X1644027Y297087D02*
D03*
Y313087D02*
D03*
D65*
X1672730Y273050D02*
D03*
X1690230D02*
D03*
X1146706Y628650D02*
D03*
X1129206D02*
D03*
X1186109Y824310D02*
D03*
X1203609D02*
D03*
X1185969Y802720D02*
D03*
X1203469D02*
D03*
X1203497Y846531D02*
D03*
X1185997D02*
D03*
X1525550Y867410D02*
D03*
X1543050D02*
D03*
X1542910Y844277D02*
D03*
X1525410D02*
D03*
X1500812Y1073579D02*
D03*
X1518312D02*
D03*
X1500812Y1050986D02*
D03*
X1518312D02*
D03*
X1500786Y1029382D02*
D03*
X1518286D02*
D03*
X1651298Y1031686D02*
D03*
X1668798D02*
D03*
X1651339Y1053544D02*
D03*
X1668839D02*
D03*
X1651230Y1074649D02*
D03*
X1668730D02*
D03*
X1333360Y980440D02*
D03*
X1315860D02*
D03*
X1672450Y377190D02*
D03*
X1654950D02*
D03*
X1669910Y405130D02*
D03*
X1652410D02*
D03*
D66*
X1565910Y432930D02*
D03*
Y415430D02*
D03*
X1515474Y409871D02*
D03*
Y392371D02*
D03*
Y331418D02*
D03*
Y313918D02*
D03*
D67*
X1494442Y409687D02*
D03*
Y388687D02*
D03*
X1493520Y331470D02*
D03*
Y310470D02*
D03*
D68*
X1615186Y581110D02*
D03*
X1624686Y561110D02*
D03*
X1605686D02*
D03*
X1576476D02*
D03*
X1566976Y581110D02*
D03*
X1585976D02*
D03*
D69*
X996250Y525170D02*
D03*
Y544170D02*
D03*
X972250Y534670D02*
D03*
D70*
X1678884Y306593D02*
X1678889Y306597D01*
X1662532Y306466D02*
X1662659Y306593D01*
X1678884D01*
X1647037Y316097D02*
X1678889D01*
D71*
X784860Y468307D02*
Y771052D01*
X811936Y798128D01*
X784860Y440690D02*
X800100Y425450D01*
X784860Y440690D02*
Y468307D01*
X804048Y487495D01*
X1172210Y425450D02*
X1194160Y403500D01*
X811936Y798128D02*
Y803046D01*
X804048Y487495D02*
Y529548D01*
X800100Y425450D02*
X1172210D01*
D72*
X810567Y554990D02*
X821690Y566113D01*
Y567690D01*
X804090Y554990D02*
X810567D01*
X804090D02*
Y580390D01*
Y605790D01*
Y631190D01*
Y656590D01*
Y681990D01*
Y707390D01*
Y732790D01*
Y758190D01*
X803853Y758427D02*
Y770738D01*
D73*
X1563160Y433930D02*
X1564160Y432930D01*
X1567660D02*
X1568660Y433930D01*
X1565910Y432930D02*
X1567660D01*
D74*
X1627250Y314070D02*
Y348377D01*
Y377190D01*
X1618836Y313087D02*
X1644027D01*
D75*
X1647037Y316097D01*
D76*
X1628520Y377190D02*
X1652410D01*
D77*
X1263650Y999490D02*
D03*
X1225179Y975654D02*
D03*
X1241260Y975178D02*
D03*
X1254737Y962303D02*
D03*
X1717040Y273050D02*
D03*
Y307340D02*
D03*
X1426210Y567690D02*
D03*
X1492250D02*
D03*
X1276289Y530682D02*
D03*
X1138300Y646438D02*
D03*
X1168693Y569140D02*
D03*
X1107515Y568859D02*
D03*
X1624832Y545333D02*
D03*
X1690209Y562749D02*
D03*
X1370440Y642123D02*
D03*
X1392040Y642868D02*
D03*
X1315880Y643148D02*
D03*
X1294280Y642961D02*
D03*
X1550670Y787400D02*
D03*
X1220584Y823485D02*
D03*
X1219822Y846263D02*
D03*
X1210310Y659130D02*
D03*
X1456071Y1001709D02*
D03*
X1374435Y1005307D02*
D03*
X1662532Y306466D02*
D03*
X1192530Y1130300D02*
D03*
X1207770D02*
D03*
X1262356Y857390D02*
D03*
X1282948Y895121D02*
D03*
X1266840Y895800D02*
D03*
X1008380Y989330D02*
D03*
X1296670Y1065530D02*
D03*
X1241245Y1060368D02*
D03*
X1233830Y1054328D02*
D03*
X1254443Y1065931D02*
D03*
X1224280Y1049419D02*
D03*
X1236980Y928370D02*
D03*
X1168826Y969741D02*
D03*
X1196340Y938530D02*
D03*
X1136868Y974480D02*
D03*
X1124402Y973528D02*
D03*
X1121757Y916619D02*
D03*
X1098251Y868334D02*
D03*
X1092437Y827207D02*
D03*
X1087700Y786512D02*
D03*
X1081241Y748185D02*
D03*
X1075212Y706198D02*
D03*
X1068967Y666579D02*
D03*
X1062929Y624454D02*
D03*
X1050929Y545878D02*
D03*
X1056640Y586740D02*
D03*
X1177247Y991055D02*
D03*
X1149221Y916812D02*
D03*
X1455420Y1088490D02*
D03*
X1247140Y1106070D02*
D03*
X1210770Y1011300D02*
D03*
X1225762Y1015464D02*
D03*
X1251109Y1010205D02*
D03*
X988060Y955040D02*
D03*
X1540557Y1032510D02*
D03*
X1540869Y1076073D02*
D03*
X944880Y994410D02*
D03*
Y1019810D02*
D03*
X1540510Y1050290D02*
D03*
X1033780Y1062990D02*
D03*
X944880Y1032510D02*
D03*
X1609090Y1007110D02*
D03*
Y1093470D02*
D03*
X1509206Y802790D02*
D03*
X1510030Y783590D02*
D03*
X1525307Y829916D02*
D03*
X1474470Y822960D02*
D03*
X1712845Y1076632D02*
D03*
X1700367Y1055186D02*
D03*
X1688594Y1033339D02*
D03*
X1322070Y1033150D02*
D03*
X1344930D02*
D03*
X1283970Y1065530D02*
D03*
X1221740Y961390D02*
D03*
X1313180Y919480D02*
D03*
X1342173Y912020D02*
D03*
X1150620Y938530D02*
D03*
X1222468Y913858D02*
D03*
X1229622Y922317D02*
D03*
X1149149Y984250D02*
D03*
X1154669Y994294D02*
D03*
X1168400Y1023620D02*
D03*
X1156970Y1010920D02*
D03*
X1385500Y960190D02*
D03*
X1296670Y948690D02*
D03*
X1342324Y937123D02*
D03*
X1525270Y883920D02*
D03*
X1482090Y765810D02*
D03*
X1611630Y820420D02*
D03*
X1390650Y601980D02*
D03*
X1238250Y777240D02*
D03*
X1234440Y614680D02*
D03*
X1192530Y659130D02*
D03*
X1228090Y642620D02*
D03*
X869950Y788670D02*
D03*
X843581Y788536D02*
D03*
X844521Y840436D02*
D03*
X1441450Y452750D02*
D03*
X1640610Y669130D02*
D03*
X1619567Y668757D02*
D03*
X1597901Y669130D02*
D03*
X1575238D02*
D03*
X1536700Y447040D02*
D03*
X1583690D02*
D03*
X1598930D02*
D03*
X1549400D02*
D03*
X1357630Y514350D02*
D03*
X1591310Y435610D02*
D03*
X1145540Y890270D02*
D03*
X1130300D02*
D03*
X878840Y1054100D02*
D03*
X854710D02*
D03*
X836930Y1084580D02*
D03*
X1559560Y528320D02*
D03*
X1550796Y281221D02*
D03*
X1550860Y266532D02*
D03*
X1574969Y281422D02*
D03*
X1574990Y266532D02*
D03*
X1602428Y274891D02*
D03*
X1626558D02*
D03*
X1527810Y266700D02*
D03*
X1527525Y280619D02*
D03*
X1488440Y487680D02*
D03*
X821690Y567690D02*
D03*
X1612900Y500380D02*
D03*
X1335214Y469424D02*
D03*
X1542760Y434700D02*
D03*
X1555750Y581660D02*
D03*
X1626870Y820420D02*
D03*
X1559560Y867410D02*
D03*
X1270000Y1065530D02*
D03*
X980440Y1049020D02*
D03*
X1008380D02*
D03*
X980440Y989330D02*
D03*
X1304290Y585470D02*
D03*
X991997Y598043D02*
D03*
X991870Y638810D02*
D03*
Y679450D02*
D03*
Y720090D02*
D03*
Y760730D02*
D03*
Y801370D02*
D03*
Y840740D02*
D03*
Y880110D02*
D03*
X1334909Y447179D02*
D03*
X1306440Y453780D02*
D03*
X803853Y770738D02*
D03*
X1311910Y775970D02*
D03*
X1385582Y776098D02*
D03*
X952500Y904240D02*
D03*
X1627693Y334407D02*
D03*
Y361077D02*
D03*
X1663700Y336550D02*
D03*
X1627693Y348377D02*
D03*
X1569273Y306046D02*
D03*
X1651421Y336550D02*
D03*
X1553037Y305899D02*
D03*
M02*
