G04*
G04 #@! TF.GenerationSoftware,Altium Limited,Altium Designer,24.6.1 (21)*
G04*
G04 Layer_Color=65535*
%FSLAX44Y44*%
%MOMM*%
G71*
G04*
G04 #@! TF.SameCoordinates,533720E8-7120-4541-8755-C975A74632B4*
G04*
G04*
G04 #@! TF.FilePolarity,Positive*
G04*
G01*
G75*
%ADD10C,0.1000*%
%ADD11C,0.2500*%
%ADD12C,0.1524*%
%ADD13C,0.5080*%
%ADD14C,0.2540*%
%ADD15C,0.2000*%
%ADD16C,0.0762*%
%ADD17R,0.2000X1.2000*%
%ADD18R,1.2000X0.2000*%
G36*
X1223845Y933958D02*
X1227655D01*
Y931418D01*
X1223845D01*
Y933958D01*
D02*
G37*
G36*
X1184148Y988655D02*
X1181608D01*
Y992465D01*
X1184148D01*
Y988655D01*
D02*
G37*
G36*
X1228845Y1042162D02*
X1232655D01*
Y1044702D01*
X1228845D01*
Y1042162D01*
D02*
G37*
G36*
X1292352Y1003655D02*
X1294892D01*
Y1007465D01*
X1292352D01*
Y1003655D01*
D02*
G37*
D10*
X1569600Y845820D02*
G03*
X1569600Y845820I-7500J0D01*
G01*
X1309250Y1040130D02*
G03*
X1309250Y1040130I-7500J0D01*
G01*
X1626858Y690535D02*
G03*
X1626858Y690535I-7500J0D01*
G01*
X1604614D02*
G03*
X1604614Y690535I-7500J0D01*
G01*
X1582300Y690880D02*
G03*
X1582300Y690880I-7500J0D01*
G01*
X1648022Y690133D02*
G03*
X1648022Y690133I-7500J0D01*
G01*
X1636910Y520700D02*
G03*
X1636910Y520700I-7500J0D01*
G01*
X1263530Y516890D02*
G03*
X1263530Y516890I-7500J0D01*
G01*
X1286390Y515620D02*
G03*
X1286390Y515620I-7500J0D01*
G01*
X1662310Y500380D02*
G03*
X1662310Y500380I-7500J0D01*
G01*
X1489104Y623439D02*
G03*
X1489104Y623439I-7500J0D01*
G01*
X1444587Y623439D02*
G03*
X1444587Y623439I-7500J0D01*
G01*
X878720Y959066D02*
G03*
X878720Y959066I-7500J0D01*
G01*
Y990600D02*
G03*
X878720Y990600I-7500J0D01*
G01*
X947347Y861695D02*
G03*
X947347Y861695I-7500J0D01*
G01*
Y821055D02*
G03*
X947347Y821055I-7500J0D01*
G01*
Y534670D02*
G03*
X947347Y534670I-7500J0D01*
G01*
Y699135D02*
G03*
X947347Y699135I-7500J0D01*
G01*
Y658495D02*
G03*
X947347Y658495I-7500J0D01*
G01*
Y577215D02*
G03*
X947347Y577215I-7500J0D01*
G01*
Y617855D02*
G03*
X947347Y617855I-7500J0D01*
G01*
Y780415D02*
G03*
X947347Y780415I-7500J0D01*
G01*
Y739775D02*
G03*
X947347Y739775I-7500J0D01*
G01*
X1257180Y676910D02*
G03*
X1257180Y676910I-7500J0D01*
G01*
X1342270D02*
G03*
X1342270Y676910I-7500J0D01*
G01*
X1419740D02*
G03*
X1419740Y676910I-7500J0D01*
G01*
X1115277Y628650D02*
G03*
X1115277Y628650I-7500J0D01*
G01*
X1175900D02*
G03*
X1175900Y628650I-7500J0D01*
G01*
X1111466Y758850D02*
G03*
X1111466Y758850I-7500J0D01*
G01*
X1181430D02*
G03*
X1181430Y758850I-7500J0D01*
G01*
X1364700Y447179D02*
G03*
X1364700Y447179I-7500J0D01*
G01*
Y426374D02*
G03*
X1364700Y426374I-7500J0D01*
G01*
Y469387D02*
G03*
X1364700Y469387I-7500J0D01*
G01*
D11*
X1531420Y805670D02*
G03*
X1531420Y805670I-1250J0D01*
G01*
X910400Y1095810D02*
G03*
X910400Y1095810I-1250J0D01*
G01*
X1318121Y402067D02*
G03*
X1318121Y402067I-1250J0D01*
G01*
X1152206Y771729D02*
G03*
X1152206Y771729I-1250J0D01*
G01*
X1565890Y400620D02*
G03*
X1565890Y400620I-1250J0D01*
G01*
X1384220Y411721D02*
G03*
X1384220Y411721I-1250J0D01*
G01*
X1666641Y316097D02*
G03*
X1666641Y316097I-1250J0D01*
G01*
X1158220Y866218D02*
G03*
X1158220Y866218I-1250J0D01*
G01*
X1372710Y924940D02*
G03*
X1372710Y924940I-1250J0D01*
G01*
X1597436Y561110D02*
G03*
X1597436Y561110I-1250J0D01*
G01*
X1596726Y581110D02*
G03*
X1596726Y581110I-1250J0D01*
G01*
X997500Y515670D02*
G03*
X997500Y515670I-1250J0D01*
G01*
D12*
X918919Y529590D02*
G03*
X918919Y529590I-762J0D01*
G01*
X995172Y594106D02*
G03*
X995172Y594106I-1270J0D01*
G01*
Y675386D02*
G03*
X995172Y675386I-1270J0D01*
G01*
X995299Y555371D02*
G03*
X995299Y555371I-1270J0D01*
G01*
X995172Y634746D02*
G03*
X995172Y634746I-1270J0D01*
G01*
Y716026D02*
G03*
X995172Y716026I-1270J0D01*
G01*
Y756666D02*
G03*
X995172Y756666I-1270J0D01*
G01*
Y837946D02*
G03*
X995172Y837946I-1270J0D01*
G01*
Y797306D02*
G03*
X995172Y797306I-1270J0D01*
G01*
X1264949Y582921D02*
G03*
X1264949Y582921I-1270J0D01*
G01*
X1200912Y950722D02*
Y955836D01*
Y1025398D02*
X1206026D01*
X1275588Y1020284D02*
Y1025398D01*
X1200912Y950722D02*
X1206026D01*
X1200912Y1020284D02*
Y1025398D01*
X1270474D02*
X1275588D01*
Y950722D02*
Y955836D01*
X1270474Y950722D02*
X1275588D01*
X811022Y508254D02*
Y519913D01*
Y539267D02*
Y545313D01*
Y564667D02*
Y570713D01*
Y590067D02*
Y596113D01*
Y615467D02*
Y621513D01*
Y640867D02*
Y646913D01*
Y666267D02*
Y672313D01*
Y691667D02*
Y697713D01*
Y717067D02*
Y723113D01*
Y742467D02*
Y748513D01*
X883158Y767867D02*
Y779526D01*
Y742467D02*
Y748513D01*
Y717067D02*
Y723113D01*
Y691667D02*
Y697713D01*
Y666267D02*
Y672313D01*
Y640867D02*
Y646913D01*
Y615467D02*
Y621513D01*
Y590067D02*
Y596113D01*
Y564667D02*
Y570713D01*
Y539267D02*
Y545313D01*
Y508254D02*
Y519913D01*
X811022Y508254D02*
X883158D01*
X811022Y767867D02*
Y779526D01*
X883158D01*
X1318964Y805180D02*
X1325176D01*
X1344364D02*
X1350576D01*
X1369764D02*
X1375976D01*
X1395164D02*
X1401376D01*
X1420564D02*
X1424940D01*
Y858520D01*
X1270000Y805180D02*
X1274376D01*
X1270000D02*
Y858520D01*
X1424940D01*
X1293564Y805180D02*
X1299776D01*
X974852Y605536D02*
Y612242D01*
X990854Y616483D02*
Y619227D01*
X974852Y630174D02*
X984947D01*
X974852Y623468D02*
Y630174D01*
Y605536D02*
X984947D01*
X974852Y686816D02*
Y693522D01*
X990854Y697763D02*
Y700507D01*
X974852Y711454D02*
X984947D01*
X974852Y704748D02*
Y711454D01*
Y686816D02*
X984947D01*
X974979Y566801D02*
X985074D01*
X974979Y584733D02*
Y591439D01*
X985074D01*
X990981Y577748D02*
Y580492D01*
X974979Y566801D02*
Y573507D01*
X974852Y646176D02*
Y652882D01*
X990854Y657123D02*
Y659867D01*
X974852Y670814D02*
X984947D01*
X974852Y664108D02*
Y670814D01*
Y646176D02*
X984947D01*
X974852Y727456D02*
X984947D01*
X974852Y745388D02*
Y752094D01*
X984947D01*
X990854Y738403D02*
Y741147D01*
X974852Y727456D02*
Y734162D01*
Y768096D02*
X984947D01*
X974852Y786028D02*
Y792734D01*
X984947D01*
X990854Y779043D02*
Y781787D01*
X974852Y768096D02*
Y774802D01*
Y849376D02*
X984947D01*
X974852Y867308D02*
Y874014D01*
X984947D01*
X990854Y860323D02*
Y863067D01*
X974852Y849376D02*
Y856082D01*
Y808736D02*
X984947D01*
X974852Y826668D02*
Y833374D01*
X984947D01*
X990854Y819683D02*
Y822427D01*
X974852Y808736D02*
Y815442D01*
X1275109Y601971D02*
X1281815D01*
X1286057Y585969D02*
X1288800D01*
X1299747Y591876D02*
Y601971D01*
X1293042D02*
X1299747D01*
X1275109Y591876D02*
Y601971D01*
X1429131Y493141D02*
Y535559D01*
X1481709Y493141D02*
Y535559D01*
D13*
X1414780Y850900D02*
G03*
X1414780Y850900I-3810J0D01*
G01*
D14*
X1461989Y1093523D02*
X1503929D01*
X1461989Y1115824D02*
X1503929D01*
Y1093523D02*
Y1115824D01*
X1461989Y1093523D02*
Y1115824D01*
X1211758Y689610D02*
Y776632D01*
X1187949Y689610D02*
Y776632D01*
X1211758D01*
X1187949Y689610D02*
X1211758D01*
X1428750Y414020D02*
Y480060D01*
X1343660Y414020D02*
Y480060D01*
X1428750D01*
X1343660Y414020D02*
X1428750D01*
X1452328Y350681D02*
X1524889D01*
X1452328Y373267D02*
X1524889D01*
Y350681D02*
Y373267D01*
X1452328Y350681D02*
Y373267D01*
X911860Y476269D02*
Y500221D01*
X835428Y476269D02*
Y500221D01*
X911860D01*
X835428Y476269D02*
X911860D01*
X1374856Y1016736D02*
X1440127D01*
X1374856Y1087856D02*
X1440127D01*
Y1016736D02*
Y1087856D01*
X1374856Y1016736D02*
Y1087856D01*
X1618093Y1094294D02*
X1660033D01*
X1618093Y1116330D02*
X1660033D01*
Y1094294D02*
Y1116330D01*
X1618093Y1094294D02*
Y1116330D01*
X1450395Y422590D02*
X1524835D01*
X1450395Y444940D02*
X1524835D01*
Y422590D02*
Y444940D01*
X1450395Y422590D02*
Y444940D01*
X1531520Y1018540D02*
X1596792D01*
X1531520Y1089660D02*
X1596792D01*
Y1018540D02*
Y1089660D01*
X1531520Y1018540D02*
Y1089660D01*
X1475724Y880550D02*
X1596196D01*
X1475724Y904359D02*
X1596196D01*
Y880550D02*
Y904359D01*
X1475724Y880550D02*
Y904359D01*
X1286688Y689610D02*
Y777902D01*
X1262879Y689610D02*
Y777902D01*
X1286688D01*
X1262879Y689610D02*
X1286688D01*
X1360050Y688680D02*
Y785328D01*
X1336241Y688680D02*
Y785328D01*
X1360050D01*
X1336241Y688680D02*
X1360050D01*
X1591310Y265608D02*
Y289560D01*
X1534346Y265608D02*
Y289560D01*
X1591310D01*
X1534346Y265608D02*
X1591310D01*
X1306146Y864202D02*
X1421130D01*
X1306146Y890270D02*
X1421130D01*
Y864202D02*
Y890270D01*
X1306146Y864202D02*
Y890270D01*
X1374955Y1064996D02*
X1439725D01*
X1375217Y1041534D02*
X1439987D01*
X1531882Y1043338D02*
X1596652D01*
X1531620Y1066800D02*
X1596390D01*
X1454840Y433852D02*
X1464171D01*
X1459505Y438517D02*
Y429187D01*
X1468836Y438517D02*
X1471168Y440850D01*
X1475833D01*
X1478166Y438517D01*
Y436184D01*
X1475833Y433852D01*
X1473501D01*
X1475833D01*
X1478166Y431519D01*
Y429187D01*
X1475833Y426854D01*
X1471168D01*
X1468836Y429187D01*
X1482831Y426854D02*
Y429187D01*
X1485164D01*
Y426854D01*
X1482831D01*
X1494494Y438517D02*
X1496827Y440850D01*
X1501492D01*
X1503824Y438517D01*
Y436184D01*
X1501492Y433852D01*
X1499159D01*
X1501492D01*
X1503824Y431519D01*
Y429187D01*
X1501492Y426854D01*
X1496827D01*
X1494494Y429187D01*
X1508490Y440850D02*
Y431519D01*
X1513155Y426854D01*
X1517820Y431519D01*
Y440850D01*
X908055Y710567D02*
Y718184D01*
X911864Y721993D01*
X915673Y718184D01*
Y710567D01*
Y716280D01*
X908055D01*
X919481Y721993D02*
Y710567D01*
X925194D01*
X927099Y712471D01*
Y714376D01*
X925194Y716280D01*
X919481D01*
X925194D01*
X927099Y718184D01*
Y720089D01*
X925194Y721993D01*
X919481D01*
X938525Y720089D02*
X936621Y721993D01*
X932812D01*
X930908Y720089D01*
Y718184D01*
X932812Y716280D01*
X936621D01*
X938525Y714376D01*
Y712471D01*
X936621Y710567D01*
X932812D01*
X930908Y712471D01*
X842010Y482600D02*
Y494026D01*
X845819Y490218D01*
X849628Y494026D01*
Y482600D01*
X853436D02*
Y490218D01*
X857245Y494026D01*
X861054Y490218D01*
Y482600D01*
Y488313D01*
X853436D01*
X864863Y482600D02*
Y494026D01*
X872480Y482600D01*
Y494026D01*
X876289D02*
Y484504D01*
X878193Y482600D01*
X882002D01*
X883906Y484504D01*
Y494026D01*
X887715Y482600D02*
Y490218D01*
X891524Y494026D01*
X895333Y490218D01*
Y482600D01*
Y488313D01*
X887715D01*
X899142Y494026D02*
Y482600D01*
X906759D01*
X1549577Y283654D02*
X1541959D01*
Y277941D01*
X1545768D01*
X1541959D01*
Y272228D01*
X1553385Y283654D02*
Y274132D01*
X1555290Y272228D01*
X1559099D01*
X1561003Y274132D01*
Y283654D01*
X1572429Y281750D02*
X1570525Y283654D01*
X1566716D01*
X1564812Y281750D01*
Y279846D01*
X1566716Y277941D01*
X1570525D01*
X1572429Y276037D01*
Y274132D01*
X1570525Y272228D01*
X1566716D01*
X1564812Y274132D01*
X1583855Y283654D02*
X1576238D01*
Y272228D01*
X1583855D01*
X1576238Y277941D02*
X1580047D01*
X1461767Y361932D02*
X1471097D01*
X1466432Y366598D02*
Y357267D01*
X1475762Y354935D02*
X1480428D01*
X1478095D01*
Y368930D01*
X1475762Y366598D01*
X1496756Y354935D02*
X1487425D01*
X1496756Y364265D01*
Y366598D01*
X1494423Y368930D01*
X1489758D01*
X1487425Y366598D01*
X1501421Y368930D02*
Y359600D01*
X1506086Y354935D01*
X1510751Y359600D01*
Y368930D01*
X1310640Y883915D02*
Y872489D01*
X1316353D01*
X1318257Y874393D01*
Y882011D01*
X1316353Y883915D01*
X1310640D01*
X1322066Y872489D02*
X1325875D01*
X1323971D01*
Y880106D01*
X1322066D01*
X1333493D02*
X1337301D01*
X1339206Y878202D01*
Y872489D01*
X1333493D01*
X1331588Y874393D01*
X1333493Y876298D01*
X1339206D01*
X1346823Y868680D02*
X1348728D01*
X1350632Y870584D01*
Y880106D01*
X1344919D01*
X1343015Y878202D01*
Y874393D01*
X1344919Y872489D01*
X1350632D01*
X1354441D02*
Y880106D01*
X1360154D01*
X1362058Y878202D01*
Y872489D01*
X1367772D02*
X1371580D01*
X1373485Y874393D01*
Y878202D01*
X1371580Y880106D01*
X1367772D01*
X1365867Y878202D01*
Y874393D01*
X1367772Y872489D01*
X1377294D02*
X1383007D01*
X1384911Y874393D01*
X1383007Y876298D01*
X1379198D01*
X1377294Y878202D01*
X1379198Y880106D01*
X1384911D01*
X1390624Y882011D02*
Y880106D01*
X1388720D01*
X1392529D01*
X1390624D01*
Y874393D01*
X1392529Y872489D01*
X1398242D02*
X1402050D01*
X1400146D01*
Y880106D01*
X1398242D01*
X1415381D02*
X1409668D01*
X1407764Y878202D01*
Y874393D01*
X1409668Y872489D01*
X1415381D01*
X1341124Y701038D02*
Y693420D01*
X1352550D01*
Y701038D01*
X1346837Y693420D02*
Y697229D01*
X1343028Y712464D02*
X1341124Y710559D01*
Y706751D01*
X1343028Y704846D01*
X1344933D01*
X1346837Y706751D01*
Y710559D01*
X1348741Y712464D01*
X1350646D01*
X1352550Y710559D01*
Y706751D01*
X1350646Y704846D01*
X1352550Y716273D02*
X1341124D01*
Y721986D01*
X1343028Y723890D01*
X1346837D01*
X1348741Y721986D01*
Y716273D01*
X1341124Y739125D02*
X1352550D01*
Y744838D01*
X1350646Y746743D01*
X1348741D01*
X1346837Y744838D01*
Y739125D01*
Y744838D01*
X1344933Y746743D01*
X1343028D01*
X1341124Y744838D01*
Y739125D01*
Y756265D02*
Y752456D01*
X1343028Y750552D01*
X1350646D01*
X1352550Y752456D01*
Y756265D01*
X1350646Y758169D01*
X1343028D01*
X1341124Y756265D01*
Y767691D02*
Y763882D01*
X1343028Y761978D01*
X1350646D01*
X1352550Y763882D01*
Y767691D01*
X1350646Y769595D01*
X1343028D01*
X1341124Y767691D01*
Y773404D02*
Y781022D01*
Y777213D01*
X1352550D01*
X1268734Y703577D02*
Y695960D01*
X1280160D01*
Y703577D01*
X1274447Y695960D02*
Y699769D01*
X1270638Y715004D02*
X1268734Y713100D01*
Y709291D01*
X1270638Y707386D01*
X1272542D01*
X1274447Y709291D01*
Y713100D01*
X1276351Y715004D01*
X1278256D01*
X1280160Y713100D01*
Y709291D01*
X1278256Y707386D01*
X1280160Y718813D02*
X1268734D01*
Y724526D01*
X1270638Y726430D01*
X1274447D01*
X1276351Y724526D01*
Y718813D01*
X1280160Y741665D02*
X1268734D01*
Y747378D01*
X1270638Y749283D01*
X1274447D01*
X1276351Y747378D01*
Y741665D01*
Y745474D02*
X1280160Y749283D01*
X1270638Y760709D02*
X1268734Y758805D01*
Y754996D01*
X1270638Y753092D01*
X1272542D01*
X1274447Y754996D01*
Y758805D01*
X1276351Y760709D01*
X1278256D01*
X1280160Y758805D01*
Y754996D01*
X1278256Y753092D01*
X1268734Y764518D02*
Y772135D01*
Y768327D01*
X1280160D01*
X1195708Y703577D02*
X1193804Y701673D01*
Y697864D01*
X1195708Y695960D01*
X1197613D01*
X1199517Y697864D01*
Y701673D01*
X1201421Y703577D01*
X1203326D01*
X1205230Y701673D01*
Y697864D01*
X1203326Y695960D01*
X1193804Y707386D02*
Y715004D01*
Y711195D01*
X1205230D01*
Y718813D02*
X1193804D01*
X1197613Y722621D01*
X1193804Y726430D01*
X1205230D01*
Y741665D02*
X1193804D01*
Y747378D01*
X1195708Y749283D01*
X1199517D01*
X1201421Y747378D01*
Y741665D01*
Y745474D02*
X1205230Y749283D01*
X1195708Y760709D02*
X1193804Y758805D01*
Y754996D01*
X1195708Y753092D01*
X1197613D01*
X1199517Y754996D01*
Y758805D01*
X1201421Y760709D01*
X1203326D01*
X1205230Y758805D01*
Y754996D01*
X1203326Y753092D01*
X1193804Y764518D02*
Y772135D01*
Y768327D01*
X1205230D01*
X900426Y795657D02*
Y799466D01*
X898522Y801370D01*
X890904D01*
X889000Y799466D01*
Y795657D01*
X890904Y793753D01*
X898522D01*
X900426Y795657D01*
Y782326D02*
Y789944D01*
X894713D01*
Y786135D01*
Y789944D01*
X889000D01*
X900426Y770900D02*
Y778517D01*
X894713D01*
Y774709D01*
Y778517D01*
X889000D01*
X803506Y790734D02*
Y794542D01*
X801601Y796447D01*
X793984D01*
X792080Y794542D01*
Y790734D01*
X793984Y788829D01*
X801601D01*
X803506Y790734D01*
X792080Y785021D02*
X803506D01*
X792080Y777403D01*
X803506D01*
X1474675Y1110449D02*
X1467057D01*
Y1099022D01*
X1474675D01*
X1467057Y1104735D02*
X1470866D01*
X1486101Y1108544D02*
X1484196Y1110449D01*
X1480388D01*
X1478483Y1108544D01*
Y1106640D01*
X1480388Y1104735D01*
X1484196D01*
X1486101Y1102831D01*
Y1100927D01*
X1484196Y1099022D01*
X1480388D01*
X1478483Y1100927D01*
X1489910Y1099022D02*
Y1110449D01*
X1495623D01*
X1497527Y1108544D01*
Y1104735D01*
X1495623Y1102831D01*
X1489910D01*
X1395730Y1082036D02*
X1403347D01*
X1399539D01*
Y1070610D01*
X1407156Y1082036D02*
X1414774Y1070610D01*
Y1082036D02*
X1407156Y1070610D01*
X1397000Y1047750D02*
Y1059176D01*
X1402713D01*
X1404617Y1057272D01*
Y1053463D01*
X1402713Y1051559D01*
X1397000D01*
X1400809D02*
X1404617Y1047750D01*
X1408426Y1059176D02*
X1416044Y1047750D01*
Y1059176D02*
X1408426Y1047750D01*
X1388767Y1035189D02*
X1381149D01*
Y1023763D01*
X1388767D01*
X1381149Y1029476D02*
X1384958D01*
X1392576Y1023763D02*
Y1035189D01*
X1398289D01*
X1400193Y1033285D01*
Y1029476D01*
X1398289Y1027571D01*
X1392576D01*
X1396384D02*
X1400193Y1023763D01*
X1404002D02*
Y1035189D01*
X1409715D01*
X1411619Y1033285D01*
Y1029476D01*
X1409715Y1027571D01*
X1404002D01*
X1407811D02*
X1411619Y1023763D01*
X1421141Y1035189D02*
X1417332D01*
X1415428Y1033285D01*
Y1025667D01*
X1417332Y1023763D01*
X1421141D01*
X1423046Y1025667D01*
Y1033285D01*
X1421141Y1035189D01*
X1426854Y1023763D02*
Y1035189D01*
X1432568D01*
X1434472Y1033285D01*
Y1029476D01*
X1432568Y1027571D01*
X1426854D01*
X1430663D02*
X1434472Y1023763D01*
X1545431Y1036993D02*
X1537814D01*
Y1025567D01*
X1545431D01*
X1537814Y1031280D02*
X1541623D01*
X1549240Y1025567D02*
Y1036993D01*
X1554953D01*
X1556858Y1035089D01*
Y1031280D01*
X1554953Y1029376D01*
X1549240D01*
X1553049D02*
X1556858Y1025567D01*
X1560667D02*
Y1036993D01*
X1566380D01*
X1568284Y1035089D01*
Y1031280D01*
X1566380Y1029376D01*
X1560667D01*
X1564475D02*
X1568284Y1025567D01*
X1577806Y1036993D02*
X1573997D01*
X1572093Y1035089D01*
Y1027471D01*
X1573997Y1025567D01*
X1577806D01*
X1579710Y1027471D01*
Y1035089D01*
X1577806Y1036993D01*
X1583519Y1025567D02*
Y1036993D01*
X1589232D01*
X1591137Y1035089D01*
Y1031280D01*
X1589232Y1029376D01*
X1583519D01*
X1587328D02*
X1591137Y1025567D01*
X1544783Y1058628D02*
X1542879Y1060532D01*
X1539070D01*
X1537166Y1058628D01*
Y1051010D01*
X1539070Y1049106D01*
X1542879D01*
X1544783Y1051010D01*
X1548592Y1049106D02*
Y1056724D01*
X1552401Y1060532D01*
X1556210Y1056724D01*
Y1049106D01*
Y1054819D01*
X1548592D01*
X1560019Y1049106D02*
Y1060532D01*
X1567636Y1049106D01*
Y1060532D01*
X1571445Y1049106D02*
Y1060532D01*
X1577158D01*
X1579062Y1058628D01*
Y1054819D01*
X1577158Y1052915D01*
X1571445D01*
X1575254D02*
X1579062Y1049106D01*
X1582871Y1060532D02*
X1590489Y1049106D01*
Y1060532D02*
X1582871Y1049106D01*
X1545143Y1081735D02*
X1543239Y1083640D01*
X1539430D01*
X1537526Y1081735D01*
Y1074118D01*
X1539430Y1072213D01*
X1543239D01*
X1545143Y1074118D01*
X1548952Y1072213D02*
Y1079831D01*
X1552761Y1083640D01*
X1556570Y1079831D01*
Y1072213D01*
Y1077926D01*
X1548952D01*
X1560379Y1072213D02*
Y1083640D01*
X1567996Y1072213D01*
Y1083640D01*
X1571805D02*
X1579422D01*
X1575614D01*
Y1072213D01*
X1583231Y1083640D02*
X1590849Y1072213D01*
Y1083640D02*
X1583231Y1072213D01*
X1630778Y1109315D02*
X1628874Y1111220D01*
X1625065D01*
X1623161Y1109315D01*
Y1107411D01*
X1625065Y1105507D01*
X1628874D01*
X1630778Y1103602D01*
Y1101698D01*
X1628874Y1099793D01*
X1625065D01*
X1623161Y1101698D01*
X1634587Y1111220D02*
X1642205D01*
X1638396D01*
Y1099793D01*
X1646013D02*
Y1111220D01*
X1649822Y1107411D01*
X1653631Y1111220D01*
Y1099793D01*
X1485900Y899156D02*
Y887730D01*
X1491613D01*
X1493517Y889634D01*
Y891539D01*
X1491613Y893443D01*
X1485900D01*
X1491613D01*
X1493517Y895348D01*
Y897252D01*
X1491613Y899156D01*
X1485900D01*
X1503040D02*
X1499231D01*
X1497326Y897252D01*
Y889634D01*
X1499231Y887730D01*
X1503040D01*
X1504944Y889634D01*
Y897252D01*
X1503040Y899156D01*
X1514466D02*
X1510657D01*
X1508753Y897252D01*
Y889634D01*
X1510657Y887730D01*
X1514466D01*
X1516370Y889634D01*
Y897252D01*
X1514466Y899156D01*
X1520179D02*
X1527796D01*
X1523988D01*
Y887730D01*
X1543032D02*
Y895348D01*
X1544936D01*
X1546840Y893443D01*
Y887730D01*
Y893443D01*
X1548745Y895348D01*
X1550649Y893443D01*
Y887730D01*
X1556362D02*
X1560171D01*
X1562075Y889634D01*
Y893443D01*
X1560171Y895348D01*
X1556362D01*
X1554458Y893443D01*
Y889634D01*
X1556362Y887730D01*
X1573502Y899156D02*
Y887730D01*
X1567789D01*
X1565884Y889634D01*
Y893443D01*
X1567789Y895348D01*
X1573502D01*
X1583024Y887730D02*
X1579215D01*
X1577310Y889634D01*
Y893443D01*
X1579215Y895348D01*
X1583024D01*
X1584928Y893443D01*
Y891539D01*
X1577310D01*
X794186Y502202D02*
X792282Y504107D01*
X788473D01*
X786569Y502202D01*
Y500298D01*
X788473Y498394D01*
X792282D01*
X794186Y496489D01*
Y494585D01*
X792282Y492681D01*
X788473D01*
X786569Y494585D01*
X797995Y504107D02*
Y492681D01*
X801804Y496489D01*
X805613Y492681D01*
Y504107D01*
X815135Y492681D02*
Y504107D01*
X809422Y498394D01*
X817039D01*
X792890Y487614D02*
X789082D01*
X790986D01*
Y478092D01*
X789082Y476188D01*
X787177D01*
X785273Y478092D01*
X804317Y476188D02*
X796699D01*
X804317Y483806D01*
Y485710D01*
X802412Y487614D01*
X798604D01*
X796699Y485710D01*
X1642244Y266150D02*
Y277576D01*
X1647957D01*
X1649861Y275672D01*
Y271863D01*
X1647957Y269958D01*
X1642244D01*
X1646053D02*
X1649861Y266150D01*
X1653670Y275672D02*
X1655574Y277576D01*
X1659383D01*
X1661288Y275672D01*
Y273767D01*
X1659383Y271863D01*
X1657479D01*
X1659383D01*
X1661288Y269958D01*
Y268054D01*
X1659383Y266150D01*
X1655574D01*
X1653670Y268054D01*
X1179833Y1039493D02*
Y1029971D01*
X1181737Y1028067D01*
X1185546D01*
X1187450Y1029971D01*
Y1039493D01*
X1191259Y1028067D02*
X1195068D01*
X1193163D01*
Y1039493D01*
X1191259Y1037589D01*
X1174118Y880743D02*
Y871221D01*
X1176022Y869317D01*
X1179831D01*
X1181736Y871221D01*
Y880743D01*
X1193162D02*
X1185544D01*
Y875030D01*
X1189353Y876934D01*
X1191257D01*
X1193162Y875030D01*
Y871221D01*
X1191257Y869317D01*
X1187449D01*
X1185544Y871221D01*
X1403988Y569593D02*
Y560071D01*
X1405892Y558167D01*
X1409701D01*
X1411606Y560071D01*
Y569593D01*
X1421127Y558167D02*
Y569593D01*
X1415414Y563880D01*
X1423032D01*
X1521062Y825331D02*
Y815809D01*
X1522967Y813904D01*
X1526776D01*
X1528680Y815809D01*
Y825331D01*
X1532489Y823426D02*
X1534393Y825331D01*
X1538202D01*
X1540106Y823426D01*
Y821522D01*
X1538202Y819618D01*
X1536297D01*
X1538202D01*
X1540106Y817713D01*
Y815809D01*
X1538202Y813904D01*
X1534393D01*
X1532489Y815809D01*
X1650368Y362583D02*
Y353061D01*
X1652272Y351157D01*
X1656081D01*
X1657986Y353061D01*
Y362583D01*
X1669412Y351157D02*
X1661794D01*
X1669412Y358774D01*
Y360679D01*
X1667507Y362583D01*
X1663699D01*
X1661794Y360679D01*
X1113154Y683888D02*
Y676271D01*
Y680079D01*
X1101728D01*
Y672462D02*
X1113154D01*
Y666749D01*
X1111250Y664844D01*
X1107441D01*
X1105537Y666749D01*
Y672462D01*
X1111250Y661036D02*
X1113154Y659131D01*
Y655322D01*
X1111250Y653418D01*
X1109345D01*
X1107441Y655322D01*
Y657227D01*
Y655322D01*
X1105537Y653418D01*
X1103632D01*
X1101728Y655322D01*
Y659131D01*
X1103632Y661036D01*
X1101728Y643896D02*
X1113154D01*
X1107441Y649609D01*
Y641992D01*
X1172966Y685748D02*
Y678130D01*
Y681939D01*
X1161540D01*
Y674321D02*
X1172966D01*
Y668608D01*
X1171062Y666704D01*
X1167253D01*
X1165349Y668608D01*
Y674321D01*
X1171062Y662895D02*
X1172966Y660991D01*
Y657182D01*
X1171062Y655277D01*
X1169157D01*
X1167253Y657182D01*
Y659086D01*
Y657182D01*
X1165349Y655277D01*
X1163444D01*
X1161540Y657182D01*
Y660991D01*
X1163444Y662895D01*
X1171062Y651469D02*
X1172966Y649564D01*
Y645755D01*
X1171062Y643851D01*
X1169157D01*
X1167253Y645755D01*
Y647660D01*
Y645755D01*
X1165349Y643851D01*
X1163444D01*
X1161540Y645755D01*
Y649564D01*
X1163444Y651469D01*
X1110640Y747529D02*
Y739911D01*
Y743720D01*
X1099214D01*
Y736103D02*
X1110640D01*
Y730389D01*
X1108736Y728485D01*
X1104927D01*
X1103023Y730389D01*
Y736103D01*
X1108736Y724676D02*
X1110640Y722772D01*
Y718963D01*
X1108736Y717059D01*
X1106831D01*
X1104927Y718963D01*
Y720868D01*
Y718963D01*
X1103023Y717059D01*
X1101118D01*
X1099214Y718963D01*
Y722772D01*
X1101118Y724676D01*
X1099214Y705632D02*
Y713250D01*
X1106831Y705632D01*
X1108736D01*
X1110640Y707537D01*
Y711346D01*
X1108736Y713250D01*
X1179193Y745625D02*
Y738007D01*
Y741816D01*
X1167767D01*
Y734198D02*
X1179193D01*
Y728485D01*
X1177289Y726581D01*
X1173480D01*
X1171576Y728485D01*
Y734198D01*
X1177289Y722772D02*
X1179193Y720868D01*
Y717059D01*
X1177289Y715154D01*
X1175384D01*
X1173480Y717059D01*
Y718963D01*
Y717059D01*
X1171576Y715154D01*
X1169671D01*
X1167767Y717059D01*
Y720868D01*
X1169671Y722772D01*
X1167767Y711346D02*
Y707537D01*
Y709441D01*
X1179193D01*
X1177289Y711346D01*
X905515Y885823D02*
Y874397D01*
X909324Y878206D01*
X913132Y874397D01*
Y885823D01*
X924559D02*
X916941D01*
Y880110D01*
X920750D01*
X916941D01*
Y874397D01*
X928368Y885823D02*
Y874397D01*
X935985D01*
X911862Y840739D02*
X909958Y842643D01*
X906149D01*
X904245Y840739D01*
Y833121D01*
X906149Y831217D01*
X909958D01*
X911862Y833121D01*
X915671Y842643D02*
Y831217D01*
X923289D01*
X934715Y840739D02*
X932811Y842643D01*
X929002D01*
X927098Y840739D01*
Y838834D01*
X929002Y836930D01*
X932811D01*
X934715Y835026D01*
Y833121D01*
X932811Y831217D01*
X929002D01*
X927098Y833121D01*
X906785Y803273D02*
Y791847D01*
X912498D01*
X914402Y793751D01*
Y795656D01*
X912498Y797560D01*
X906785D01*
X912498D01*
X914402Y799464D01*
Y801369D01*
X912498Y803273D01*
X906785D01*
X918211D02*
Y791847D01*
X922020Y795656D01*
X925829Y791847D01*
Y803273D01*
X937255Y801369D02*
X935351Y803273D01*
X931542D01*
X929638Y801369D01*
Y799464D01*
X931542Y797560D01*
X935351D01*
X937255Y795656D01*
Y793751D01*
X935351Y791847D01*
X931542D01*
X929638Y793751D01*
X908055Y752477D02*
Y763903D01*
X913768D01*
X915673Y761999D01*
Y758190D01*
X913768Y756286D01*
X908055D01*
X919481Y763903D02*
Y752477D01*
X925194D01*
X927099Y754381D01*
Y756286D01*
X925194Y758190D01*
X919481D01*
X925194D01*
X927099Y760094D01*
Y761999D01*
X925194Y763903D01*
X919481D01*
X930908Y752477D02*
Y763903D01*
X936621D01*
X938525Y761999D01*
Y758190D01*
X936621Y756286D01*
X930908D01*
X934716D02*
X938525Y752477D01*
X908055Y682623D02*
Y671197D01*
X913768D01*
X915673Y673101D01*
Y675006D01*
X913768Y676910D01*
X908055D01*
X913768D01*
X915673Y678814D01*
Y680719D01*
X913768Y682623D01*
X908055D01*
X927099D02*
X919481D01*
Y676910D01*
X923290D01*
X919481D01*
Y671197D01*
X930908Y682623D02*
Y671197D01*
X938525D01*
X913450Y641983D02*
X909641D01*
X907737Y640079D01*
Y632461D01*
X909641Y630557D01*
X913450D01*
X915355Y632461D01*
Y640079D01*
X913450Y641983D01*
X919163D02*
X922972D01*
X921068D01*
Y630557D01*
X919163D01*
X922972D01*
X928685Y641983D02*
Y630557D01*
X936303D01*
X909325Y600073D02*
Y588647D01*
X915038D01*
X916943Y590551D01*
Y592456D01*
X915038Y594360D01*
X909325D01*
X915038D01*
X916943Y596264D01*
Y598169D01*
X915038Y600073D01*
X909325D01*
X920751Y588647D02*
Y596264D01*
X924560Y600073D01*
X928369Y596264D01*
Y588647D01*
Y594360D01*
X920751D01*
X932178Y600073D02*
X939795D01*
X935986D01*
Y588647D01*
X910291Y563366D02*
Y551939D01*
X916004D01*
X917908Y553844D01*
Y555748D01*
X916004Y557652D01*
X910291D01*
X916004D01*
X917908Y559557D01*
Y561461D01*
X916004Y563366D01*
X910291D01*
X921717D02*
Y551939D01*
Y555748D01*
X929335Y563366D01*
X923622Y557652D01*
X929335Y551939D01*
X933144Y563366D02*
Y551939D01*
X940761D01*
X1379582Y451399D02*
X1377678Y453303D01*
X1373869D01*
X1371965Y451399D01*
Y443781D01*
X1373869Y441877D01*
X1377678D01*
X1379582Y443781D01*
Y447590D01*
X1375774D01*
X1383391Y441877D02*
Y453303D01*
X1391009Y441877D01*
Y453303D01*
X1394817D02*
Y441877D01*
X1400531D01*
X1402435Y443781D01*
Y451399D01*
X1400531Y453303D01*
X1394817D01*
X1594492Y506093D02*
X1602109D01*
X1598300D01*
Y494667D01*
X1605918D02*
Y506093D01*
X1611631D01*
X1613536Y504189D01*
Y500380D01*
X1611631Y498476D01*
X1605918D01*
X1624962Y494667D02*
X1617344D01*
X1624962Y502284D01*
Y504189D01*
X1623058Y506093D01*
X1619249D01*
X1617344Y504189D01*
X1628771D02*
X1630675Y506093D01*
X1634484D01*
X1636388Y504189D01*
Y496571D01*
X1634484Y494667D01*
X1630675D01*
X1628771Y496571D01*
Y504189D01*
X1631137Y681299D02*
Y673682D01*
Y677490D01*
X1619711D01*
Y669873D02*
X1631137D01*
Y664160D01*
X1629233Y662255D01*
X1625424D01*
X1623519Y664160D01*
Y669873D01*
X1619711Y658447D02*
Y654638D01*
Y656542D01*
X1631137D01*
X1629233Y658447D01*
X1621615Y648924D02*
X1619711Y647020D01*
Y643211D01*
X1621615Y641307D01*
X1629233D01*
X1631137Y643211D01*
Y647020D01*
X1629233Y648924D01*
X1627328D01*
X1625424Y647020D01*
Y641307D01*
X1609745Y681367D02*
Y673749D01*
Y677558D01*
X1598319D01*
Y669940D02*
X1609745D01*
Y664227D01*
X1607841Y662323D01*
X1604032D01*
X1602127Y664227D01*
Y669940D01*
X1598319Y658514D02*
Y654705D01*
Y656609D01*
X1609745D01*
X1607841Y658514D01*
Y648992D02*
X1609745Y647088D01*
Y643279D01*
X1607841Y641374D01*
X1605936D01*
X1604032Y643279D01*
X1602127Y641374D01*
X1600223D01*
X1598319Y643279D01*
Y647088D01*
X1600223Y648992D01*
X1602127D01*
X1604032Y647088D01*
X1605936Y648992D01*
X1607841D01*
X1604032Y647088D02*
Y643279D01*
X1585526Y681339D02*
Y673722D01*
Y677531D01*
X1574099D01*
Y669913D02*
X1585526D01*
Y664200D01*
X1583621Y662296D01*
X1579813D01*
X1577908Y664200D01*
Y669913D01*
X1574099Y658487D02*
Y654678D01*
Y656582D01*
X1585526D01*
X1583621Y658487D01*
X1585526Y648965D02*
Y641347D01*
X1583621D01*
X1576004Y648965D01*
X1574099D01*
X1563764Y681401D02*
Y673783D01*
Y677592D01*
X1552338D01*
Y669974D02*
X1563764D01*
Y664261D01*
X1561860Y662357D01*
X1558051D01*
X1556147Y664261D01*
Y669974D01*
X1552338Y658548D02*
Y654739D01*
Y656644D01*
X1563764D01*
X1561860Y658548D01*
X1563764Y641408D02*
X1561860Y645217D01*
X1558051Y649026D01*
X1554242D01*
X1552338Y647122D01*
Y643313D01*
X1554242Y641408D01*
X1556147D01*
X1558051Y643313D01*
Y649026D01*
X1248498Y486501D02*
X1256116D01*
X1252307D01*
Y475075D01*
X1259924D02*
Y486501D01*
X1265638D01*
X1267542Y484596D01*
Y480788D01*
X1265638Y478883D01*
X1259924D01*
X1271351Y475075D02*
X1275160D01*
X1273255D01*
Y486501D01*
X1271351Y484596D01*
X1288490Y486501D02*
X1280873D01*
Y480788D01*
X1284682Y482692D01*
X1286586D01*
X1288490Y480788D01*
Y476979D01*
X1286586Y475075D01*
X1282777D01*
X1280873Y476979D01*
X1248784Y503604D02*
X1256402D01*
X1252593D01*
Y492178D01*
X1260211D02*
Y503604D01*
X1265924D01*
X1267828Y501700D01*
Y497891D01*
X1265924Y495987D01*
X1260211D01*
X1271637Y492178D02*
X1275446D01*
X1273541D01*
Y503604D01*
X1271637Y501700D01*
X1286872Y492178D02*
Y503604D01*
X1281159Y497891D01*
X1288776D01*
X1667283Y505677D02*
Y494251D01*
Y498060D01*
X1674901Y505677D01*
X1669188Y499964D01*
X1674901Y494251D01*
X1678710Y499964D02*
X1686327D01*
X1690136Y505677D02*
Y494251D01*
X1695849D01*
X1697753Y496155D01*
Y498060D01*
X1695849Y499964D01*
X1690136D01*
X1695849D01*
X1697753Y501868D01*
Y503773D01*
X1695849Y505677D01*
X1690136D01*
X1701562D02*
Y496155D01*
X1703467Y494251D01*
X1707275D01*
X1709180Y496155D01*
Y505677D01*
X1720606Y503773D02*
X1718702Y505677D01*
X1714893D01*
X1712989Y503773D01*
Y501868D01*
X1714893Y499964D01*
X1718702D01*
X1720606Y498060D01*
Y496155D01*
X1718702Y494251D01*
X1714893D01*
X1712989Y496155D01*
X1443353Y678808D02*
X1431927D01*
X1435736D01*
X1443353Y671191D01*
X1437640Y676904D01*
X1431927Y671191D01*
X1437640Y667382D02*
Y659764D01*
X1443353Y655956D02*
Y648338D01*
Y652147D01*
X1431927D01*
X1443353Y644529D02*
X1431927Y636912D01*
X1443353D02*
X1431927Y644529D01*
X1486601Y678268D02*
X1475175D01*
X1478984D01*
X1486601Y670651D01*
X1480888Y676364D01*
X1475175Y670651D01*
X1480888Y666842D02*
Y659225D01*
X1475175Y655416D02*
X1486601D01*
Y649703D01*
X1484697Y647798D01*
X1480888D01*
X1478984Y649703D01*
Y655416D01*
Y651607D02*
X1475175Y647798D01*
X1486601Y643989D02*
X1475175Y636372D01*
X1486601D02*
X1475175Y643989D01*
X828192Y996321D02*
X835810D01*
X832001D01*
Y984894D01*
X839618D02*
Y996321D01*
X845332D01*
X847236Y994416D01*
Y990608D01*
X845332Y988703D01*
X839618D01*
X851045Y986799D02*
X852949Y984894D01*
X856758D01*
X858662Y986799D01*
Y994416D01*
X856758Y996321D01*
X852949D01*
X851045Y994416D01*
Y992512D01*
X852949Y990608D01*
X858662D01*
X828045Y964779D02*
X835663D01*
X831854D01*
Y953352D01*
X839471D02*
Y964779D01*
X845184D01*
X847089Y962874D01*
Y959066D01*
X845184Y957161D01*
X839471D01*
X850898Y962874D02*
X852802Y964779D01*
X856611D01*
X858515Y962874D01*
Y960970D01*
X856611Y959066D01*
X858515Y957161D01*
Y955257D01*
X856611Y953352D01*
X852802D01*
X850898Y955257D01*
Y957161D01*
X852802Y959066D01*
X850898Y960970D01*
Y962874D01*
X852802Y959066D02*
X856611D01*
X1296071Y1087877D02*
X1303689D01*
X1299880D01*
Y1076450D01*
X1307497D02*
Y1087877D01*
X1313211D01*
X1315115Y1085972D01*
Y1082163D01*
X1313211Y1080259D01*
X1307497D01*
X1318924Y1087877D02*
X1326541D01*
Y1085972D01*
X1318924Y1078355D01*
Y1076450D01*
X1417953Y648965D02*
Y641348D01*
Y645156D01*
X1406527D01*
Y637539D02*
X1417953D01*
Y631826D01*
X1416049Y629921D01*
X1412240D01*
X1410336Y631826D01*
Y637539D01*
X1417953Y618495D02*
X1416049Y622304D01*
X1412240Y626112D01*
X1408431D01*
X1406527Y624208D01*
Y620399D01*
X1408431Y618495D01*
X1410336D01*
X1412240Y620399D01*
Y626112D01*
X1340483Y648965D02*
Y641348D01*
Y645156D01*
X1329057D01*
Y637539D02*
X1340483D01*
Y631826D01*
X1338579Y629921D01*
X1334770D01*
X1332866Y631826D01*
Y637539D01*
X1340483Y618495D02*
Y626112D01*
X1334770D01*
X1336674Y622304D01*
Y620399D01*
X1334770Y618495D01*
X1330961D01*
X1329057Y620399D01*
Y624208D01*
X1330961Y626112D01*
X1252853Y646425D02*
Y638807D01*
Y642616D01*
X1241427D01*
Y634999D02*
X1252853D01*
Y629286D01*
X1250949Y627381D01*
X1247140D01*
X1245236Y629286D01*
Y634999D01*
X1241427Y617859D02*
X1252853D01*
X1247140Y623572D01*
Y615955D01*
X1569725Y864233D02*
X1577343D01*
X1573534D01*
Y852807D01*
X1581151D02*
Y864233D01*
X1586864D01*
X1588769Y862329D01*
Y858520D01*
X1586864Y856616D01*
X1581151D01*
X1592578Y862329D02*
X1594482Y864233D01*
X1598291D01*
X1600195Y862329D01*
Y860424D01*
X1598291Y858520D01*
X1596386D01*
X1598291D01*
X1600195Y856616D01*
Y854711D01*
X1598291Y852807D01*
X1594482D01*
X1592578Y854711D01*
X1368832Y469530D02*
X1376449D01*
X1372641Y473339D02*
Y465721D01*
X1380258Y473339D02*
X1382163Y475243D01*
X1385971D01*
X1387876Y473339D01*
Y471435D01*
X1385971Y469530D01*
X1384067D01*
X1385971D01*
X1387876Y467626D01*
Y465721D01*
X1385971Y463817D01*
X1382163D01*
X1380258Y465721D01*
X1391685Y463817D02*
Y465721D01*
X1393589D01*
Y463817D01*
X1391685D01*
X1401207Y473339D02*
X1403111Y475243D01*
X1406920D01*
X1408824Y473339D01*
Y471435D01*
X1406920Y469530D01*
X1405015D01*
X1406920D01*
X1408824Y467626D01*
Y465721D01*
X1406920Y463817D01*
X1403111D01*
X1401207Y465721D01*
X1412633Y475243D02*
Y467626D01*
X1416442Y463817D01*
X1420250Y467626D01*
Y475243D01*
X1369381Y425923D02*
X1376999D01*
X1373190Y429732D02*
Y422114D01*
X1380807Y420210D02*
X1384616D01*
X1382712D01*
Y431636D01*
X1380807Y429732D01*
X1397947Y420210D02*
X1390329D01*
X1397947Y427828D01*
Y429732D01*
X1396042Y431636D01*
X1392234D01*
X1390329Y429732D01*
X1401756Y431636D02*
Y424019D01*
X1405564Y420210D01*
X1409373Y424019D01*
Y431636D01*
X1377452Y781403D02*
X1375548Y783307D01*
X1371739D01*
X1369835Y781403D01*
Y779498D01*
X1371739Y777594D01*
X1375548D01*
X1377452Y775689D01*
Y773785D01*
X1375548Y771881D01*
X1371739D01*
X1369835Y773785D01*
X1381261Y783307D02*
Y771881D01*
X1385070Y775689D01*
X1388879Y771881D01*
Y783307D01*
X1392687Y781403D02*
X1394592Y783307D01*
X1398401D01*
X1400305Y781403D01*
Y779498D01*
X1398401Y777594D01*
X1396496D01*
X1398401D01*
X1400305Y775689D01*
Y773785D01*
X1398401Y771881D01*
X1394592D01*
X1392687Y773785D01*
X1303833Y781206D02*
X1301929Y783110D01*
X1298120D01*
X1296216Y781206D01*
Y779302D01*
X1298120Y777397D01*
X1301929D01*
X1303833Y775493D01*
Y773588D01*
X1301929Y771684D01*
X1298120D01*
X1296216Y773588D01*
X1307642Y783110D02*
Y771684D01*
X1311451Y775493D01*
X1315260Y771684D01*
Y783110D01*
X1326686Y771684D02*
X1319068D01*
X1326686Y779302D01*
Y781206D01*
X1324782Y783110D01*
X1320973D01*
X1319068Y781206D01*
X1231905Y780879D02*
X1230000Y782784D01*
X1226191D01*
X1224287Y780879D01*
Y778975D01*
X1226191Y777070D01*
X1230000D01*
X1231905Y775166D01*
Y773262D01*
X1230000Y771357D01*
X1226191D01*
X1224287Y773262D01*
X1235713Y782784D02*
Y771357D01*
X1239522Y775166D01*
X1243331Y771357D01*
Y782784D01*
X1247140Y771357D02*
X1250948D01*
X1249044D01*
Y782784D01*
X1247140Y780879D01*
X1215681Y797007D02*
Y808434D01*
X1221394D01*
X1223299Y806529D01*
Y802720D01*
X1221394Y800816D01*
X1215681D01*
X1219490D02*
X1223299Y797007D01*
X1229012D02*
X1232821D01*
X1234725Y798912D01*
Y802720D01*
X1232821Y804625D01*
X1229012D01*
X1227107Y802720D01*
Y798912D01*
X1229012Y797007D01*
X1246151D02*
X1238534D01*
X1246151Y804625D01*
Y806529D01*
X1244247Y808434D01*
X1240438D01*
X1238534Y806529D01*
X1249960Y808434D02*
X1257578D01*
Y806529D01*
X1249960Y798912D01*
Y797007D01*
X1215681Y818597D02*
Y830023D01*
X1221394D01*
X1223299Y828119D01*
Y824310D01*
X1221394Y822406D01*
X1215681D01*
X1219490D02*
X1223299Y818597D01*
X1229012D02*
X1232821D01*
X1234725Y820502D01*
Y824310D01*
X1232821Y826215D01*
X1229012D01*
X1227107Y824310D01*
Y820502D01*
X1229012Y818597D01*
X1246151D02*
X1238534D01*
X1246151Y826215D01*
Y828119D01*
X1244247Y830023D01*
X1240438D01*
X1238534Y828119D01*
X1257578Y830023D02*
X1253769Y828119D01*
X1249960Y824310D01*
Y820502D01*
X1251864Y818597D01*
X1255673D01*
X1257578Y820502D01*
Y822406D01*
X1255673Y824310D01*
X1249960D01*
X1215709Y840818D02*
Y852244D01*
X1221422D01*
X1223326Y850340D01*
Y846531D01*
X1221422Y844627D01*
X1215709D01*
X1219518D02*
X1223326Y840818D01*
X1229040D02*
X1232848D01*
X1234753Y842722D01*
Y846531D01*
X1232848Y848436D01*
X1229040D01*
X1227135Y846531D01*
Y842722D01*
X1229040Y840818D01*
X1246179D02*
X1238561D01*
X1246179Y848436D01*
Y850340D01*
X1244275Y852244D01*
X1240466D01*
X1238561Y850340D01*
X1257605Y852244D02*
X1249988D01*
Y846531D01*
X1253796Y848436D01*
X1255701D01*
X1257605Y846531D01*
Y842722D01*
X1255701Y840818D01*
X1251892D01*
X1249988Y842722D01*
X1652912Y701677D02*
Y713103D01*
X1658625D01*
X1660529Y711199D01*
Y707390D01*
X1658625Y705486D01*
X1652912D01*
X1656720D02*
X1660529Y701677D01*
X1666243D02*
X1670051D01*
X1671956Y703581D01*
Y707390D01*
X1670051Y709294D01*
X1666243D01*
X1664338Y707390D01*
Y703581D01*
X1666243Y701677D01*
X1683382D02*
X1675764D01*
X1683382Y709294D01*
Y711199D01*
X1681478Y713103D01*
X1677669D01*
X1675764Y711199D01*
X1692904Y701677D02*
Y713103D01*
X1687191Y707390D01*
X1694808D01*
X1522102Y704217D02*
Y715643D01*
X1527815D01*
X1529719Y713739D01*
Y709930D01*
X1527815Y708026D01*
X1522102D01*
X1525910D02*
X1529719Y704217D01*
X1535432D02*
X1539241D01*
X1541146Y706121D01*
Y709930D01*
X1539241Y711834D01*
X1535432D01*
X1533528Y709930D01*
Y706121D01*
X1535432Y704217D01*
X1552572D02*
X1544954D01*
X1552572Y711834D01*
Y713739D01*
X1550668Y715643D01*
X1546859D01*
X1544954Y713739D01*
X1556381D02*
X1558285Y715643D01*
X1562094D01*
X1563998Y713739D01*
Y711834D01*
X1562094Y709930D01*
X1560190D01*
X1562094D01*
X1563998Y708026D01*
Y706121D01*
X1562094Y704217D01*
X1558285D01*
X1556381Y706121D01*
X1673206Y762889D02*
X1684632D01*
Y757176D01*
X1682728Y755272D01*
X1678919D01*
X1677015Y757176D01*
Y762889D01*
Y759080D02*
X1673206Y755272D01*
Y749558D02*
Y745750D01*
X1675110Y743845D01*
X1678919D01*
X1680823Y745750D01*
Y749558D01*
X1678919Y751463D01*
X1675110D01*
X1673206Y749558D01*
Y732419D02*
Y740036D01*
X1680823Y732419D01*
X1682728D01*
X1684632Y734323D01*
Y738132D01*
X1682728Y740036D01*
X1673206Y720993D02*
Y728610D01*
X1680823Y720993D01*
X1682728D01*
X1684632Y722897D01*
Y726706D01*
X1682728Y728610D01*
X1654525Y762752D02*
X1665951D01*
Y757039D01*
X1664047Y755135D01*
X1660238D01*
X1658333Y757039D01*
Y762752D01*
Y758944D02*
X1654525Y755135D01*
Y749422D02*
Y745613D01*
X1656429Y743708D01*
X1660238D01*
X1662142Y745613D01*
Y749422D01*
X1660238Y751326D01*
X1656429D01*
X1654525Y749422D01*
Y732282D02*
Y739900D01*
X1662142Y732282D01*
X1664047D01*
X1665951Y734187D01*
Y737995D01*
X1664047Y739900D01*
X1654525Y728473D02*
Y724665D01*
Y726569D01*
X1665951D01*
X1664047Y728473D01*
X1555634Y765097D02*
X1567060D01*
Y759384D01*
X1565156Y757479D01*
X1561347D01*
X1559443Y759384D01*
Y765097D01*
Y761288D02*
X1555634Y757479D01*
Y751766D02*
Y747957D01*
X1557538Y746053D01*
X1561347D01*
X1563251Y747957D01*
Y751766D01*
X1561347Y753671D01*
X1557538D01*
X1555634Y751766D01*
Y734627D02*
Y742244D01*
X1563251Y734627D01*
X1565156D01*
X1567060Y736531D01*
Y740340D01*
X1565156Y742244D01*
Y730818D02*
X1567060Y728913D01*
Y725105D01*
X1565156Y723200D01*
X1557538D01*
X1555634Y725105D01*
Y728913D01*
X1557538Y730818D01*
X1565156D01*
X1536437Y765925D02*
X1547864D01*
Y760212D01*
X1545959Y758307D01*
X1542150D01*
X1540246Y760212D01*
Y765925D01*
Y762116D02*
X1536437Y758307D01*
Y752594D02*
Y748785D01*
X1538342Y746881D01*
X1542150D01*
X1544055Y748785D01*
Y752594D01*
X1542150Y754499D01*
X1538342D01*
X1536437Y752594D01*
Y743072D02*
Y739264D01*
Y741168D01*
X1547864D01*
X1545959Y743072D01*
X1538342Y733550D02*
X1536437Y731646D01*
Y727837D01*
X1538342Y725933D01*
X1545959D01*
X1547864Y727837D01*
Y731646D01*
X1545959Y733550D01*
X1544055D01*
X1542150Y731646D01*
Y725933D01*
X1641164Y776607D02*
Y788033D01*
X1646877D01*
X1648781Y786129D01*
Y782320D01*
X1646877Y780416D01*
X1641164D01*
X1644973D02*
X1648781Y776607D01*
X1654495D02*
X1658303D01*
X1660208Y778511D01*
Y782320D01*
X1658303Y784224D01*
X1654495D01*
X1652590Y782320D01*
Y778511D01*
X1654495Y776607D01*
X1664017D02*
X1667825D01*
X1665921D01*
Y788033D01*
X1664017Y786129D01*
X1673539D02*
X1675443Y788033D01*
X1679252D01*
X1681156Y786129D01*
Y784224D01*
X1679252Y782320D01*
X1681156Y780416D01*
Y778511D01*
X1679252Y776607D01*
X1675443D01*
X1673539Y778511D01*
Y780416D01*
X1675443Y782320D01*
X1673539Y784224D01*
Y786129D01*
X1675443Y782320D02*
X1679252D01*
X1312234Y596267D02*
Y607693D01*
X1317947D01*
X1319852Y605789D01*
Y601980D01*
X1317947Y600076D01*
X1312234D01*
X1316043D02*
X1319852Y596267D01*
X1325565D02*
X1329373D01*
X1331278Y598171D01*
Y601980D01*
X1329373Y603884D01*
X1325565D01*
X1323660Y601980D01*
Y598171D01*
X1325565Y596267D01*
X1335087D02*
X1338895D01*
X1336991D01*
Y607693D01*
X1335087Y605789D01*
X1344608Y607693D02*
X1352226D01*
Y605789D01*
X1344608Y598171D01*
Y596267D01*
X1228341Y536694D02*
X1239767D01*
Y530981D01*
X1237863Y529077D01*
X1234054D01*
X1232150Y530981D01*
Y536694D01*
Y532886D02*
X1228341Y529077D01*
Y523364D02*
Y519555D01*
X1230245Y517651D01*
X1234054D01*
X1235958Y519555D01*
Y523364D01*
X1234054Y525268D01*
X1230245D01*
X1228341Y523364D01*
Y513842D02*
Y510033D01*
Y511937D01*
X1239767D01*
X1237863Y513842D01*
X1239767Y496702D02*
X1237863Y500511D01*
X1234054Y504320D01*
X1230245D01*
X1228341Y502416D01*
Y498607D01*
X1230245Y496702D01*
X1232150D01*
X1234054Y498607D01*
Y504320D01*
X1208021Y536694D02*
X1219447D01*
Y530981D01*
X1217543Y529077D01*
X1213734D01*
X1211830Y530981D01*
Y536694D01*
Y532886D02*
X1208021Y529077D01*
Y523364D02*
Y519555D01*
X1209925Y517651D01*
X1213734D01*
X1215638Y519555D01*
Y523364D01*
X1213734Y525268D01*
X1209925D01*
X1208021Y523364D01*
Y513842D02*
Y510033D01*
Y511937D01*
X1219447D01*
X1217543Y513842D01*
X1219447Y496702D02*
Y504320D01*
X1213734D01*
X1215638Y500511D01*
Y498607D01*
X1213734Y496702D01*
X1209925D01*
X1208021Y498607D01*
Y502416D01*
X1209925Y504320D01*
X1186431Y536694D02*
X1197857D01*
Y530981D01*
X1195953Y529077D01*
X1192144D01*
X1190240Y530981D01*
Y536694D01*
Y532886D02*
X1186431Y529077D01*
Y523364D02*
Y519555D01*
X1188335Y517651D01*
X1192144D01*
X1194048Y519555D01*
Y523364D01*
X1192144Y525268D01*
X1188335D01*
X1186431Y523364D01*
Y513842D02*
Y510033D01*
Y511937D01*
X1197857D01*
X1195953Y513842D01*
X1186431Y498607D02*
X1197857D01*
X1192144Y504320D01*
Y496702D01*
X1517017Y550856D02*
X1528443D01*
Y545143D01*
X1526539Y543238D01*
X1522730D01*
X1520826Y545143D01*
Y550856D01*
Y547047D02*
X1517017Y543238D01*
Y537525D02*
Y533717D01*
X1518921Y531812D01*
X1522730D01*
X1524634Y533717D01*
Y537525D01*
X1522730Y539430D01*
X1518921D01*
X1517017Y537525D01*
Y528003D02*
Y524195D01*
Y526099D01*
X1528443D01*
X1526539Y528003D01*
X1517017Y510864D02*
Y518481D01*
X1524634Y510864D01*
X1526539D01*
X1528443Y512768D01*
Y516577D01*
X1526539Y518481D01*
X1337878Y509027D02*
Y520453D01*
X1343591D01*
X1345496Y518549D01*
Y514740D01*
X1343591Y512836D01*
X1337878D01*
X1341687D02*
X1345496Y509027D01*
X1351209D02*
X1355018D01*
X1356922Y510931D01*
Y514740D01*
X1355018Y516644D01*
X1351209D01*
X1349305Y514740D01*
Y510931D01*
X1351209Y509027D01*
X1360731D02*
X1364540D01*
X1362635D01*
Y520453D01*
X1360731Y518549D01*
X1370253Y509027D02*
X1374062D01*
X1372157D01*
Y520453D01*
X1370253Y518549D01*
X1332554Y530227D02*
Y541653D01*
X1338267D01*
X1340172Y539749D01*
Y535940D01*
X1338267Y534036D01*
X1332554D01*
X1336363D02*
X1340172Y530227D01*
X1345885D02*
X1349693D01*
X1351598Y532131D01*
Y535940D01*
X1349693Y537844D01*
X1345885D01*
X1343980Y535940D01*
Y532131D01*
X1345885Y530227D01*
X1355407D02*
X1359215D01*
X1357311D01*
Y541653D01*
X1355407Y539749D01*
X1364928D02*
X1366833Y541653D01*
X1370642D01*
X1372546Y539749D01*
Y532131D01*
X1370642Y530227D01*
X1366833D01*
X1364928Y532131D01*
Y539749D01*
X1342785Y488317D02*
Y499743D01*
X1348498D01*
X1350403Y497839D01*
Y494030D01*
X1348498Y492126D01*
X1342785D01*
X1346594D02*
X1350403Y488317D01*
X1356116D02*
X1359924D01*
X1361829Y490221D01*
Y494030D01*
X1359924Y495934D01*
X1356116D01*
X1354211Y494030D01*
Y490221D01*
X1356116Y488317D01*
X1365638Y490221D02*
X1367542Y488317D01*
X1371351D01*
X1373255Y490221D01*
Y497839D01*
X1371351Y499743D01*
X1367542D01*
X1365638Y497839D01*
Y495934D01*
X1367542Y494030D01*
X1373255D01*
X1641477Y549905D02*
X1652903D01*
Y544192D01*
X1650999Y542287D01*
X1647190D01*
X1645286Y544192D01*
Y549905D01*
Y546096D02*
X1641477Y542287D01*
Y536574D02*
Y532766D01*
X1643381Y530861D01*
X1647190D01*
X1649094Y532766D01*
Y536574D01*
X1647190Y538479D01*
X1643381D01*
X1641477Y536574D01*
X1650999Y527052D02*
X1652903Y525148D01*
Y521339D01*
X1650999Y519435D01*
X1649094D01*
X1647190Y521339D01*
X1645286Y519435D01*
X1643381D01*
X1641477Y521339D01*
Y525148D01*
X1643381Y527052D01*
X1645286D01*
X1647190Y525148D01*
X1649094Y527052D01*
X1650999D01*
X1647190Y525148D02*
Y521339D01*
X1384937Y608325D02*
X1396363D01*
Y602612D01*
X1394459Y600708D01*
X1390650D01*
X1388746Y602612D01*
Y608325D01*
Y604516D02*
X1384937Y600708D01*
Y594994D02*
Y591186D01*
X1386841Y589281D01*
X1390650D01*
X1392554Y591186D01*
Y594994D01*
X1390650Y596899D01*
X1386841D01*
X1384937Y594994D01*
X1396363Y585472D02*
Y577855D01*
X1394459D01*
X1386841Y585472D01*
X1384937D01*
X1401447Y608325D02*
X1412873D01*
Y602612D01*
X1410969Y600708D01*
X1407160D01*
X1405256Y602612D01*
Y608325D01*
Y604516D02*
X1401447Y600708D01*
Y594994D02*
Y591186D01*
X1403351Y589281D01*
X1407160D01*
X1409064Y591186D01*
Y594994D01*
X1407160Y596899D01*
X1403351D01*
X1401447Y594994D01*
X1412873Y577855D02*
X1410969Y581664D01*
X1407160Y585472D01*
X1403351D01*
X1401447Y583568D01*
Y579759D01*
X1403351Y577855D01*
X1405256D01*
X1407160Y579759D01*
Y585472D01*
X1522097Y608325D02*
X1533523D01*
Y602612D01*
X1531619Y600708D01*
X1527810D01*
X1525906Y602612D01*
Y608325D01*
Y604516D02*
X1522097Y600708D01*
Y594994D02*
Y591186D01*
X1524001Y589281D01*
X1527810D01*
X1529714Y591186D01*
Y594994D01*
X1527810Y596899D01*
X1524001D01*
X1522097Y594994D01*
X1533523Y577855D02*
Y585472D01*
X1527810D01*
X1529714Y581664D01*
Y579759D01*
X1527810Y577855D01*
X1524001D01*
X1522097Y579759D01*
Y583568D01*
X1524001Y585472D01*
X1505587Y608325D02*
X1517013D01*
Y602612D01*
X1515109Y600708D01*
X1511300D01*
X1509396Y602612D01*
Y608325D01*
Y604516D02*
X1505587Y600708D01*
Y594994D02*
Y591186D01*
X1507491Y589281D01*
X1511300D01*
X1513204Y591186D01*
Y594994D01*
X1511300Y596899D01*
X1507491D01*
X1505587Y594994D01*
Y579759D02*
X1517013D01*
X1511300Y585472D01*
Y577855D01*
X1383035Y992507D02*
Y1003933D01*
X1388748D01*
X1390652Y1002029D01*
Y998220D01*
X1388748Y996316D01*
X1383035D01*
X1386844D02*
X1390652Y992507D01*
X1396366D02*
X1400174D01*
X1402079Y994411D01*
Y998220D01*
X1400174Y1000124D01*
X1396366D01*
X1394461Y998220D01*
Y994411D01*
X1396366Y992507D01*
X1405888Y1002029D02*
X1407792Y1003933D01*
X1411601D01*
X1413505Y1002029D01*
Y1000124D01*
X1411601Y998220D01*
X1409696D01*
X1411601D01*
X1413505Y996316D01*
Y994411D01*
X1411601Y992507D01*
X1407792D01*
X1405888Y994411D01*
X1482095Y861697D02*
Y873123D01*
X1487808D01*
X1489713Y871219D01*
Y867410D01*
X1487808Y865506D01*
X1482095D01*
X1485904D02*
X1489713Y861697D01*
X1495426D02*
X1499234D01*
X1501139Y863601D01*
Y867410D01*
X1499234Y869314D01*
X1495426D01*
X1493521Y867410D01*
Y863601D01*
X1495426Y861697D01*
X1512565D02*
X1504948D01*
X1512565Y869314D01*
Y871219D01*
X1510661Y873123D01*
X1506852D01*
X1504948Y871219D01*
X1579247Y438781D02*
X1590673D01*
Y433068D01*
X1588769Y431163D01*
X1584960D01*
X1583056Y433068D01*
Y438781D01*
Y434972D02*
X1579247Y431163D01*
Y425450D02*
Y421641D01*
X1581151Y419737D01*
X1584960D01*
X1586864Y421641D01*
Y425450D01*
X1584960Y427354D01*
X1581151D01*
X1579247Y425450D01*
Y415928D02*
Y412119D01*
Y414024D01*
X1590673D01*
X1588769Y415928D01*
X1122057Y603887D02*
Y615313D01*
X1127770D01*
X1129675Y613409D01*
Y609600D01*
X1127770Y607696D01*
X1122057D01*
X1125866D02*
X1129675Y603887D01*
X1139197D02*
Y615313D01*
X1133484Y609600D01*
X1141101D01*
X1150623Y603887D02*
Y615313D01*
X1144910Y609600D01*
X1152527D01*
X875723Y846072D02*
X864297D01*
Y851785D01*
X866201Y853689D01*
X870010D01*
X871914Y851785D01*
Y846072D01*
Y849881D02*
X875723Y853689D01*
Y859402D02*
Y863211D01*
X873819Y865116D01*
X870010D01*
X868105Y863211D01*
Y859402D01*
X870010Y857498D01*
X873819D01*
X875723Y859402D01*
X866201Y868924D02*
X864297Y870829D01*
Y874638D01*
X866201Y876542D01*
X868105D01*
X870010Y874638D01*
Y872733D01*
Y874638D01*
X871914Y876542D01*
X873819D01*
X875723Y874638D01*
Y870829D01*
X873819Y868924D01*
X866201Y880351D02*
X864297Y882255D01*
Y886064D01*
X866201Y887968D01*
X873819D01*
X875723Y886064D01*
Y882255D01*
X873819Y880351D01*
X866201D01*
X849748Y845682D02*
X838322D01*
Y851395D01*
X840226Y853299D01*
X844035D01*
X845940Y851395D01*
Y845682D01*
Y849491D02*
X849748Y853299D01*
Y859013D02*
Y862821D01*
X847844Y864726D01*
X844035D01*
X842131Y862821D01*
Y859013D01*
X844035Y857108D01*
X847844D01*
X849748Y859013D01*
Y876152D02*
Y868534D01*
X842131Y876152D01*
X840226D01*
X838322Y874248D01*
Y870439D01*
X840226Y868534D01*
X847844Y879961D02*
X849748Y881865D01*
Y885674D01*
X847844Y887578D01*
X840226D01*
X838322Y885674D01*
Y881865D01*
X840226Y879961D01*
X842131D01*
X844035Y881865D01*
Y887578D01*
X821053Y846462D02*
X809627D01*
Y852175D01*
X811531Y854079D01*
X815340D01*
X817244Y852175D01*
Y846462D01*
Y850271D02*
X821053Y854079D01*
Y859792D02*
Y863601D01*
X819149Y865506D01*
X815340D01*
X813436Y863601D01*
Y859792D01*
X815340Y857888D01*
X819149D01*
X821053Y859792D01*
Y876932D02*
Y869314D01*
X813436Y876932D01*
X811531D01*
X809627Y875028D01*
Y871219D01*
X811531Y869314D01*
Y880741D02*
X809627Y882645D01*
Y886454D01*
X811531Y888358D01*
X813436D01*
X815340Y886454D01*
X817244Y888358D01*
X819149D01*
X821053Y886454D01*
Y882645D01*
X819149Y880741D01*
X817244D01*
X815340Y882645D01*
X813436Y880741D01*
X811531D01*
X815340Y882645D02*
Y886454D01*
X1056645Y865507D02*
Y876933D01*
X1062358D01*
X1064262Y875029D01*
Y871220D01*
X1062358Y869316D01*
X1056645D01*
X1060454D02*
X1064262Y865507D01*
X1073784D02*
Y876933D01*
X1068071Y871220D01*
X1075689D01*
X1079498Y875029D02*
X1081402Y876933D01*
X1085211D01*
X1087115Y875029D01*
Y873124D01*
X1085211Y871220D01*
X1083306D01*
X1085211D01*
X1087115Y869316D01*
Y867411D01*
X1085211Y865507D01*
X1081402D01*
X1079498Y867411D01*
X1056645Y845187D02*
Y856613D01*
X1062358D01*
X1064262Y854709D01*
Y850900D01*
X1062358Y848996D01*
X1056645D01*
X1060454D02*
X1064262Y845187D01*
X1073784D02*
Y856613D01*
X1068071Y850900D01*
X1075689D01*
X1087115Y845187D02*
X1079498D01*
X1087115Y852804D01*
Y854709D01*
X1085211Y856613D01*
X1081402D01*
X1079498Y854709D01*
X1056009Y824867D02*
Y836293D01*
X1061722D01*
X1063627Y834389D01*
Y830580D01*
X1061722Y828676D01*
X1056009D01*
X1059818D02*
X1063627Y824867D01*
X1073149D02*
Y836293D01*
X1067436Y830580D01*
X1075053D01*
X1078862Y824867D02*
X1082671D01*
X1080766D01*
Y836293D01*
X1078862Y834389D01*
X1056645Y804547D02*
Y815973D01*
X1062358D01*
X1064262Y814069D01*
Y810260D01*
X1062358Y808356D01*
X1056645D01*
X1060454D02*
X1064262Y804547D01*
X1073784D02*
Y815973D01*
X1068071Y810260D01*
X1075689D01*
X1079498Y814069D02*
X1081402Y815973D01*
X1085211D01*
X1087115Y814069D01*
Y806451D01*
X1085211Y804547D01*
X1081402D01*
X1079498Y806451D01*
Y814069D01*
X1056645Y784227D02*
Y795653D01*
X1062358D01*
X1064262Y793749D01*
Y789940D01*
X1062358Y788036D01*
X1056645D01*
X1060454D02*
X1064262Y784227D01*
X1068071Y793749D02*
X1069976Y795653D01*
X1073784D01*
X1075689Y793749D01*
Y791844D01*
X1073784Y789940D01*
X1071880D01*
X1073784D01*
X1075689Y788036D01*
Y786131D01*
X1073784Y784227D01*
X1069976D01*
X1068071Y786131D01*
X1079498D02*
X1081402Y784227D01*
X1085211D01*
X1087115Y786131D01*
Y793749D01*
X1085211Y795653D01*
X1081402D01*
X1079498Y793749D01*
Y791844D01*
X1081402Y789940D01*
X1087115D01*
X1056645Y763907D02*
Y775333D01*
X1062358D01*
X1064262Y773429D01*
Y769620D01*
X1062358Y767716D01*
X1056645D01*
X1060454D02*
X1064262Y763907D01*
X1068071Y773429D02*
X1069976Y775333D01*
X1073784D01*
X1075689Y773429D01*
Y771524D01*
X1073784Y769620D01*
X1071880D01*
X1073784D01*
X1075689Y767716D01*
Y765811D01*
X1073784Y763907D01*
X1069976D01*
X1068071Y765811D01*
X1079498Y773429D02*
X1081402Y775333D01*
X1085211D01*
X1087115Y773429D01*
Y771524D01*
X1085211Y769620D01*
X1087115Y767716D01*
Y765811D01*
X1085211Y763907D01*
X1081402D01*
X1079498Y765811D01*
Y767716D01*
X1081402Y769620D01*
X1079498Y771524D01*
Y773429D01*
X1081402Y769620D02*
X1085211D01*
X1056645Y743587D02*
Y755013D01*
X1062358D01*
X1064262Y753109D01*
Y749300D01*
X1062358Y747396D01*
X1056645D01*
X1060454D02*
X1064262Y743587D01*
X1068071Y753109D02*
X1069976Y755013D01*
X1073784D01*
X1075689Y753109D01*
Y751204D01*
X1073784Y749300D01*
X1071880D01*
X1073784D01*
X1075689Y747396D01*
Y745491D01*
X1073784Y743587D01*
X1069976D01*
X1068071Y745491D01*
X1079498Y755013D02*
X1087115D01*
Y753109D01*
X1079498Y745491D01*
Y743587D01*
X1056645Y723267D02*
Y734693D01*
X1062358D01*
X1064262Y732789D01*
Y728980D01*
X1062358Y727076D01*
X1056645D01*
X1060454D02*
X1064262Y723267D01*
X1068071Y732789D02*
X1069976Y734693D01*
X1073784D01*
X1075689Y732789D01*
Y730884D01*
X1073784Y728980D01*
X1071880D01*
X1073784D01*
X1075689Y727076D01*
Y725171D01*
X1073784Y723267D01*
X1069976D01*
X1068071Y725171D01*
X1087115Y734693D02*
X1083306Y732789D01*
X1079498Y728980D01*
Y725171D01*
X1081402Y723267D01*
X1085211D01*
X1087115Y725171D01*
Y727076D01*
X1085211Y728980D01*
X1079498D01*
X1056645Y702947D02*
Y714373D01*
X1062358D01*
X1064262Y712469D01*
Y708660D01*
X1062358Y706756D01*
X1056645D01*
X1060454D02*
X1064262Y702947D01*
X1068071Y712469D02*
X1069976Y714373D01*
X1073784D01*
X1075689Y712469D01*
Y710564D01*
X1073784Y708660D01*
X1071880D01*
X1073784D01*
X1075689Y706756D01*
Y704851D01*
X1073784Y702947D01*
X1069976D01*
X1068071Y704851D01*
X1087115Y714373D02*
X1079498D01*
Y708660D01*
X1083306Y710564D01*
X1085211D01*
X1087115Y708660D01*
Y704851D01*
X1085211Y702947D01*
X1081402D01*
X1079498Y704851D01*
X1056645Y683897D02*
Y695323D01*
X1062358D01*
X1064262Y693419D01*
Y689610D01*
X1062358Y687706D01*
X1056645D01*
X1060454D02*
X1064262Y683897D01*
X1068071Y693419D02*
X1069976Y695323D01*
X1073784D01*
X1075689Y693419D01*
Y691514D01*
X1073784Y689610D01*
X1071880D01*
X1073784D01*
X1075689Y687706D01*
Y685801D01*
X1073784Y683897D01*
X1069976D01*
X1068071Y685801D01*
X1085211Y683897D02*
Y695323D01*
X1079498Y689610D01*
X1087115D01*
X1056645Y662307D02*
Y673733D01*
X1062358D01*
X1064262Y671829D01*
Y668020D01*
X1062358Y666116D01*
X1056645D01*
X1060454D02*
X1064262Y662307D01*
X1068071Y671829D02*
X1069976Y673733D01*
X1073784D01*
X1075689Y671829D01*
Y669924D01*
X1073784Y668020D01*
X1071880D01*
X1073784D01*
X1075689Y666116D01*
Y664211D01*
X1073784Y662307D01*
X1069976D01*
X1068071Y664211D01*
X1079498Y671829D02*
X1081402Y673733D01*
X1085211D01*
X1087115Y671829D01*
Y669924D01*
X1085211Y668020D01*
X1083306D01*
X1085211D01*
X1087115Y666116D01*
Y664211D01*
X1085211Y662307D01*
X1081402D01*
X1079498Y664211D01*
X1056645Y641987D02*
Y653413D01*
X1062358D01*
X1064262Y651509D01*
Y647700D01*
X1062358Y645796D01*
X1056645D01*
X1060454D02*
X1064262Y641987D01*
X1068071Y651509D02*
X1069976Y653413D01*
X1073784D01*
X1075689Y651509D01*
Y649604D01*
X1073784Y647700D01*
X1071880D01*
X1073784D01*
X1075689Y645796D01*
Y643891D01*
X1073784Y641987D01*
X1069976D01*
X1068071Y643891D01*
X1087115Y641987D02*
X1079498D01*
X1087115Y649604D01*
Y651509D01*
X1085211Y653413D01*
X1081402D01*
X1079498Y651509D01*
X1056009Y621667D02*
Y633093D01*
X1061722D01*
X1063627Y631189D01*
Y627380D01*
X1061722Y625476D01*
X1056009D01*
X1059818D02*
X1063627Y621667D01*
X1067436Y631189D02*
X1069340Y633093D01*
X1073149D01*
X1075053Y631189D01*
Y629284D01*
X1073149Y627380D01*
X1071244D01*
X1073149D01*
X1075053Y625476D01*
Y623571D01*
X1073149Y621667D01*
X1069340D01*
X1067436Y623571D01*
X1078862Y621667D02*
X1082671D01*
X1080766D01*
Y633093D01*
X1078862Y631189D01*
X1056645Y601347D02*
Y612773D01*
X1062358D01*
X1064262Y610869D01*
Y607060D01*
X1062358Y605156D01*
X1056645D01*
X1060454D02*
X1064262Y601347D01*
X1068071Y610869D02*
X1069976Y612773D01*
X1073784D01*
X1075689Y610869D01*
Y608964D01*
X1073784Y607060D01*
X1071880D01*
X1073784D01*
X1075689Y605156D01*
Y603251D01*
X1073784Y601347D01*
X1069976D01*
X1068071Y603251D01*
X1079498Y610869D02*
X1081402Y612773D01*
X1085211D01*
X1087115Y610869D01*
Y603251D01*
X1085211Y601347D01*
X1081402D01*
X1079498Y603251D01*
Y610869D01*
X1056645Y581027D02*
Y592453D01*
X1062358D01*
X1064262Y590549D01*
Y586740D01*
X1062358Y584836D01*
X1056645D01*
X1060454D02*
X1064262Y581027D01*
X1075689D02*
X1068071D01*
X1075689Y588644D01*
Y590549D01*
X1073784Y592453D01*
X1069976D01*
X1068071Y590549D01*
X1079498Y582931D02*
X1081402Y581027D01*
X1085211D01*
X1087115Y582931D01*
Y590549D01*
X1085211Y592453D01*
X1081402D01*
X1079498Y590549D01*
Y588644D01*
X1081402Y586740D01*
X1087115D01*
X1056645Y560707D02*
Y572133D01*
X1062358D01*
X1064262Y570229D01*
Y566420D01*
X1062358Y564516D01*
X1056645D01*
X1060454D02*
X1064262Y560707D01*
X1075689D02*
X1068071D01*
X1075689Y568324D01*
Y570229D01*
X1073784Y572133D01*
X1069976D01*
X1068071Y570229D01*
X1079498D02*
X1081402Y572133D01*
X1085211D01*
X1087115Y570229D01*
Y568324D01*
X1085211Y566420D01*
X1087115Y564516D01*
Y562611D01*
X1085211Y560707D01*
X1081402D01*
X1079498Y562611D01*
Y564516D01*
X1081402Y566420D01*
X1079498Y568324D01*
Y570229D01*
X1081402Y566420D02*
X1085211D01*
X1056645Y540387D02*
Y551813D01*
X1062358D01*
X1064262Y549909D01*
Y546100D01*
X1062358Y544196D01*
X1056645D01*
X1060454D02*
X1064262Y540387D01*
X1075689D02*
X1068071D01*
X1075689Y548004D01*
Y549909D01*
X1073784Y551813D01*
X1069976D01*
X1068071Y549909D01*
X1079498Y551813D02*
X1087115D01*
Y549909D01*
X1079498Y542291D01*
Y540387D01*
X1056645Y520067D02*
Y531493D01*
X1062358D01*
X1064262Y529589D01*
Y525780D01*
X1062358Y523876D01*
X1056645D01*
X1060454D02*
X1064262Y520067D01*
X1075689D02*
X1068071D01*
X1075689Y527684D01*
Y529589D01*
X1073784Y531493D01*
X1069976D01*
X1068071Y529589D01*
X1087115Y531493D02*
X1083306Y529589D01*
X1079498Y525780D01*
Y521971D01*
X1081402Y520067D01*
X1085211D01*
X1087115Y521971D01*
Y523876D01*
X1085211Y525780D01*
X1079498D01*
X1474243Y760097D02*
Y771523D01*
X1479956D01*
X1481861Y769619D01*
Y765810D01*
X1479956Y763906D01*
X1474243D01*
X1478052D02*
X1481861Y760097D01*
X1493287D02*
X1485670D01*
X1493287Y767714D01*
Y769619D01*
X1491383Y771523D01*
X1487574D01*
X1485670Y769619D01*
X1502809Y760097D02*
Y771523D01*
X1497096Y765810D01*
X1504713D01*
X1482130Y817262D02*
Y828688D01*
X1487843D01*
X1489748Y826784D01*
Y822975D01*
X1487843Y821070D01*
X1482130D01*
X1485939D02*
X1489748Y817262D01*
X1501174D02*
X1493556D01*
X1501174Y824879D01*
Y826784D01*
X1499270Y828688D01*
X1495461D01*
X1493556Y826784D01*
X1504983D02*
X1506887Y828688D01*
X1510696D01*
X1512600Y826784D01*
Y824879D01*
X1510696Y822975D01*
X1508792D01*
X1510696D01*
X1512600Y821070D01*
Y819166D01*
X1510696Y817262D01*
X1506887D01*
X1504983Y819166D01*
X1311915Y579757D02*
Y591183D01*
X1317628D01*
X1319532Y589279D01*
Y585470D01*
X1317628Y583566D01*
X1311915D01*
X1315724D02*
X1319532Y579757D01*
X1330959D02*
X1323341D01*
X1330959Y587374D01*
Y589279D01*
X1329054Y591183D01*
X1325246D01*
X1323341Y589279D01*
X1342385Y579757D02*
X1334768D01*
X1342385Y587374D01*
Y589279D01*
X1340481Y591183D01*
X1336672D01*
X1334768Y589279D01*
X1293499Y509907D02*
Y521333D01*
X1299212D01*
X1301117Y519429D01*
Y515620D01*
X1299212Y513716D01*
X1293499D01*
X1297308D02*
X1301117Y509907D01*
X1312543D02*
X1304926D01*
X1312543Y517524D01*
Y519429D01*
X1310639Y521333D01*
X1306830D01*
X1304926Y519429D01*
X1316352Y509907D02*
X1320161D01*
X1318256D01*
Y521333D01*
X1316352Y519429D01*
X1294135Y526417D02*
Y537843D01*
X1299848D01*
X1301752Y535939D01*
Y532130D01*
X1299848Y530226D01*
X1294135D01*
X1297944D02*
X1301752Y526417D01*
X1313179D02*
X1305561D01*
X1313179Y534034D01*
Y535939D01*
X1311274Y537843D01*
X1307466D01*
X1305561Y535939D01*
X1316988D02*
X1318892Y537843D01*
X1322701D01*
X1324605Y535939D01*
Y528321D01*
X1322701Y526417D01*
X1318892D01*
X1316988Y528321D01*
Y535939D01*
X1562815Y503911D02*
X1574241D01*
Y498198D01*
X1572337Y496293D01*
X1568528D01*
X1566624Y498198D01*
Y503911D01*
Y500102D02*
X1562815Y496293D01*
Y492485D02*
Y488676D01*
Y490580D01*
X1574241D01*
X1572337Y492485D01*
X1564720Y482963D02*
X1562815Y481058D01*
Y477249D01*
X1564720Y475345D01*
X1572337D01*
X1574241Y477249D01*
Y481058D01*
X1572337Y482963D01*
X1570433D01*
X1568528Y481058D01*
Y475345D01*
X1600454Y616204D02*
Y627630D01*
X1606167D01*
X1608071Y625726D01*
Y621917D01*
X1606167Y620013D01*
X1600454D01*
X1604263D02*
X1608071Y616204D01*
X1611880D02*
X1615689D01*
X1613785D01*
Y627630D01*
X1611880Y625726D01*
X1621402D02*
X1623307Y627630D01*
X1627115D01*
X1629020Y625726D01*
Y623821D01*
X1627115Y621917D01*
X1629020Y620013D01*
Y618108D01*
X1627115Y616204D01*
X1623307D01*
X1621402Y618108D01*
Y620013D01*
X1623307Y621917D01*
X1621402Y623821D01*
Y625726D01*
X1623307Y621917D02*
X1627115D01*
X1584395Y550763D02*
X1595822D01*
Y545050D01*
X1593917Y543145D01*
X1590108D01*
X1588204Y545050D01*
Y550763D01*
Y546954D02*
X1584395Y543145D01*
Y539337D02*
Y535528D01*
Y537432D01*
X1595822D01*
X1593917Y539337D01*
X1595822Y529815D02*
Y522197D01*
X1593917D01*
X1586300Y529815D01*
X1584395D01*
X1563057Y616587D02*
Y628013D01*
X1568770D01*
X1570675Y626109D01*
Y622300D01*
X1568770Y620396D01*
X1563057D01*
X1566866D02*
X1570675Y616587D01*
X1574483D02*
X1578292D01*
X1576388D01*
Y628013D01*
X1574483Y626109D01*
X1591623Y628013D02*
X1587814Y626109D01*
X1584005Y622300D01*
Y618491D01*
X1585910Y616587D01*
X1589718D01*
X1591623Y618491D01*
Y620396D01*
X1589718Y622300D01*
X1584005D01*
X1551003Y559097D02*
X1562429D01*
Y553384D01*
X1560525Y551480D01*
X1556716D01*
X1554812Y553384D01*
Y559097D01*
Y555288D02*
X1551003Y551480D01*
Y547671D02*
Y543862D01*
Y545766D01*
X1562429D01*
X1560525Y547671D01*
X1562429Y530531D02*
Y538149D01*
X1556716D01*
X1558620Y534340D01*
Y532436D01*
X1556716Y530531D01*
X1552907D01*
X1551003Y532436D01*
Y536245D01*
X1552907Y538149D01*
X1387477Y646743D02*
X1398903D01*
Y641030D01*
X1396999Y639125D01*
X1393190D01*
X1391286Y641030D01*
Y646743D01*
Y642934D02*
X1387477Y639125D01*
Y635317D02*
Y631508D01*
Y633412D01*
X1398903D01*
X1396999Y635317D01*
X1387477Y620081D02*
X1398903D01*
X1393190Y625795D01*
Y618177D01*
X1308737Y646743D02*
X1320163D01*
Y641030D01*
X1318259Y639125D01*
X1314450D01*
X1312546Y641030D01*
Y646743D01*
Y642934D02*
X1308737Y639125D01*
Y635317D02*
Y631508D01*
Y633412D01*
X1320163D01*
X1318259Y635317D01*
Y625795D02*
X1320163Y623890D01*
Y620081D01*
X1318259Y618177D01*
X1316354D01*
X1314450Y620081D01*
Y621986D01*
Y620081D01*
X1312546Y618177D01*
X1310641D01*
X1308737Y620081D01*
Y623890D01*
X1310641Y625795D01*
X1483047Y838837D02*
Y850263D01*
X1488760D01*
X1490665Y848359D01*
Y844550D01*
X1488760Y842646D01*
X1483047D01*
X1486856D02*
X1490665Y838837D01*
X1494473D02*
X1498282D01*
X1496378D01*
Y850263D01*
X1494473Y848359D01*
X1511613Y838837D02*
X1503995D01*
X1511613Y846454D01*
Y848359D01*
X1509709Y850263D01*
X1505900D01*
X1503995Y848359D01*
X1495112Y1005207D02*
Y1016633D01*
X1500825D01*
X1502729Y1014729D01*
Y1010920D01*
X1500825Y1009016D01*
X1495112D01*
X1498920D02*
X1502729Y1005207D01*
X1506538D02*
X1510347D01*
X1508442D01*
Y1016633D01*
X1506538Y1014729D01*
X1516060Y1005207D02*
X1519868D01*
X1517964D01*
Y1016633D01*
X1516060Y1014729D01*
X1494477Y988697D02*
Y1000123D01*
X1500190D01*
X1502095Y998219D01*
Y994410D01*
X1500190Y992506D01*
X1494477D01*
X1498286D02*
X1502095Y988697D01*
X1505903D02*
X1509712D01*
X1507808D01*
Y1000123D01*
X1505903Y998219D01*
X1515425D02*
X1517330Y1000123D01*
X1521138D01*
X1523043Y998219D01*
Y990601D01*
X1521138Y988697D01*
X1517330D01*
X1515425Y990601D01*
Y998219D01*
X1494158Y972187D02*
Y983613D01*
X1499871D01*
X1501776Y981709D01*
Y977900D01*
X1499871Y975996D01*
X1494158D01*
X1497967D02*
X1501776Y972187D01*
X1505584Y974091D02*
X1507489Y972187D01*
X1511297D01*
X1513202Y974091D01*
Y981709D01*
X1511297Y983613D01*
X1507489D01*
X1505584Y981709D01*
Y979804D01*
X1507489Y977900D01*
X1513202D01*
X1649098Y972187D02*
Y983613D01*
X1654811D01*
X1656716Y981709D01*
Y977900D01*
X1654811Y975996D01*
X1649098D01*
X1652907D02*
X1656716Y972187D01*
X1660524Y981709D02*
X1662429Y983613D01*
X1666237D01*
X1668142Y981709D01*
Y979804D01*
X1666237Y977900D01*
X1668142Y975996D01*
Y974091D01*
X1666237Y972187D01*
X1662429D01*
X1660524Y974091D01*
Y975996D01*
X1662429Y977900D01*
X1660524Y979804D01*
Y981709D01*
X1662429Y977900D02*
X1666237D01*
X1649098Y989967D02*
Y1001393D01*
X1654811D01*
X1656716Y999489D01*
Y995680D01*
X1654811Y993776D01*
X1649098D01*
X1652907D02*
X1656716Y989967D01*
X1660524Y1001393D02*
X1668142D01*
Y999489D01*
X1660524Y991871D01*
Y989967D01*
X1649098Y1007747D02*
Y1019173D01*
X1654811D01*
X1656716Y1017269D01*
Y1013460D01*
X1654811Y1011556D01*
X1649098D01*
X1652907D02*
X1656716Y1007747D01*
X1668142Y1019173D02*
X1664333Y1017269D01*
X1660524Y1013460D01*
Y1009651D01*
X1662429Y1007747D01*
X1666237D01*
X1668142Y1009651D01*
Y1011556D01*
X1666237Y1013460D01*
X1660524D01*
X1460232Y403028D02*
Y414454D01*
X1465946D01*
X1467850Y412550D01*
Y408741D01*
X1465946Y406837D01*
X1460232D01*
X1464041D02*
X1467850Y403028D01*
X1479276Y414454D02*
X1471659D01*
Y408741D01*
X1475468Y410646D01*
X1477372D01*
X1479276Y408741D01*
Y404933D01*
X1477372Y403028D01*
X1473563D01*
X1471659Y404933D01*
X1460232Y324599D02*
Y336025D01*
X1465946D01*
X1467850Y334120D01*
Y330312D01*
X1465946Y328407D01*
X1460232D01*
X1464041D02*
X1467850Y324599D01*
X1477372D02*
Y336025D01*
X1471659Y330312D01*
X1479276D01*
X1683388Y372747D02*
Y384173D01*
X1689101D01*
X1691006Y382269D01*
Y378460D01*
X1689101Y376556D01*
X1683388D01*
X1687197D02*
X1691006Y372747D01*
X1702432D02*
X1694814D01*
X1702432Y380364D01*
Y382269D01*
X1700527Y384173D01*
X1696719D01*
X1694814Y382269D01*
X1680352Y399417D02*
Y410843D01*
X1686066D01*
X1687970Y408939D01*
Y405130D01*
X1686066Y403226D01*
X1680352D01*
X1684161D02*
X1687970Y399417D01*
X1691779D02*
X1695588D01*
X1693683D01*
Y410843D01*
X1691779Y408939D01*
X958216Y553721D02*
Y561339D01*
X956311Y563243D01*
X952503D01*
X950598Y561339D01*
Y553721D01*
X952503Y551817D01*
X956311D01*
X954407Y555626D02*
X958216Y551817D01*
X956311D02*
X958216Y553721D01*
X962024Y561339D02*
X963929Y563243D01*
X967738D01*
X969642Y561339D01*
Y559434D01*
X967738Y557530D01*
X965833D01*
X967738D01*
X969642Y555626D01*
Y553721D01*
X967738Y551817D01*
X963929D01*
X962024Y553721D01*
X1646556Y598171D02*
Y605789D01*
X1644651Y607693D01*
X1640842D01*
X1638938Y605789D01*
Y598171D01*
X1640842Y596267D01*
X1644651D01*
X1642747Y600076D02*
X1646556Y596267D01*
X1644651D02*
X1646556Y598171D01*
X1657982Y596267D02*
X1650364D01*
X1657982Y603884D01*
Y605789D01*
X1656078Y607693D01*
X1652269D01*
X1650364Y605789D01*
X1548130Y598171D02*
Y605789D01*
X1546226Y607693D01*
X1542417D01*
X1540513Y605789D01*
Y598171D01*
X1542417Y596267D01*
X1546226D01*
X1544321Y600076D02*
X1548130Y596267D01*
X1546226D02*
X1548130Y598171D01*
X1551939Y596267D02*
X1555748D01*
X1553843D01*
Y607693D01*
X1551939Y605789D01*
X949328Y874397D02*
Y885823D01*
X953137Y882014D01*
X956946Y885823D01*
Y874397D01*
X960754Y876301D02*
X962659Y874397D01*
X966468D01*
X968372Y876301D01*
Y883919D01*
X966468Y885823D01*
X962659D01*
X960754Y883919D01*
Y882014D01*
X962659Y880110D01*
X968372D01*
X950598Y831217D02*
Y842643D01*
X954407Y838834D01*
X958216Y842643D01*
Y831217D01*
X962024Y840739D02*
X963929Y842643D01*
X967738D01*
X969642Y840739D01*
Y838834D01*
X967738Y836930D01*
X969642Y835026D01*
Y833121D01*
X967738Y831217D01*
X963929D01*
X962024Y833121D01*
Y835026D01*
X963929Y836930D01*
X962024Y838834D01*
Y840739D01*
X963929Y836930D02*
X967738D01*
X950598Y791847D02*
Y803273D01*
X954407Y799464D01*
X958216Y803273D01*
Y791847D01*
X962024Y803273D02*
X969642D01*
Y801369D01*
X962024Y793751D01*
Y791847D01*
X950598Y752477D02*
Y763903D01*
X954407Y760094D01*
X958216Y763903D01*
Y752477D01*
X969642Y763903D02*
X965833Y761999D01*
X962024Y758190D01*
Y754381D01*
X963929Y752477D01*
X967738D01*
X969642Y754381D01*
Y756286D01*
X967738Y758190D01*
X962024D01*
X950598Y710567D02*
Y721993D01*
X954407Y718184D01*
X958216Y721993D01*
Y710567D01*
X969642Y721993D02*
X962024D01*
Y716280D01*
X965833Y718184D01*
X967738D01*
X969642Y716280D01*
Y712471D01*
X967738Y710567D01*
X963929D01*
X962024Y712471D01*
X950598Y669927D02*
Y681353D01*
X954407Y677544D01*
X958216Y681353D01*
Y669927D01*
X967738D02*
Y681353D01*
X962024Y675640D01*
X969642D01*
X949328Y629287D02*
Y640713D01*
X953137Y636904D01*
X956946Y640713D01*
Y629287D01*
X960754Y638809D02*
X962659Y640713D01*
X966468D01*
X968372Y638809D01*
Y636904D01*
X966468Y635000D01*
X964563D01*
X966468D01*
X968372Y633096D01*
Y631191D01*
X966468Y629287D01*
X962659D01*
X960754Y631191D01*
X950725Y590552D02*
Y601978D01*
X954534Y598169D01*
X958343Y601978D01*
Y590552D01*
X969769D02*
X962151D01*
X969769Y598169D01*
Y600074D01*
X967865Y601978D01*
X964056D01*
X962151Y600074D01*
X1252223Y593727D02*
Y605153D01*
X1256031Y601344D01*
X1259840Y605153D01*
Y593727D01*
X1263649D02*
X1267458D01*
X1265553D01*
Y605153D01*
X1263649Y603249D01*
X868967Y1148026D02*
Y1159452D01*
X872775Y1155643D01*
X876584Y1159452D01*
Y1148026D01*
X880393Y1159452D02*
Y1148026D01*
X886106D01*
X888010Y1149930D01*
Y1157548D01*
X886106Y1159452D01*
X880393D01*
X891819Y1148026D02*
X895628D01*
X893724D01*
Y1159452D01*
X891819Y1157548D01*
X1100996Y784302D02*
Y772876D01*
X1108614D01*
X1120040D02*
X1112422D01*
X1120040Y780493D01*
Y782398D01*
X1118136Y784302D01*
X1114327D01*
X1112422Y782398D01*
X1531112Y422144D02*
Y410718D01*
X1538730D01*
X1542538D02*
X1546347D01*
X1544443D01*
Y422144D01*
X1542538Y420240D01*
X1323916Y424294D02*
X1320107D01*
X1322011D01*
Y414772D01*
X1320107Y412868D01*
X1318202D01*
X1316298Y414772D01*
X1327724Y422390D02*
X1329629Y424294D01*
X1333438D01*
X1335342Y422390D01*
Y420485D01*
X1333438Y418581D01*
X1331533D01*
X1333438D01*
X1335342Y416677D01*
Y414772D01*
X1333438Y412868D01*
X1329629D01*
X1327724Y414772D01*
X1278126Y879598D02*
X1274317D01*
X1276221D01*
Y870076D01*
X1274317Y868172D01*
X1272412D01*
X1270508Y870076D01*
X1281934Y868172D02*
X1285743D01*
X1283839D01*
Y879598D01*
X1281934Y877694D01*
X1520251Y300303D02*
X1512634D01*
Y294590D01*
X1516442D01*
X1512634D01*
Y288877D01*
X1524060D02*
X1527869D01*
X1525964D01*
Y300303D01*
X1524060Y298399D01*
X1128398Y701673D02*
Y690247D01*
X1134111D01*
X1136016Y692151D01*
Y699769D01*
X1134111Y701673D01*
X1128398D01*
X1139824Y692151D02*
X1141729Y690247D01*
X1145537D01*
X1147442Y692151D01*
Y699769D01*
X1145537Y701673D01*
X1141729D01*
X1139824Y699769D01*
Y697864D01*
X1141729Y695960D01*
X1147442D01*
X1459521Y396010D02*
Y384584D01*
X1465234D01*
X1467138Y386488D01*
Y394105D01*
X1465234Y396010D01*
X1459521D01*
X1470947Y394105D02*
X1472851Y396010D01*
X1476660D01*
X1478564Y394105D01*
Y392201D01*
X1476660Y390297D01*
X1478564Y388392D01*
Y386488D01*
X1476660Y384584D01*
X1472851D01*
X1470947Y386488D01*
Y388392D01*
X1472851Y390297D01*
X1470947Y392201D01*
Y394105D01*
X1472851Y390297D02*
X1476660D01*
X1459868Y316547D02*
Y305121D01*
X1465581D01*
X1467486Y307025D01*
Y314643D01*
X1465581Y316547D01*
X1459868D01*
X1471294D02*
X1478912D01*
Y314643D01*
X1471294Y307025D01*
Y305121D01*
X1456058Y1017903D02*
Y1006477D01*
X1461771D01*
X1463676Y1008381D01*
Y1015999D01*
X1461771Y1017903D01*
X1456058D01*
X1475102D02*
X1471293Y1015999D01*
X1467484Y1012190D01*
Y1008381D01*
X1469389Y1006477D01*
X1473197D01*
X1475102Y1008381D01*
Y1010286D01*
X1473197Y1012190D01*
X1467484D01*
X1456058Y1001393D02*
Y989967D01*
X1461771D01*
X1463676Y991871D01*
Y999489D01*
X1461771Y1001393D01*
X1456058D01*
X1475102D02*
X1467484D01*
Y995680D01*
X1471293Y997584D01*
X1473197D01*
X1475102Y995680D01*
Y991871D01*
X1473197Y989967D01*
X1469389D01*
X1467484Y991871D01*
X1456058Y984883D02*
Y973457D01*
X1461771D01*
X1463676Y975361D01*
Y982979D01*
X1461771Y984883D01*
X1456058D01*
X1473197Y973457D02*
Y984883D01*
X1467484Y979170D01*
X1475102D01*
X1609728Y983613D02*
Y972187D01*
X1615441D01*
X1617346Y974091D01*
Y981709D01*
X1615441Y983613D01*
X1609728D01*
X1621154Y981709D02*
X1623059Y983613D01*
X1626868D01*
X1628772Y981709D01*
Y979804D01*
X1626868Y977900D01*
X1624963D01*
X1626868D01*
X1628772Y975996D01*
Y974091D01*
X1626868Y972187D01*
X1623059D01*
X1621154Y974091D01*
X1609728Y1001393D02*
Y989967D01*
X1615441D01*
X1617346Y991871D01*
Y999489D01*
X1615441Y1001393D01*
X1609728D01*
X1628772Y989967D02*
X1621154D01*
X1628772Y997584D01*
Y999489D01*
X1626868Y1001393D01*
X1623059D01*
X1621154Y999489D01*
X1610363Y1019173D02*
Y1007747D01*
X1616076D01*
X1617980Y1009651D01*
Y1017269D01*
X1616076Y1019173D01*
X1610363D01*
X1621789Y1007747D02*
X1625598D01*
X1623693D01*
Y1019173D01*
X1621789Y1017269D01*
X1111250Y567687D02*
X1113154Y569592D01*
Y573401D01*
X1111250Y575305D01*
X1103632D01*
X1101728Y573401D01*
Y569592D01*
X1103632Y567687D01*
X1101728Y556261D02*
Y563879D01*
X1109345Y556261D01*
X1111250D01*
X1113154Y558166D01*
Y561974D01*
X1111250Y563879D01*
X1113154Y552452D02*
Y544835D01*
X1111250D01*
X1103632Y552452D01*
X1101728D01*
X1172352Y567697D02*
X1174257Y569602D01*
Y573410D01*
X1172352Y575315D01*
X1164735D01*
X1162830Y573410D01*
Y569602D01*
X1164735Y567697D01*
X1162830Y556271D02*
Y563888D01*
X1170448Y556271D01*
X1172352D01*
X1174257Y558175D01*
Y561984D01*
X1172352Y563888D01*
X1174257Y544845D02*
X1172352Y548653D01*
X1168543Y552462D01*
X1164735D01*
X1162830Y550558D01*
Y546749D01*
X1164735Y544845D01*
X1166639D01*
X1168543Y546749D01*
Y552462D01*
X1130209Y908707D02*
X1128305Y910611D01*
X1124496D01*
X1122592Y908707D01*
Y901089D01*
X1124496Y899185D01*
X1128305D01*
X1130209Y901089D01*
X1141636Y899185D02*
X1134018D01*
X1141636Y906803D01*
Y908707D01*
X1139731Y910611D01*
X1135923D01*
X1134018Y908707D01*
X1153062Y910611D02*
X1145444D01*
Y904898D01*
X1149253Y906803D01*
X1151158D01*
X1153062Y904898D01*
Y901089D01*
X1151158Y899185D01*
X1147349D01*
X1145444Y901089D01*
X1480305Y466167D02*
X1478401Y468071D01*
X1474592D01*
X1472688Y466167D01*
Y458549D01*
X1474592Y456645D01*
X1478401D01*
X1480305Y458549D01*
X1491732Y456645D02*
X1484114D01*
X1491732Y464262D01*
Y466167D01*
X1489827Y468071D01*
X1486019D01*
X1484114Y466167D01*
X1501254Y456645D02*
Y468071D01*
X1495540Y462358D01*
X1503158D01*
X1648570Y807319D02*
X1646666Y809223D01*
X1642857D01*
X1640953Y807319D01*
Y799702D01*
X1642857Y797797D01*
X1646666D01*
X1648570Y799702D01*
X1659997Y797797D02*
X1652379D01*
X1659997Y805415D01*
Y807319D01*
X1658092Y809223D01*
X1654283D01*
X1652379Y807319D01*
X1663806D02*
X1665710Y809223D01*
X1669519D01*
X1671423Y807319D01*
Y805415D01*
X1669519Y803510D01*
X1667614D01*
X1669519D01*
X1671423Y801606D01*
Y799702D01*
X1669519Y797797D01*
X1665710D01*
X1663806Y799702D01*
X1548129Y496567D02*
X1550033Y498472D01*
Y502281D01*
X1548129Y504185D01*
X1540511D01*
X1538607Y502281D01*
Y498472D01*
X1540511Y496567D01*
X1538607Y485141D02*
Y492759D01*
X1546224Y485141D01*
X1548129D01*
X1550033Y487046D01*
Y490854D01*
X1548129Y492759D01*
X1538607Y473715D02*
Y481332D01*
X1546224Y473715D01*
X1548129D01*
X1550033Y475619D01*
Y479428D01*
X1548129Y481332D01*
X1670049Y540383D02*
X1671953Y542287D01*
Y546096D01*
X1670049Y548001D01*
X1662431D01*
X1660527Y546096D01*
Y542287D01*
X1662431Y540383D01*
X1660527Y528957D02*
Y536574D01*
X1668144Y528957D01*
X1670049D01*
X1671953Y530861D01*
Y534670D01*
X1670049Y536574D01*
X1660527Y525148D02*
Y521339D01*
Y523244D01*
X1671953D01*
X1670049Y525148D01*
X1390652Y985519D02*
X1388748Y987423D01*
X1384939D01*
X1383035Y985519D01*
Y977901D01*
X1384939Y975997D01*
X1388748D01*
X1390652Y977901D01*
X1402079Y975997D02*
X1394461D01*
X1402079Y983614D01*
Y985519D01*
X1400174Y987423D01*
X1396366D01*
X1394461Y985519D01*
X1405888D02*
X1407792Y987423D01*
X1411601D01*
X1413505Y985519D01*
Y977901D01*
X1411601Y975997D01*
X1407792D01*
X1405888Y977901D01*
Y985519D01*
X1389990Y915357D02*
X1388085Y917261D01*
X1384277D01*
X1382372Y915357D01*
Y907739D01*
X1384277Y905835D01*
X1388085D01*
X1389990Y907739D01*
X1393799Y905835D02*
X1397608D01*
X1395703D01*
Y917261D01*
X1393799Y915357D01*
X1403321Y907739D02*
X1405225Y905835D01*
X1409034D01*
X1410938Y907739D01*
Y915357D01*
X1409034Y917261D01*
X1405225D01*
X1403321Y915357D01*
Y913452D01*
X1405225Y911548D01*
X1410938D01*
X1375409Y639125D02*
X1377313Y641030D01*
Y644838D01*
X1375409Y646743D01*
X1367791D01*
X1365887Y644838D01*
Y641030D01*
X1367791Y639125D01*
X1365887Y635317D02*
Y631508D01*
Y633412D01*
X1377313D01*
X1375409Y635317D01*
Y625795D02*
X1377313Y623890D01*
Y620081D01*
X1375409Y618177D01*
X1373504D01*
X1371600Y620081D01*
X1369696Y618177D01*
X1367791D01*
X1365887Y620081D01*
Y623890D01*
X1367791Y625795D01*
X1369696D01*
X1371600Y623890D01*
X1373504Y625795D01*
X1375409D01*
X1371600Y623890D02*
Y620081D01*
X1296669Y639125D02*
X1298573Y641030D01*
Y644838D01*
X1296669Y646743D01*
X1289051D01*
X1287147Y644838D01*
Y641030D01*
X1289051Y639125D01*
X1287147Y635317D02*
Y631508D01*
Y633412D01*
X1298573D01*
X1296669Y635317D01*
X1298573Y625795D02*
Y618177D01*
X1296669D01*
X1289051Y625795D01*
X1287147D01*
X1230629Y637855D02*
X1232533Y639760D01*
Y643568D01*
X1230629Y645473D01*
X1223011D01*
X1221107Y643568D01*
Y639760D01*
X1223011Y637855D01*
X1221107Y634047D02*
Y630238D01*
Y632142D01*
X1232533D01*
X1230629Y634047D01*
X1232533Y616907D02*
X1230629Y620716D01*
X1226820Y624525D01*
X1223011D01*
X1221107Y622620D01*
Y618811D01*
X1223011Y616907D01*
X1224916D01*
X1226820Y618811D01*
Y624525D01*
X1348739Y1056955D02*
X1350643Y1058860D01*
Y1062669D01*
X1348739Y1064573D01*
X1341121D01*
X1339217Y1062669D01*
Y1058860D01*
X1341121Y1056955D01*
X1339217Y1053147D02*
Y1049338D01*
Y1051242D01*
X1350643D01*
X1348739Y1053147D01*
X1350643Y1036007D02*
Y1043625D01*
X1344930D01*
X1346834Y1039816D01*
Y1037912D01*
X1344930Y1036007D01*
X1341121D01*
X1339217Y1037912D01*
Y1041720D01*
X1341121Y1043625D01*
X1160845Y1113789D02*
X1158940Y1115693D01*
X1155132D01*
X1153227Y1113789D01*
Y1106171D01*
X1155132Y1104267D01*
X1158940D01*
X1160845Y1106171D01*
X1164653Y1104267D02*
X1168462D01*
X1166558D01*
Y1115693D01*
X1164653Y1113789D01*
X1179889Y1104267D02*
Y1115693D01*
X1174175Y1109980D01*
X1181793D01*
X1165545Y923289D02*
X1163640Y925193D01*
X1159831D01*
X1157927Y923289D01*
Y915671D01*
X1159831Y913767D01*
X1163640D01*
X1165545Y915671D01*
X1169353Y913767D02*
X1173162D01*
X1171258D01*
Y925193D01*
X1169353Y923289D01*
X1178875D02*
X1180780Y925193D01*
X1184588D01*
X1186493Y923289D01*
Y921384D01*
X1184588Y919480D01*
X1182684D01*
X1184588D01*
X1186493Y917576D01*
Y915671D01*
X1184588Y913767D01*
X1180780D01*
X1178875Y915671D01*
X1268573Y899414D02*
X1266669Y901319D01*
X1262860D01*
X1260956Y899414D01*
Y891797D01*
X1262860Y889893D01*
X1266669D01*
X1268573Y891797D01*
X1272382Y889893D02*
X1276191D01*
X1274286D01*
Y901319D01*
X1272382Y899414D01*
X1289522Y889893D02*
X1281904D01*
X1289522Y897510D01*
Y899414D01*
X1287617Y901319D01*
X1283808D01*
X1281904Y899414D01*
X1336039Y945831D02*
X1337943Y947735D01*
Y951544D01*
X1336039Y953448D01*
X1328421D01*
X1326517Y951544D01*
Y947735D01*
X1328421Y945831D01*
X1326517Y942022D02*
Y938213D01*
Y940118D01*
X1337943D01*
X1336039Y942022D01*
X1326517Y932500D02*
Y928691D01*
Y930596D01*
X1337943D01*
X1336039Y932500D01*
X1327149Y1056575D02*
X1329053Y1058480D01*
Y1062289D01*
X1327149Y1064193D01*
X1319531D01*
X1317627Y1062289D01*
Y1058480D01*
X1319531Y1056575D01*
X1317627Y1052767D02*
Y1048958D01*
Y1050862D01*
X1329053D01*
X1327149Y1052767D01*
Y1043245D02*
X1329053Y1041340D01*
Y1037532D01*
X1327149Y1035627D01*
X1319531D01*
X1317627Y1037532D01*
Y1041340D01*
X1319531Y1043245D01*
X1327149D01*
X1166496Y1089659D02*
X1164591Y1091563D01*
X1160782D01*
X1158878Y1089659D01*
Y1082041D01*
X1160782Y1080137D01*
X1164591D01*
X1166496Y1082041D01*
X1170304D02*
X1172209Y1080137D01*
X1176018D01*
X1177922Y1082041D01*
Y1089659D01*
X1176018Y1091563D01*
X1172209D01*
X1170304Y1089659D01*
Y1087754D01*
X1172209Y1085850D01*
X1177922D01*
X1253489Y1100074D02*
X1255393Y1101979D01*
Y1105788D01*
X1253489Y1107692D01*
X1245871D01*
X1243967Y1105788D01*
Y1101979D01*
X1245871Y1100074D01*
X1253489Y1096266D02*
X1255393Y1094361D01*
Y1090553D01*
X1253489Y1088648D01*
X1251584D01*
X1249680Y1090553D01*
X1247776Y1088648D01*
X1245871D01*
X1243967Y1090553D01*
Y1094361D01*
X1245871Y1096266D01*
X1247776D01*
X1249680Y1094361D01*
X1251584Y1096266D01*
X1253489D01*
X1249680Y1094361D02*
Y1090553D01*
X1230980Y903149D02*
X1232884Y905053D01*
Y908862D01*
X1230980Y910766D01*
X1223362D01*
X1221458Y908862D01*
Y905053D01*
X1223362Y903149D01*
X1232884Y899340D02*
Y891722D01*
X1230980D01*
X1223362Y899340D01*
X1221458D01*
X859789Y1110234D02*
X861693Y1112139D01*
Y1115948D01*
X859789Y1117852D01*
X852171D01*
X850267Y1115948D01*
Y1112139D01*
X852171Y1110234D01*
X861693Y1098808D02*
X859789Y1102617D01*
X855980Y1106426D01*
X852171D01*
X850267Y1104521D01*
Y1100713D01*
X852171Y1098808D01*
X854076D01*
X855980Y1100713D01*
Y1106426D01*
X882385Y1110234D02*
X884290Y1112139D01*
Y1115947D01*
X882385Y1117852D01*
X874768D01*
X872863Y1115947D01*
Y1112139D01*
X874768Y1110234D01*
X884290Y1098808D02*
Y1106426D01*
X878576D01*
X880481Y1102617D01*
Y1100713D01*
X878576Y1098808D01*
X874768D01*
X872863Y1100713D01*
Y1104521D01*
X874768Y1106426D01*
X1618739Y339468D02*
X1616835Y341372D01*
X1613026D01*
X1611122Y339468D01*
Y331850D01*
X1613026Y329946D01*
X1616835D01*
X1618739Y331850D01*
X1628262Y329946D02*
Y341372D01*
X1622548Y335659D01*
X1630166D01*
X1643885Y339468D02*
X1641981Y341372D01*
X1638172D01*
X1636268Y339468D01*
Y331850D01*
X1638172Y329946D01*
X1641981D01*
X1643885Y331850D01*
X1647694Y339468D02*
X1649599Y341372D01*
X1653407D01*
X1655312Y339468D01*
Y337564D01*
X1653407Y335659D01*
X1651503D01*
X1653407D01*
X1655312Y333755D01*
Y331850D01*
X1653407Y329946D01*
X1649599D01*
X1647694Y331850D01*
X1612135Y404492D02*
X1610231Y406396D01*
X1606422D01*
X1604518Y404492D01*
Y396874D01*
X1606422Y394970D01*
X1610231D01*
X1612135Y396874D01*
X1623562Y394970D02*
X1615944D01*
X1623562Y402588D01*
Y404492D01*
X1621658Y406396D01*
X1617849D01*
X1615944Y404492D01*
X1688194Y359326D02*
X1686290Y361230D01*
X1682481D01*
X1680577Y359326D01*
Y351708D01*
X1682481Y349804D01*
X1686290D01*
X1688194Y351708D01*
X1692003Y349804D02*
X1695812D01*
X1693907D01*
Y361230D01*
X1692003Y359326D01*
X1386842Y970913D02*
X1394460Y959487D01*
Y970913D02*
X1386842Y959487D01*
X1398269D02*
X1402078D01*
X1400173D01*
Y970913D01*
X1398269Y969009D01*
D15*
X1542670Y773170D02*
Y804170D01*
X1558670Y773170D02*
Y804170D01*
X1542670D02*
X1558670D01*
X1542670Y773170D02*
X1558670D01*
X918900Y1104060D02*
Y1171460D01*
Y914960D02*
Y922460D01*
X1075050Y914960D02*
X1100400D01*
X918900D02*
X944250D01*
X1100400Y1104060D02*
Y1171460D01*
Y914960D02*
Y922460D01*
X918900Y1171460D02*
X1100400D01*
X787071Y259267D02*
Y391067D01*
Y259267D02*
X1310871D01*
Y391067D01*
X1295471D02*
X1310871D01*
X1253471D02*
X1260471D01*
X1211471D02*
X1218471D01*
X1169471D02*
X1176471D01*
X1127471D02*
X1134471D01*
X1085471D02*
X1092471D01*
X1043471D02*
X1050471D01*
X1001471D02*
X1008471D01*
X959471D02*
X966471D01*
X917471D02*
X924471D01*
X875471D02*
X882471D01*
X833471D02*
X840471D01*
X787071D02*
X798471D01*
X1155206Y723729D02*
Y748229D01*
X1133956Y712479D02*
X1142456D01*
X1121206Y723729D02*
Y748229D01*
X1133956Y759479D02*
X1142456D01*
X1483300Y282555D02*
X1491040D01*
X1483300Y266085D02*
X1491040D01*
X1598640Y319870D02*
Y393870D01*
X1530640Y319870D02*
X1544390D01*
X1584890D02*
X1598640D01*
X1530640D02*
Y393870D01*
X1544390D01*
X1584890D02*
X1598640D01*
X1336970Y259221D02*
X1428970D01*
X1336970D02*
Y405221D01*
X1402720D02*
X1428970D01*
X1336970D02*
X1363220D01*
X1428970Y386971D02*
Y405221D01*
Y259221D02*
Y347471D01*
X1675891Y323597D02*
X1703891D01*
X1675891Y289597D02*
X1703891D01*
X1366570Y696080D02*
Y759080D01*
X1400320D02*
X1404570D01*
X1366570D02*
X1370820D01*
X1404570Y696080D02*
Y759080D01*
X1400320Y696080D02*
X1404570D01*
X1366570D02*
X1370820D01*
X1292910D02*
Y759080D01*
X1326660D02*
X1330910D01*
X1292910D02*
X1297160D01*
X1330910Y696080D02*
Y759080D01*
X1326660Y696080D02*
X1330910D01*
X1292910D02*
X1297160D01*
X1219250D02*
Y759080D01*
X1253000D02*
X1257250D01*
X1219250D02*
X1223500D01*
X1257250Y696080D02*
Y759080D01*
X1253000Y696080D02*
X1257250D01*
X1219250D02*
X1223500D01*
X1153206Y663767D02*
Y672767D01*
X1123206Y663767D02*
X1130206D01*
X1146206D02*
X1153206D01*
X1123206D02*
Y672767D01*
X1136706Y677767D02*
X1139706D01*
X1162445Y817446D02*
Y831026D01*
X1113395Y817446D02*
X1162445D01*
X1113395D02*
Y831026D01*
X1162445D01*
X1381460Y931690D02*
Y965690D01*
X1343960Y931690D02*
Y965690D01*
X1623186Y577610D02*
X1629786D01*
Y569460D02*
Y577610D01*
X1600586D02*
X1607186D01*
X1600586Y569460D02*
Y577610D01*
X1561876Y564610D02*
X1568476D01*
X1561876D02*
Y572760D01*
X1584476Y564610D02*
X1591076D01*
Y572760D01*
X975250Y519170D02*
X988250D01*
X975250D02*
Y526670D01*
Y550170D02*
X988250D01*
X975250Y542670D02*
Y550170D01*
D16*
X1298416Y947862D02*
X1289952Y956326D01*
X1298416D02*
X1289952Y947862D01*
X1298416Y952094D02*
X1289952D01*
X1294184Y956326D02*
Y947862D01*
X1488606Y546291D02*
X1480142Y537827D01*
Y546291D02*
X1488606Y537827D01*
X1484374Y546291D02*
Y537827D01*
X1480142Y542058D02*
X1488606D01*
D17*
X1447412Y1029186D02*
D03*
X1447412Y1073579D02*
D03*
X1447289Y1051329D02*
D03*
X1601012Y1032087D02*
D03*
Y1053486D02*
D03*
X1601012Y1074829D02*
D03*
D18*
X1494442Y380178D02*
D03*
X1493520Y301950D02*
D03*
M02*
