M48
;Layer_Color=9474304
;FILE_FORMAT=4:4
METRIC,LZ
;TYPE=PLATED
T01F00S00C0.2000
T02F00S00C0.7112
T04F00S00C1.8000
;TYPE=NON_PLATED
T05F00S00C3.0000
%
T01
X0152781Y002667
X01527525Y00280619
X01550796Y00281221
X0155086Y00266532
X0157499
X01574969Y00281422
X01569273Y00306046
X01553037Y00305899
X01602428Y00274891
X01626558
X01627693Y00334407
Y00348377
Y00361077
X01651421Y0033655
X016637
X01662532Y00306466
X0171704Y0030734
Y0027305
X0159131Y0043561
X0159893Y0044704
X016129Y0050038
X01624832Y00545333
X01690209Y00562749
X0164061Y0066913
X01619567Y00668757
X01597901Y0066913
X01575238
X0155575Y0058166
X0155956Y0052832
X015494Y0044704
X015367
X0154276Y004347
X0158369Y0044704
X0148844Y0048768
X0144145Y0045275
X01334909Y00447179
X01335214Y00469424
X0130644Y0045378
X01276289Y00530682
X0130429Y0058547
X0129428Y00642961
X0131588Y00643148
X0137044Y00642123
X0139204Y00642868
X0139065Y0060198
X0142621Y0056769
X0149225
X0135763Y0051435
X0123444Y0061468
X0122809Y0064262
X0121031Y0065913
X0119253
X0123825Y0077724
X0131191Y0077597
X01385582Y00776098
X0148209Y0076581
X0151003Y0078359
X0155067Y007874
X010877Y00786512
X01081241Y00748185
X01075212Y00706198
X01068967Y00666579
X01062929Y00624454
X0105664Y0058674
X01050929Y00545878
X01107515Y00568859
X01168693Y0056914
X011383Y00646438
X0099187Y0063881
Y0067945
Y0072009
Y0076073
X0086995Y0078867
X00843581Y00788536
X00803853Y00770738
X0082169Y0056769
X00991997Y00598043
X0099187Y0080137
Y0084074
Y0088011
X009525Y0090424
X0098806Y0095504
X0098044Y0098933
X0100838
Y0104902
X0098044
X0094488Y0103251
Y0101981
Y0099441
X0087884Y010541
X0085471
X0083693Y0108458
X0103378Y0106299
X011684Y0102362
X0115697Y0101092
X01154669Y00994294
X01149149Y0098425
X01136868Y0097448
X01124402Y00973528
X01168826Y00969741
X01177247Y00991055
X0115062Y0093853
X01149221Y00916812
X01121757Y00916619
X011303Y0089027
X0114554
X01098251Y00868334
X01092437Y00827207
X00844521Y00840436
X01219822Y00846263
X01220584Y00823485
X01262356Y0085739
X0126684Y008958
X01282948Y00895121
X0131318Y0091948
X01342173Y0091202
X01342324Y00937123
X0129667Y0094869
X01254737Y00962303
X0124126Y00975178
X01225179Y00975654
X0122174Y0096139
X01229622Y00922317
X0123698Y0092837
X01222468Y00913858
X0119634Y0093853
X0121077Y010113
X01225762Y01015464
X01251109Y01010205
X0126365Y0099949
X0127Y0106553
X0128397
X0129667
X01254443Y01065931
X01241245Y01060368
X0123383Y01054328
X0122428Y01049419
X0124714Y0110607
X0120777Y011303
X0119253
X0132207Y0103315
X0134493
X01374435Y01005307
X013855Y0096019
X01456071Y01001709
X0145542Y0108849
X01540869Y01076073
X0154051Y0105029
X01540557Y0103251
X0152527Y0088392
X0155956Y0086741
X01525307Y00829916
X01509206Y0080279
X0147447Y0082296
X0161163Y0082042
X0162687
X0160909Y0100711
Y0109347
X01712845Y01076632
X01700367Y01055186
X01688594Y01033339
T02
X0128397Y0080645
Y0083185
X0130937
Y0080645
X0133477
Y0083185
X0136017
Y0080645
X0138557
Y0083185
X0141097
Y0080645
T04
X01193971Y00402067
X01235971
X01277971
Y00457067
X01235971
X01193971
X01151971
X01109971
X01067971
X01025971
X00983971
X00941971
X00899971
X00857971
X00815971
Y00402067
X00857971
X00899971
X00941971
X00983971
X01025971
X01067971
X01109971
X01151971
T05
X00815971Y00329067
X01277971
M30
