G04*
G04 #@! TF.GenerationSoftware,Altium Limited,Altium Designer,24.6.1 (21)*
G04*
G04 Layer_Color=128*
%FSLAX44Y44*%
%MOMM*%
G71*
G04*
G04 #@! TF.SameCoordinates,AFB4F5FC-0506-43F6-848E-FD61737C44D3*
G04*
G04*
G04 #@! TF.FilePolarity,Positive*
G04*
G01*
G75*
%ADD79C,0.1270*%
D79*
X1268971Y402067D02*
X1286971D01*
X1277971Y393067D02*
Y411067D01*
X1226972Y402067D02*
X1244971D01*
X1235971Y393067D02*
Y411067D01*
X1184971Y402067D02*
X1202971D01*
X1193971Y393067D02*
Y411067D01*
X1142971Y402067D02*
X1160971D01*
X1151971Y393067D02*
Y411067D01*
X1100972Y402067D02*
X1118971D01*
X1109971Y393067D02*
Y411067D01*
X1058971Y402067D02*
X1076971D01*
X1067971Y393067D02*
Y411067D01*
X1016971Y402067D02*
X1034971D01*
X1025971Y393067D02*
Y411067D01*
X974971Y402067D02*
X992971D01*
X983971Y393067D02*
Y411067D01*
X932971Y402067D02*
X950971D01*
X941971Y393067D02*
Y411067D01*
X890971Y402067D02*
X908971D01*
X899971Y393067D02*
Y411067D01*
X848971Y402067D02*
X866971D01*
X857971Y393067D02*
Y411067D01*
X806972Y402067D02*
X824971D01*
X815971Y393067D02*
Y411067D01*
X1268971Y457067D02*
X1286971D01*
X1277971Y448067D02*
Y466067D01*
X1226972Y457067D02*
X1244971D01*
X1235971Y448067D02*
Y466067D01*
X1184971Y457067D02*
X1202971D01*
X1193971Y448067D02*
Y466067D01*
X1142971Y457067D02*
X1160971D01*
X1151971Y448067D02*
Y466067D01*
X1100972Y457067D02*
X1118971D01*
X1109971Y448067D02*
Y466067D01*
X1058971Y457067D02*
X1076971D01*
X1067971Y448067D02*
Y466067D01*
X1016971Y457067D02*
X1034971D01*
X1025971Y448067D02*
Y466067D01*
X974971Y457067D02*
X992971D01*
X983971Y448067D02*
Y466067D01*
X932971Y457067D02*
X950971D01*
X941971Y448067D02*
Y466067D01*
X890971Y457067D02*
X908971D01*
X899971Y448067D02*
Y466067D01*
X848971Y457067D02*
X866971D01*
X857971Y448067D02*
Y466067D01*
X806972Y457067D02*
X824971D01*
X815971Y448067D02*
Y466067D01*
X1280414Y806450D02*
X1287526D01*
X1283970Y802894D02*
Y810006D01*
X1280414Y831850D02*
X1287526D01*
X1283970Y828294D02*
Y835406D01*
X1305814Y806450D02*
X1312926D01*
X1309370Y802894D02*
Y810006D01*
X1305814Y831850D02*
X1312926D01*
X1309370Y828294D02*
Y835406D01*
X1331214Y806450D02*
X1338326D01*
X1334770Y802894D02*
Y810006D01*
X1331214Y831850D02*
X1338326D01*
X1334770Y828294D02*
Y835406D01*
X1356614Y806450D02*
X1363726D01*
X1360170Y802894D02*
Y810006D01*
X1356614Y831850D02*
X1363726D01*
X1360170Y828294D02*
Y835406D01*
X1382014Y806450D02*
X1389126D01*
X1385570Y802894D02*
Y810006D01*
X1382014Y831850D02*
X1389126D01*
X1385570Y828294D02*
Y835406D01*
X1407414Y806450D02*
X1414526D01*
X1410970Y802894D02*
Y810006D01*
X1407414Y831850D02*
X1414526D01*
X1410970Y828294D02*
Y835406D01*
X1377970Y397221D02*
X1387970D01*
X1382970Y392221D02*
Y402221D01*
X1377970Y337221D02*
X1387970D01*
X1382970Y332221D02*
Y342221D01*
X1416970Y367221D02*
X1442970D01*
X1429970Y354221D02*
Y380221D01*
X1300750Y500380D02*
X1302750D01*
X1301750Y499380D02*
Y501380D01*
X1262650Y999490D02*
X1264650D01*
X1263650Y998490D02*
Y1000490D01*
X1224179Y975654D02*
X1226179D01*
X1225179Y974654D02*
Y976654D01*
X1240260Y975178D02*
X1242260D01*
X1241260Y974178D02*
Y976178D01*
X1253737Y962303D02*
X1255737D01*
X1254737Y961303D02*
Y963303D01*
X1716040Y273050D02*
X1718040D01*
X1717040Y272050D02*
Y274050D01*
X1716040Y307340D02*
X1718040D01*
X1717040Y306340D02*
Y308340D01*
X1425210Y567690D02*
X1427210D01*
X1426210Y566690D02*
Y568690D01*
X1491250Y567690D02*
X1493250D01*
X1492250Y566690D02*
Y568690D01*
X1275289Y530682D02*
X1277289D01*
X1276289Y529682D02*
Y531682D01*
X1137300Y646438D02*
X1139300D01*
X1138300Y645438D02*
Y647438D01*
X1167693Y569140D02*
X1169693D01*
X1168693Y568140D02*
Y570140D01*
X1106515Y568859D02*
X1108515D01*
X1107515Y567859D02*
Y569859D01*
X1623831Y545333D02*
X1625831D01*
X1624832Y544333D02*
Y546333D01*
X1689209Y562749D02*
X1691209D01*
X1690209Y561749D02*
Y563749D01*
X1369440Y642123D02*
X1371440D01*
X1370440Y641123D02*
Y643123D01*
X1391040Y642868D02*
X1393040D01*
X1392040Y641868D02*
Y643868D01*
X1314881Y643148D02*
X1316880D01*
X1315880Y642148D02*
Y644147D01*
X1293280Y642961D02*
X1295280D01*
X1294280Y641961D02*
Y643961D01*
X1549670Y787400D02*
X1551670D01*
X1550670Y786400D02*
Y788400D01*
X1219584Y823485D02*
X1221584D01*
X1220584Y822485D02*
Y824485D01*
X1218822Y846263D02*
X1220822D01*
X1219822Y845263D02*
Y847263D01*
X1209310Y659130D02*
X1211310D01*
X1210310Y658130D02*
Y660130D01*
X1455071Y1001709D02*
X1457071D01*
X1456071Y1000708D02*
Y1002709D01*
X1373435Y1005307D02*
X1375435D01*
X1374435Y1004307D02*
Y1006307D01*
X1661532Y306466D02*
X1663532D01*
X1662532Y305466D02*
Y307466D01*
X1191530Y1130300D02*
X1193530D01*
X1192530Y1129300D02*
Y1131300D01*
X1206770Y1130300D02*
X1208770D01*
X1207770Y1129300D02*
Y1131300D01*
X1261356Y857390D02*
X1263356D01*
X1262356Y856390D02*
Y858390D01*
X1281948Y895121D02*
X1283948D01*
X1282948Y894121D02*
Y896121D01*
X1265840Y895800D02*
X1267840D01*
X1266840Y894800D02*
Y896800D01*
X1007380Y989330D02*
X1009380D01*
X1008380Y988330D02*
Y990330D01*
X1295670Y1065530D02*
X1297670D01*
X1296670Y1064530D02*
Y1066530D01*
X1240245Y1060368D02*
X1242245D01*
X1241245Y1059368D02*
Y1061368D01*
X1232830Y1054328D02*
X1234830D01*
X1233830Y1053328D02*
Y1055328D01*
X1253443Y1065931D02*
X1255443D01*
X1254443Y1064931D02*
Y1066931D01*
X1223280Y1049419D02*
X1225280D01*
X1224280Y1048419D02*
Y1050419D01*
X1235980Y928370D02*
X1237980D01*
X1236980Y927370D02*
Y929370D01*
X1167826Y969741D02*
X1169826D01*
X1168826Y968741D02*
Y970741D01*
X1195340Y938530D02*
X1197340D01*
X1196340Y937530D02*
Y939530D01*
X1135868Y974480D02*
X1137868D01*
X1136868Y973480D02*
Y975480D01*
X1123402Y973528D02*
X1125402D01*
X1124402Y972528D02*
Y974528D01*
X1120757Y916619D02*
X1122757D01*
X1121757Y915619D02*
Y917619D01*
X1097251Y868334D02*
X1099251D01*
X1098251Y867334D02*
Y869334D01*
X1091437Y827207D02*
X1093437D01*
X1092437Y826208D02*
Y828207D01*
X1086700Y786512D02*
X1088700D01*
X1087700Y785512D02*
Y787512D01*
X1080241Y748185D02*
X1082241D01*
X1081241Y747185D02*
Y749185D01*
X1074212Y706198D02*
X1076212D01*
X1075212Y705198D02*
Y707198D01*
X1067967Y666579D02*
X1069967D01*
X1068967Y665579D02*
Y667579D01*
X1061929Y624454D02*
X1063929D01*
X1062929Y623454D02*
Y625454D01*
X1049929Y545878D02*
X1051929D01*
X1050929Y544878D02*
Y546878D01*
X1055640Y586740D02*
X1057640D01*
X1056640Y585740D02*
Y587740D01*
X1176247Y991055D02*
X1178247D01*
X1177247Y990055D02*
Y992055D01*
X1148222Y916812D02*
X1150221D01*
X1149221Y915811D02*
Y917812D01*
X1454420Y1088490D02*
X1456420D01*
X1455420Y1087490D02*
Y1089490D01*
X1246140Y1106070D02*
X1248140D01*
X1247140Y1105070D02*
Y1107070D01*
X1209770Y1011300D02*
X1211769D01*
X1210770Y1010300D02*
Y1012300D01*
X1224762Y1015464D02*
X1226762D01*
X1225762Y1014464D02*
Y1016464D01*
X1250109Y1010205D02*
X1252109D01*
X1251109Y1009205D02*
Y1011205D01*
X987060Y955040D02*
X989060D01*
X988060Y954040D02*
Y956040D01*
X1539557Y1032510D02*
X1541557D01*
X1540557Y1031510D02*
Y1033510D01*
X1539869Y1076073D02*
X1541869D01*
X1540869Y1075073D02*
Y1077073D01*
X943880Y994410D02*
X945880D01*
X944880Y993410D02*
Y995410D01*
X943880Y1019810D02*
X945880D01*
X944880Y1018810D02*
Y1020810D01*
X1539510Y1050290D02*
X1541510D01*
X1540510Y1049290D02*
Y1051290D01*
X1032780Y1062990D02*
X1034780D01*
X1033780Y1061990D02*
Y1063990D01*
X943880Y1032510D02*
X945880D01*
X944880Y1031510D02*
Y1033510D01*
X1608090Y1007110D02*
X1610090D01*
X1609090Y1006110D02*
Y1008110D01*
X1608090Y1093470D02*
X1610090D01*
X1609090Y1092470D02*
Y1094470D01*
X1508206Y802790D02*
X1510206D01*
X1509206Y801790D02*
Y803790D01*
X1509030Y783590D02*
X1511030D01*
X1510030Y782590D02*
Y784590D01*
X1524307Y829916D02*
X1526307D01*
X1525307Y828916D02*
Y830916D01*
X1473470Y822960D02*
X1475470D01*
X1474470Y821960D02*
Y823960D01*
X1711845Y1076632D02*
X1713845D01*
X1712845Y1075632D02*
Y1077632D01*
X1699368Y1055186D02*
X1701367D01*
X1700367Y1054186D02*
Y1056186D01*
X1687594Y1033339D02*
X1689594D01*
X1688594Y1032339D02*
Y1034339D01*
X1321070Y1033150D02*
X1323070D01*
X1322070Y1032150D02*
Y1034150D01*
X1343930Y1033150D02*
X1345930D01*
X1344930Y1032150D02*
Y1034150D01*
X1282970Y1065530D02*
X1284970D01*
X1283970Y1064530D02*
Y1066530D01*
X1220740Y961390D02*
X1222740D01*
X1221740Y960390D02*
Y962390D01*
X1312180Y919480D02*
X1314180D01*
X1313180Y918480D02*
Y920480D01*
X1341174Y912020D02*
X1343174D01*
X1342173Y911021D02*
Y913020D01*
X1149620Y938530D02*
X1151620D01*
X1150620Y937530D02*
Y939530D01*
X1221468Y913858D02*
X1223468D01*
X1222468Y912858D02*
Y914858D01*
X1228623Y922317D02*
X1230622D01*
X1229622Y921317D02*
Y923317D01*
X1148149Y984250D02*
X1150149D01*
X1149149Y983250D02*
Y985250D01*
X1153669Y994294D02*
X1155669D01*
X1154669Y993294D02*
Y995294D01*
X1167400Y1023620D02*
X1169400D01*
X1168400Y1022620D02*
Y1024620D01*
X1155970Y1010920D02*
X1157970D01*
X1156970Y1009920D02*
Y1011920D01*
X1384500Y960190D02*
X1386500D01*
X1385500Y959190D02*
Y961190D01*
X1295670Y948690D02*
X1297670D01*
X1296670Y947690D02*
Y949690D01*
X1341324Y937123D02*
X1343324D01*
X1342324Y936124D02*
Y938123D01*
X1524270Y883920D02*
X1526270D01*
X1525270Y882920D02*
Y884920D01*
X1481090Y765810D02*
X1483090D01*
X1482090Y764810D02*
Y766810D01*
X1610630Y820420D02*
X1612630D01*
X1611630Y819420D02*
Y821420D01*
X1389650Y601980D02*
X1391650D01*
X1390650Y600980D02*
Y602980D01*
X1237250Y777240D02*
X1239250D01*
X1238250Y776240D02*
Y778240D01*
X1233440Y614680D02*
X1235440D01*
X1234440Y613680D02*
Y615680D01*
X1191530Y659130D02*
X1193530D01*
X1192530Y658130D02*
Y660130D01*
X1227090Y642620D02*
X1229090D01*
X1228090Y641620D02*
Y643620D01*
X868950Y788670D02*
X870950D01*
X869950Y787670D02*
Y789670D01*
X842581Y788536D02*
X844581D01*
X843581Y787536D02*
Y789536D01*
X843521Y840436D02*
X845521D01*
X844521Y839436D02*
Y841436D01*
X1440450Y452750D02*
X1442450D01*
X1441450Y451750D02*
Y453750D01*
X1639610Y669130D02*
X1641610D01*
X1640610Y668130D02*
Y670130D01*
X1618567Y668757D02*
X1620567D01*
X1619567Y667757D02*
Y669757D01*
X1596901Y669130D02*
X1598901D01*
X1597901Y668130D02*
Y670130D01*
X1574238Y669130D02*
X1576239D01*
X1575238Y668130D02*
Y670130D01*
X1535700Y447040D02*
X1537700D01*
X1536700Y446040D02*
Y448040D01*
X1582690Y447040D02*
X1584690D01*
X1583690Y446040D02*
Y448040D01*
X1597930Y447040D02*
X1599930D01*
X1598930Y446040D02*
Y448040D01*
X1548400Y447040D02*
X1550400D01*
X1549400Y446040D02*
Y448040D01*
X1356630Y514350D02*
X1358630D01*
X1357630Y513350D02*
Y515350D01*
X1590310Y435610D02*
X1592310D01*
X1591310Y434610D02*
Y436610D01*
X1144540Y890270D02*
X1146540D01*
X1145540Y889270D02*
Y891270D01*
X1129300Y890270D02*
X1131300D01*
X1130300Y889270D02*
Y891270D01*
X877840Y1054100D02*
X879840D01*
X878840Y1053100D02*
Y1055100D01*
X853710Y1054100D02*
X855710D01*
X854710Y1053100D02*
Y1055100D01*
X835930Y1084580D02*
X837930D01*
X836930Y1083580D02*
Y1085580D01*
X1558560Y528320D02*
X1560560D01*
X1559560Y527320D02*
Y529320D01*
X1549796Y281221D02*
X1551796D01*
X1550796Y280221D02*
Y282221D01*
X1549860Y266532D02*
X1551860D01*
X1550860Y265532D02*
Y267532D01*
X1573969Y281422D02*
X1575969D01*
X1574969Y280422D02*
Y282422D01*
X1573990Y266532D02*
X1575990D01*
X1574990Y265532D02*
Y267532D01*
X1601428Y274891D02*
X1603428D01*
X1602428Y273892D02*
Y275891D01*
X1625558Y274891D02*
X1627558D01*
X1626558Y273892D02*
Y275891D01*
X1526810Y266700D02*
X1528810D01*
X1527810Y265700D02*
Y267700D01*
X1526525Y280619D02*
X1528525D01*
X1527525Y279619D02*
Y281619D01*
X1487440Y487680D02*
X1489440D01*
X1488440Y486680D02*
Y488680D01*
X820690Y567690D02*
X822690D01*
X821690Y566690D02*
Y568690D01*
X1611900Y500380D02*
X1613900D01*
X1612900Y499380D02*
Y501380D01*
X1334214Y469424D02*
X1336214D01*
X1335214Y468424D02*
Y470424D01*
X1541760Y434700D02*
X1543760D01*
X1542760Y433700D02*
Y435700D01*
X1554750Y581660D02*
X1556750D01*
X1555750Y580660D02*
Y582660D01*
X1625870Y820420D02*
X1627870D01*
X1626870Y819420D02*
Y821420D01*
X1558560Y867410D02*
X1560560D01*
X1559560Y866410D02*
Y868410D01*
X1269000Y1065530D02*
X1271000D01*
X1270000Y1064530D02*
Y1066530D01*
X979440Y1049020D02*
X981440D01*
X980440Y1048020D02*
Y1050020D01*
X1007380Y1049020D02*
X1009380D01*
X1008380Y1048020D02*
Y1050020D01*
X979440Y989330D02*
X981440D01*
X980440Y988330D02*
Y990330D01*
X1303290Y585470D02*
X1305290D01*
X1304290Y584470D02*
Y586470D01*
X990997Y598043D02*
X992997D01*
X991997Y597043D02*
Y599043D01*
X990870Y638810D02*
X992870D01*
X991870Y637810D02*
Y639810D01*
X990870Y679450D02*
X992870D01*
X991870Y678450D02*
Y680450D01*
X990870Y720090D02*
X992870D01*
X991870Y719090D02*
Y721090D01*
X990870Y760730D02*
X992870D01*
X991870Y759730D02*
Y761730D01*
X990870Y801370D02*
X992870D01*
X991870Y800370D02*
Y802370D01*
X990870Y840740D02*
X992870D01*
X991870Y839740D02*
Y841740D01*
X990870Y880110D02*
X992870D01*
X991870Y879110D02*
Y881110D01*
X1333909Y447179D02*
X1335909D01*
X1334909Y446179D02*
Y448179D01*
X802853Y770738D02*
X804853D01*
X803853Y769738D02*
Y771738D01*
X1310910Y775970D02*
X1312910D01*
X1311910Y774970D02*
Y776970D01*
X1384583Y776098D02*
X1386582D01*
X1385582Y775098D02*
Y777098D01*
X951500Y904240D02*
X953500D01*
X952500Y903240D02*
Y905240D01*
X1626693Y334407D02*
X1628693D01*
X1627693Y333407D02*
Y335407D01*
X1626693Y361077D02*
X1628693D01*
X1627693Y360077D02*
Y362077D01*
X1662700Y336550D02*
X1664700D01*
X1663700Y335550D02*
Y337550D01*
X1626693Y348377D02*
X1628693D01*
X1627693Y347377D02*
Y349377D01*
X1568273Y306046D02*
X1570273D01*
X1569273Y305046D02*
Y307046D01*
X1650421Y336550D02*
X1652421D01*
X1651421Y335550D02*
Y337550D01*
X1552037Y305899D02*
X1554037D01*
X1553037Y304899D02*
Y306899D01*
M02*
